G04 #@! TF.GenerationSoftware,KiCad,Pcbnew,(5.1.2)-2*
G04 #@! TF.CreationDate,2020-04-06T22:20:43-04:00*
G04 #@! TF.ProjectId,led_everled,6c65645f-6576-4657-926c-65642e6b6963,rev?*
G04 #@! TF.SameCoordinates,Original*
G04 #@! TF.FileFunction,Soldermask,Top*
G04 #@! TF.FilePolarity,Negative*
%FSLAX46Y46*%
G04 Gerber Fmt 4.6, Leading zero omitted, Abs format (unit mm)*
G04 Created by KiCad (PCBNEW (5.1.2)-2) date 2020-04-06 22:20:43*
%MOMM*%
%LPD*%
G04 APERTURE LIST*
%ADD10R,2.960000X3.760000*%
%ADD11C,5.960000*%
%ADD12C,0.100000*%
%ADD13C,1.510000*%
%ADD14R,3.560000X0.760000*%
%ADD15R,3.560000X1.560000*%
%ADD16O,1.960000X1.960000*%
%ADD17R,1.960000X1.960000*%
%ADD18R,5.960000X1.860000*%
%ADD19R,1.160000X1.060000*%
%ADD20C,1.235000*%
%ADD21R,2.800000X3.770000*%
%ADD22R,0.510000X1.010000*%
%ADD23C,0.860000*%
G04 APERTURE END LIST*
D10*
X134950000Y-80650000D03*
X137650000Y-93350000D03*
D11*
X136300000Y-87000000D03*
D12*
G36*
X131182601Y-87646454D02*
G01*
X131211917Y-87650803D01*
X131240666Y-87658004D01*
X131268570Y-87667988D01*
X131295362Y-87680660D01*
X131320782Y-87695896D01*
X131344587Y-87713551D01*
X131366546Y-87733454D01*
X131386449Y-87755413D01*
X131404104Y-87779218D01*
X131419340Y-87804638D01*
X131432012Y-87831430D01*
X131441996Y-87859334D01*
X131449197Y-87888083D01*
X131453546Y-87917399D01*
X131455000Y-87947000D01*
X131455000Y-88853000D01*
X131453546Y-88882601D01*
X131449197Y-88911917D01*
X131441996Y-88940666D01*
X131432012Y-88968570D01*
X131419340Y-88995362D01*
X131404104Y-89020782D01*
X131386449Y-89044587D01*
X131366546Y-89066546D01*
X131344587Y-89086449D01*
X131320782Y-89104104D01*
X131295362Y-89119340D01*
X131268570Y-89132012D01*
X131240666Y-89141996D01*
X131211917Y-89149197D01*
X131182601Y-89153546D01*
X131153000Y-89155000D01*
X128847000Y-89155000D01*
X128817399Y-89153546D01*
X128788083Y-89149197D01*
X128759334Y-89141996D01*
X128731430Y-89132012D01*
X128704638Y-89119340D01*
X128679218Y-89104104D01*
X128655413Y-89086449D01*
X128633454Y-89066546D01*
X128613551Y-89044587D01*
X128595896Y-89020782D01*
X128580660Y-88995362D01*
X128567988Y-88968570D01*
X128558004Y-88940666D01*
X128550803Y-88911917D01*
X128546454Y-88882601D01*
X128545000Y-88853000D01*
X128545000Y-87947000D01*
X128546454Y-87917399D01*
X128550803Y-87888083D01*
X128558004Y-87859334D01*
X128567988Y-87831430D01*
X128580660Y-87804638D01*
X128595896Y-87779218D01*
X128613551Y-87755413D01*
X128633454Y-87733454D01*
X128655413Y-87713551D01*
X128679218Y-87695896D01*
X128704638Y-87680660D01*
X128731430Y-87667988D01*
X128759334Y-87658004D01*
X128788083Y-87650803D01*
X128817399Y-87646454D01*
X128847000Y-87645000D01*
X131153000Y-87645000D01*
X131182601Y-87646454D01*
X131182601Y-87646454D01*
G37*
D13*
X130000000Y-88400000D03*
D12*
G36*
X131182601Y-84846454D02*
G01*
X131211917Y-84850803D01*
X131240666Y-84858004D01*
X131268570Y-84867988D01*
X131295362Y-84880660D01*
X131320782Y-84895896D01*
X131344587Y-84913551D01*
X131366546Y-84933454D01*
X131386449Y-84955413D01*
X131404104Y-84979218D01*
X131419340Y-85004638D01*
X131432012Y-85031430D01*
X131441996Y-85059334D01*
X131449197Y-85088083D01*
X131453546Y-85117399D01*
X131455000Y-85147000D01*
X131455000Y-86053000D01*
X131453546Y-86082601D01*
X131449197Y-86111917D01*
X131441996Y-86140666D01*
X131432012Y-86168570D01*
X131419340Y-86195362D01*
X131404104Y-86220782D01*
X131386449Y-86244587D01*
X131366546Y-86266546D01*
X131344587Y-86286449D01*
X131320782Y-86304104D01*
X131295362Y-86319340D01*
X131268570Y-86332012D01*
X131240666Y-86341996D01*
X131211917Y-86349197D01*
X131182601Y-86353546D01*
X131153000Y-86355000D01*
X128847000Y-86355000D01*
X128817399Y-86353546D01*
X128788083Y-86349197D01*
X128759334Y-86341996D01*
X128731430Y-86332012D01*
X128704638Y-86319340D01*
X128679218Y-86304104D01*
X128655413Y-86286449D01*
X128633454Y-86266546D01*
X128613551Y-86244587D01*
X128595896Y-86220782D01*
X128580660Y-86195362D01*
X128567988Y-86168570D01*
X128558004Y-86140666D01*
X128550803Y-86111917D01*
X128546454Y-86082601D01*
X128545000Y-86053000D01*
X128545000Y-85147000D01*
X128546454Y-85117399D01*
X128550803Y-85088083D01*
X128558004Y-85059334D01*
X128567988Y-85031430D01*
X128580660Y-85004638D01*
X128595896Y-84979218D01*
X128613551Y-84955413D01*
X128633454Y-84933454D01*
X128655413Y-84913551D01*
X128679218Y-84895896D01*
X128704638Y-84880660D01*
X128731430Y-84867988D01*
X128759334Y-84858004D01*
X128788083Y-84850803D01*
X128817399Y-84846454D01*
X128847000Y-84845000D01*
X131153000Y-84845000D01*
X131182601Y-84846454D01*
X131182601Y-84846454D01*
G37*
D13*
X130000000Y-85600000D03*
D14*
X143100000Y-85600000D03*
X143100000Y-88400000D03*
D15*
X143100000Y-87000000D03*
X147500000Y-87000000D03*
D14*
X147500000Y-88400000D03*
X147500000Y-85600000D03*
D16*
X138700000Y-75960000D03*
D17*
X138700000Y-78500000D03*
D16*
X130000000Y-75960000D03*
D17*
X130000000Y-78500000D03*
X143100000Y-78500000D03*
D16*
X143100000Y-75960000D03*
D17*
X147500000Y-78400000D03*
D16*
X147500000Y-75860000D03*
D17*
X111100000Y-78500000D03*
D16*
X111100000Y-75960000D03*
X116300000Y-75960000D03*
D17*
X116300000Y-78500000D03*
X122900000Y-78500000D03*
D16*
X122900000Y-75960000D03*
D18*
X122900000Y-89350000D03*
X122900000Y-84650000D03*
D12*
G36*
X112282601Y-87646454D02*
G01*
X112311917Y-87650803D01*
X112340666Y-87658004D01*
X112368570Y-87667988D01*
X112395362Y-87680660D01*
X112420782Y-87695896D01*
X112444587Y-87713551D01*
X112466546Y-87733454D01*
X112486449Y-87755413D01*
X112504104Y-87779218D01*
X112519340Y-87804638D01*
X112532012Y-87831430D01*
X112541996Y-87859334D01*
X112549197Y-87888083D01*
X112553546Y-87917399D01*
X112555000Y-87947000D01*
X112555000Y-88853000D01*
X112553546Y-88882601D01*
X112549197Y-88911917D01*
X112541996Y-88940666D01*
X112532012Y-88968570D01*
X112519340Y-88995362D01*
X112504104Y-89020782D01*
X112486449Y-89044587D01*
X112466546Y-89066546D01*
X112444587Y-89086449D01*
X112420782Y-89104104D01*
X112395362Y-89119340D01*
X112368570Y-89132012D01*
X112340666Y-89141996D01*
X112311917Y-89149197D01*
X112282601Y-89153546D01*
X112253000Y-89155000D01*
X109947000Y-89155000D01*
X109917399Y-89153546D01*
X109888083Y-89149197D01*
X109859334Y-89141996D01*
X109831430Y-89132012D01*
X109804638Y-89119340D01*
X109779218Y-89104104D01*
X109755413Y-89086449D01*
X109733454Y-89066546D01*
X109713551Y-89044587D01*
X109695896Y-89020782D01*
X109680660Y-88995362D01*
X109667988Y-88968570D01*
X109658004Y-88940666D01*
X109650803Y-88911917D01*
X109646454Y-88882601D01*
X109645000Y-88853000D01*
X109645000Y-87947000D01*
X109646454Y-87917399D01*
X109650803Y-87888083D01*
X109658004Y-87859334D01*
X109667988Y-87831430D01*
X109680660Y-87804638D01*
X109695896Y-87779218D01*
X109713551Y-87755413D01*
X109733454Y-87733454D01*
X109755413Y-87713551D01*
X109779218Y-87695896D01*
X109804638Y-87680660D01*
X109831430Y-87667988D01*
X109859334Y-87658004D01*
X109888083Y-87650803D01*
X109917399Y-87646454D01*
X109947000Y-87645000D01*
X112253000Y-87645000D01*
X112282601Y-87646454D01*
X112282601Y-87646454D01*
G37*
D13*
X111100000Y-88400000D03*
D12*
G36*
X112282601Y-84846454D02*
G01*
X112311917Y-84850803D01*
X112340666Y-84858004D01*
X112368570Y-84867988D01*
X112395362Y-84880660D01*
X112420782Y-84895896D01*
X112444587Y-84913551D01*
X112466546Y-84933454D01*
X112486449Y-84955413D01*
X112504104Y-84979218D01*
X112519340Y-85004638D01*
X112532012Y-85031430D01*
X112541996Y-85059334D01*
X112549197Y-85088083D01*
X112553546Y-85117399D01*
X112555000Y-85147000D01*
X112555000Y-86053000D01*
X112553546Y-86082601D01*
X112549197Y-86111917D01*
X112541996Y-86140666D01*
X112532012Y-86168570D01*
X112519340Y-86195362D01*
X112504104Y-86220782D01*
X112486449Y-86244587D01*
X112466546Y-86266546D01*
X112444587Y-86286449D01*
X112420782Y-86304104D01*
X112395362Y-86319340D01*
X112368570Y-86332012D01*
X112340666Y-86341996D01*
X112311917Y-86349197D01*
X112282601Y-86353546D01*
X112253000Y-86355000D01*
X109947000Y-86355000D01*
X109917399Y-86353546D01*
X109888083Y-86349197D01*
X109859334Y-86341996D01*
X109831430Y-86332012D01*
X109804638Y-86319340D01*
X109779218Y-86304104D01*
X109755413Y-86286449D01*
X109733454Y-86266546D01*
X109713551Y-86244587D01*
X109695896Y-86220782D01*
X109680660Y-86195362D01*
X109667988Y-86168570D01*
X109658004Y-86140666D01*
X109650803Y-86111917D01*
X109646454Y-86082601D01*
X109645000Y-86053000D01*
X109645000Y-85147000D01*
X109646454Y-85117399D01*
X109650803Y-85088083D01*
X109658004Y-85059334D01*
X109667988Y-85031430D01*
X109680660Y-85004638D01*
X109695896Y-84979218D01*
X109713551Y-84955413D01*
X109733454Y-84933454D01*
X109755413Y-84913551D01*
X109779218Y-84895896D01*
X109804638Y-84880660D01*
X109831430Y-84867988D01*
X109859334Y-84858004D01*
X109888083Y-84850803D01*
X109917399Y-84846454D01*
X109947000Y-84845000D01*
X112253000Y-84845000D01*
X112282601Y-84846454D01*
X112282601Y-84846454D01*
G37*
D13*
X111100000Y-85600000D03*
D18*
X116300000Y-84650000D03*
X116300000Y-89350000D03*
D19*
X107600000Y-80550000D03*
X107600000Y-82450000D03*
X109600000Y-81500000D03*
D12*
G36*
X106151513Y-79946487D02*
G01*
X106181484Y-79950933D01*
X106210875Y-79958295D01*
X106239404Y-79968502D01*
X106266794Y-79981457D01*
X106292782Y-79997034D01*
X106317119Y-80015083D01*
X106339569Y-80035431D01*
X106359917Y-80057881D01*
X106377966Y-80082218D01*
X106393543Y-80108206D01*
X106406498Y-80135596D01*
X106416705Y-80164125D01*
X106424067Y-80193516D01*
X106428513Y-80223487D01*
X106430000Y-80253750D01*
X106430000Y-80871250D01*
X106428513Y-80901513D01*
X106424067Y-80931484D01*
X106416705Y-80960875D01*
X106406498Y-80989404D01*
X106393543Y-81016794D01*
X106377966Y-81042782D01*
X106359917Y-81067119D01*
X106339569Y-81089569D01*
X106317119Y-81109917D01*
X106292782Y-81127966D01*
X106266794Y-81143543D01*
X106239404Y-81156498D01*
X106210875Y-81166705D01*
X106181484Y-81174067D01*
X106151513Y-81178513D01*
X106121250Y-81180000D01*
X105078750Y-81180000D01*
X105048487Y-81178513D01*
X105018516Y-81174067D01*
X104989125Y-81166705D01*
X104960596Y-81156498D01*
X104933206Y-81143543D01*
X104907218Y-81127966D01*
X104882881Y-81109917D01*
X104860431Y-81089569D01*
X104840083Y-81067119D01*
X104822034Y-81042782D01*
X104806457Y-81016794D01*
X104793502Y-80989404D01*
X104783295Y-80960875D01*
X104775933Y-80931484D01*
X104771487Y-80901513D01*
X104770000Y-80871250D01*
X104770000Y-80253750D01*
X104771487Y-80223487D01*
X104775933Y-80193516D01*
X104783295Y-80164125D01*
X104793502Y-80135596D01*
X104806457Y-80108206D01*
X104822034Y-80082218D01*
X104840083Y-80057881D01*
X104860431Y-80035431D01*
X104882881Y-80015083D01*
X104907218Y-79997034D01*
X104933206Y-79981457D01*
X104960596Y-79968502D01*
X104989125Y-79958295D01*
X105018516Y-79950933D01*
X105048487Y-79946487D01*
X105078750Y-79945000D01*
X106121250Y-79945000D01*
X106151513Y-79946487D01*
X106151513Y-79946487D01*
G37*
D20*
X105600000Y-80562500D03*
D12*
G36*
X106151513Y-81821487D02*
G01*
X106181484Y-81825933D01*
X106210875Y-81833295D01*
X106239404Y-81843502D01*
X106266794Y-81856457D01*
X106292782Y-81872034D01*
X106317119Y-81890083D01*
X106339569Y-81910431D01*
X106359917Y-81932881D01*
X106377966Y-81957218D01*
X106393543Y-81983206D01*
X106406498Y-82010596D01*
X106416705Y-82039125D01*
X106424067Y-82068516D01*
X106428513Y-82098487D01*
X106430000Y-82128750D01*
X106430000Y-82746250D01*
X106428513Y-82776513D01*
X106424067Y-82806484D01*
X106416705Y-82835875D01*
X106406498Y-82864404D01*
X106393543Y-82891794D01*
X106377966Y-82917782D01*
X106359917Y-82942119D01*
X106339569Y-82964569D01*
X106317119Y-82984917D01*
X106292782Y-83002966D01*
X106266794Y-83018543D01*
X106239404Y-83031498D01*
X106210875Y-83041705D01*
X106181484Y-83049067D01*
X106151513Y-83053513D01*
X106121250Y-83055000D01*
X105078750Y-83055000D01*
X105048487Y-83053513D01*
X105018516Y-83049067D01*
X104989125Y-83041705D01*
X104960596Y-83031498D01*
X104933206Y-83018543D01*
X104907218Y-83002966D01*
X104882881Y-82984917D01*
X104860431Y-82964569D01*
X104840083Y-82942119D01*
X104822034Y-82917782D01*
X104806457Y-82891794D01*
X104793502Y-82864404D01*
X104783295Y-82835875D01*
X104775933Y-82806484D01*
X104771487Y-82776513D01*
X104770000Y-82746250D01*
X104770000Y-82128750D01*
X104771487Y-82098487D01*
X104775933Y-82068516D01*
X104783295Y-82039125D01*
X104793502Y-82010596D01*
X104806457Y-81983206D01*
X104822034Y-81957218D01*
X104840083Y-81932881D01*
X104860431Y-81910431D01*
X104882881Y-81890083D01*
X104907218Y-81872034D01*
X104933206Y-81856457D01*
X104960596Y-81843502D01*
X104989125Y-81833295D01*
X105018516Y-81825933D01*
X105048487Y-81821487D01*
X105078750Y-81820000D01*
X106121250Y-81820000D01*
X106151513Y-81821487D01*
X106151513Y-81821487D01*
G37*
D20*
X105600000Y-82437500D03*
D21*
X84980000Y-87000000D03*
X55620000Y-87000000D03*
D12*
G36*
X106276513Y-91171487D02*
G01*
X106306484Y-91175933D01*
X106335875Y-91183295D01*
X106364404Y-91193502D01*
X106391794Y-91206457D01*
X106417782Y-91222034D01*
X106442119Y-91240083D01*
X106464569Y-91260431D01*
X106484917Y-91282881D01*
X106502966Y-91307218D01*
X106518543Y-91333206D01*
X106531498Y-91360596D01*
X106541705Y-91389125D01*
X106549067Y-91418516D01*
X106553513Y-91448487D01*
X106555000Y-91478750D01*
X106555000Y-92521250D01*
X106553513Y-92551513D01*
X106549067Y-92581484D01*
X106541705Y-92610875D01*
X106531498Y-92639404D01*
X106518543Y-92666794D01*
X106502966Y-92692782D01*
X106484917Y-92717119D01*
X106464569Y-92739569D01*
X106442119Y-92759917D01*
X106417782Y-92777966D01*
X106391794Y-92793543D01*
X106364404Y-92806498D01*
X106335875Y-92816705D01*
X106306484Y-92824067D01*
X106276513Y-92828513D01*
X106246250Y-92830000D01*
X105628750Y-92830000D01*
X105598487Y-92828513D01*
X105568516Y-92824067D01*
X105539125Y-92816705D01*
X105510596Y-92806498D01*
X105483206Y-92793543D01*
X105457218Y-92777966D01*
X105432881Y-92759917D01*
X105410431Y-92739569D01*
X105390083Y-92717119D01*
X105372034Y-92692782D01*
X105356457Y-92666794D01*
X105343502Y-92639404D01*
X105333295Y-92610875D01*
X105325933Y-92581484D01*
X105321487Y-92551513D01*
X105320000Y-92521250D01*
X105320000Y-91478750D01*
X105321487Y-91448487D01*
X105325933Y-91418516D01*
X105333295Y-91389125D01*
X105343502Y-91360596D01*
X105356457Y-91333206D01*
X105372034Y-91307218D01*
X105390083Y-91282881D01*
X105410431Y-91260431D01*
X105432881Y-91240083D01*
X105457218Y-91222034D01*
X105483206Y-91206457D01*
X105510596Y-91193502D01*
X105539125Y-91183295D01*
X105568516Y-91175933D01*
X105598487Y-91171487D01*
X105628750Y-91170000D01*
X106246250Y-91170000D01*
X106276513Y-91171487D01*
X106276513Y-91171487D01*
G37*
D20*
X105937500Y-92000000D03*
D12*
G36*
X104401513Y-91171487D02*
G01*
X104431484Y-91175933D01*
X104460875Y-91183295D01*
X104489404Y-91193502D01*
X104516794Y-91206457D01*
X104542782Y-91222034D01*
X104567119Y-91240083D01*
X104589569Y-91260431D01*
X104609917Y-91282881D01*
X104627966Y-91307218D01*
X104643543Y-91333206D01*
X104656498Y-91360596D01*
X104666705Y-91389125D01*
X104674067Y-91418516D01*
X104678513Y-91448487D01*
X104680000Y-91478750D01*
X104680000Y-92521250D01*
X104678513Y-92551513D01*
X104674067Y-92581484D01*
X104666705Y-92610875D01*
X104656498Y-92639404D01*
X104643543Y-92666794D01*
X104627966Y-92692782D01*
X104609917Y-92717119D01*
X104589569Y-92739569D01*
X104567119Y-92759917D01*
X104542782Y-92777966D01*
X104516794Y-92793543D01*
X104489404Y-92806498D01*
X104460875Y-92816705D01*
X104431484Y-92824067D01*
X104401513Y-92828513D01*
X104371250Y-92830000D01*
X103753750Y-92830000D01*
X103723487Y-92828513D01*
X103693516Y-92824067D01*
X103664125Y-92816705D01*
X103635596Y-92806498D01*
X103608206Y-92793543D01*
X103582218Y-92777966D01*
X103557881Y-92759917D01*
X103535431Y-92739569D01*
X103515083Y-92717119D01*
X103497034Y-92692782D01*
X103481457Y-92666794D01*
X103468502Y-92639404D01*
X103458295Y-92610875D01*
X103450933Y-92581484D01*
X103446487Y-92551513D01*
X103445000Y-92521250D01*
X103445000Y-91478750D01*
X103446487Y-91448487D01*
X103450933Y-91418516D01*
X103458295Y-91389125D01*
X103468502Y-91360596D01*
X103481457Y-91333206D01*
X103497034Y-91307218D01*
X103515083Y-91282881D01*
X103535431Y-91260431D01*
X103557881Y-91240083D01*
X103582218Y-91222034D01*
X103608206Y-91206457D01*
X103635596Y-91193502D01*
X103664125Y-91183295D01*
X103693516Y-91175933D01*
X103723487Y-91171487D01*
X103753750Y-91170000D01*
X104371250Y-91170000D01*
X104401513Y-91171487D01*
X104401513Y-91171487D01*
G37*
D20*
X104062500Y-92000000D03*
D16*
X102240000Y-98000000D03*
X99700000Y-98000000D03*
X97160000Y-98000000D03*
X94620000Y-98000000D03*
X92080000Y-98000000D03*
X89540000Y-98000000D03*
D17*
X87000000Y-98000000D03*
X87000000Y-76000000D03*
D16*
X89540000Y-76000000D03*
X92080000Y-76000000D03*
X94620000Y-76000000D03*
X97160000Y-76000000D03*
X99700000Y-76000000D03*
X102240000Y-76000000D03*
D17*
X88500000Y-88200000D03*
D16*
X88500000Y-85660000D03*
D19*
X103000000Y-87050000D03*
X103000000Y-88950000D03*
X105000000Y-88000000D03*
D12*
G36*
X108464013Y-91171487D02*
G01*
X108493984Y-91175933D01*
X108523375Y-91183295D01*
X108551904Y-91193502D01*
X108579294Y-91206457D01*
X108605282Y-91222034D01*
X108629619Y-91240083D01*
X108652069Y-91260431D01*
X108672417Y-91282881D01*
X108690466Y-91307218D01*
X108706043Y-91333206D01*
X108718998Y-91360596D01*
X108729205Y-91389125D01*
X108736567Y-91418516D01*
X108741013Y-91448487D01*
X108742500Y-91478750D01*
X108742500Y-92521250D01*
X108741013Y-92551513D01*
X108736567Y-92581484D01*
X108729205Y-92610875D01*
X108718998Y-92639404D01*
X108706043Y-92666794D01*
X108690466Y-92692782D01*
X108672417Y-92717119D01*
X108652069Y-92739569D01*
X108629619Y-92759917D01*
X108605282Y-92777966D01*
X108579294Y-92793543D01*
X108551904Y-92806498D01*
X108523375Y-92816705D01*
X108493984Y-92824067D01*
X108464013Y-92828513D01*
X108433750Y-92830000D01*
X107816250Y-92830000D01*
X107785987Y-92828513D01*
X107756016Y-92824067D01*
X107726625Y-92816705D01*
X107698096Y-92806498D01*
X107670706Y-92793543D01*
X107644718Y-92777966D01*
X107620381Y-92759917D01*
X107597931Y-92739569D01*
X107577583Y-92717119D01*
X107559534Y-92692782D01*
X107543957Y-92666794D01*
X107531002Y-92639404D01*
X107520795Y-92610875D01*
X107513433Y-92581484D01*
X107508987Y-92551513D01*
X107507500Y-92521250D01*
X107507500Y-91478750D01*
X107508987Y-91448487D01*
X107513433Y-91418516D01*
X107520795Y-91389125D01*
X107531002Y-91360596D01*
X107543957Y-91333206D01*
X107559534Y-91307218D01*
X107577583Y-91282881D01*
X107597931Y-91260431D01*
X107620381Y-91240083D01*
X107644718Y-91222034D01*
X107670706Y-91206457D01*
X107698096Y-91193502D01*
X107726625Y-91183295D01*
X107756016Y-91175933D01*
X107785987Y-91171487D01*
X107816250Y-91170000D01*
X108433750Y-91170000D01*
X108464013Y-91171487D01*
X108464013Y-91171487D01*
G37*
D20*
X108125000Y-92000000D03*
D12*
G36*
X110339013Y-91171487D02*
G01*
X110368984Y-91175933D01*
X110398375Y-91183295D01*
X110426904Y-91193502D01*
X110454294Y-91206457D01*
X110480282Y-91222034D01*
X110504619Y-91240083D01*
X110527069Y-91260431D01*
X110547417Y-91282881D01*
X110565466Y-91307218D01*
X110581043Y-91333206D01*
X110593998Y-91360596D01*
X110604205Y-91389125D01*
X110611567Y-91418516D01*
X110616013Y-91448487D01*
X110617500Y-91478750D01*
X110617500Y-92521250D01*
X110616013Y-92551513D01*
X110611567Y-92581484D01*
X110604205Y-92610875D01*
X110593998Y-92639404D01*
X110581043Y-92666794D01*
X110565466Y-92692782D01*
X110547417Y-92717119D01*
X110527069Y-92739569D01*
X110504619Y-92759917D01*
X110480282Y-92777966D01*
X110454294Y-92793543D01*
X110426904Y-92806498D01*
X110398375Y-92816705D01*
X110368984Y-92824067D01*
X110339013Y-92828513D01*
X110308750Y-92830000D01*
X109691250Y-92830000D01*
X109660987Y-92828513D01*
X109631016Y-92824067D01*
X109601625Y-92816705D01*
X109573096Y-92806498D01*
X109545706Y-92793543D01*
X109519718Y-92777966D01*
X109495381Y-92759917D01*
X109472931Y-92739569D01*
X109452583Y-92717119D01*
X109434534Y-92692782D01*
X109418957Y-92666794D01*
X109406002Y-92639404D01*
X109395795Y-92610875D01*
X109388433Y-92581484D01*
X109383987Y-92551513D01*
X109382500Y-92521250D01*
X109382500Y-91478750D01*
X109383987Y-91448487D01*
X109388433Y-91418516D01*
X109395795Y-91389125D01*
X109406002Y-91360596D01*
X109418957Y-91333206D01*
X109434534Y-91307218D01*
X109452583Y-91282881D01*
X109472931Y-91260431D01*
X109495381Y-91240083D01*
X109519718Y-91222034D01*
X109545706Y-91206457D01*
X109573096Y-91193502D01*
X109601625Y-91183295D01*
X109631016Y-91175933D01*
X109660987Y-91171487D01*
X109691250Y-91170000D01*
X110308750Y-91170000D01*
X110339013Y-91171487D01*
X110339013Y-91171487D01*
G37*
D20*
X110000000Y-92000000D03*
D12*
G36*
X90076513Y-90071487D02*
G01*
X90106484Y-90075933D01*
X90135875Y-90083295D01*
X90164404Y-90093502D01*
X90191794Y-90106457D01*
X90217782Y-90122034D01*
X90242119Y-90140083D01*
X90264569Y-90160431D01*
X90284917Y-90182881D01*
X90302966Y-90207218D01*
X90318543Y-90233206D01*
X90331498Y-90260596D01*
X90341705Y-90289125D01*
X90349067Y-90318516D01*
X90353513Y-90348487D01*
X90355000Y-90378750D01*
X90355000Y-91421250D01*
X90353513Y-91451513D01*
X90349067Y-91481484D01*
X90341705Y-91510875D01*
X90331498Y-91539404D01*
X90318543Y-91566794D01*
X90302966Y-91592782D01*
X90284917Y-91617119D01*
X90264569Y-91639569D01*
X90242119Y-91659917D01*
X90217782Y-91677966D01*
X90191794Y-91693543D01*
X90164404Y-91706498D01*
X90135875Y-91716705D01*
X90106484Y-91724067D01*
X90076513Y-91728513D01*
X90046250Y-91730000D01*
X89428750Y-91730000D01*
X89398487Y-91728513D01*
X89368516Y-91724067D01*
X89339125Y-91716705D01*
X89310596Y-91706498D01*
X89283206Y-91693543D01*
X89257218Y-91677966D01*
X89232881Y-91659917D01*
X89210431Y-91639569D01*
X89190083Y-91617119D01*
X89172034Y-91592782D01*
X89156457Y-91566794D01*
X89143502Y-91539404D01*
X89133295Y-91510875D01*
X89125933Y-91481484D01*
X89121487Y-91451513D01*
X89120000Y-91421250D01*
X89120000Y-90378750D01*
X89121487Y-90348487D01*
X89125933Y-90318516D01*
X89133295Y-90289125D01*
X89143502Y-90260596D01*
X89156457Y-90233206D01*
X89172034Y-90207218D01*
X89190083Y-90182881D01*
X89210431Y-90160431D01*
X89232881Y-90140083D01*
X89257218Y-90122034D01*
X89283206Y-90106457D01*
X89310596Y-90093502D01*
X89339125Y-90083295D01*
X89368516Y-90075933D01*
X89398487Y-90071487D01*
X89428750Y-90070000D01*
X90046250Y-90070000D01*
X90076513Y-90071487D01*
X90076513Y-90071487D01*
G37*
D20*
X89737500Y-90900000D03*
D12*
G36*
X88201513Y-90071487D02*
G01*
X88231484Y-90075933D01*
X88260875Y-90083295D01*
X88289404Y-90093502D01*
X88316794Y-90106457D01*
X88342782Y-90122034D01*
X88367119Y-90140083D01*
X88389569Y-90160431D01*
X88409917Y-90182881D01*
X88427966Y-90207218D01*
X88443543Y-90233206D01*
X88456498Y-90260596D01*
X88466705Y-90289125D01*
X88474067Y-90318516D01*
X88478513Y-90348487D01*
X88480000Y-90378750D01*
X88480000Y-91421250D01*
X88478513Y-91451513D01*
X88474067Y-91481484D01*
X88466705Y-91510875D01*
X88456498Y-91539404D01*
X88443543Y-91566794D01*
X88427966Y-91592782D01*
X88409917Y-91617119D01*
X88389569Y-91639569D01*
X88367119Y-91659917D01*
X88342782Y-91677966D01*
X88316794Y-91693543D01*
X88289404Y-91706498D01*
X88260875Y-91716705D01*
X88231484Y-91724067D01*
X88201513Y-91728513D01*
X88171250Y-91730000D01*
X87553750Y-91730000D01*
X87523487Y-91728513D01*
X87493516Y-91724067D01*
X87464125Y-91716705D01*
X87435596Y-91706498D01*
X87408206Y-91693543D01*
X87382218Y-91677966D01*
X87357881Y-91659917D01*
X87335431Y-91639569D01*
X87315083Y-91617119D01*
X87297034Y-91592782D01*
X87281457Y-91566794D01*
X87268502Y-91539404D01*
X87258295Y-91510875D01*
X87250933Y-91481484D01*
X87246487Y-91451513D01*
X87245000Y-91421250D01*
X87245000Y-90378750D01*
X87246487Y-90348487D01*
X87250933Y-90318516D01*
X87258295Y-90289125D01*
X87268502Y-90260596D01*
X87281457Y-90233206D01*
X87297034Y-90207218D01*
X87315083Y-90182881D01*
X87335431Y-90160431D01*
X87357881Y-90140083D01*
X87382218Y-90122034D01*
X87408206Y-90106457D01*
X87435596Y-90093502D01*
X87464125Y-90083295D01*
X87493516Y-90075933D01*
X87523487Y-90071487D01*
X87553750Y-90070000D01*
X88171250Y-90070000D01*
X88201513Y-90071487D01*
X88201513Y-90071487D01*
G37*
D20*
X87862500Y-90900000D03*
D22*
X107750000Y-85450000D03*
X107250000Y-85450000D03*
X106750000Y-85450000D03*
X106250000Y-85450000D03*
X106250000Y-88550000D03*
X106750000Y-88550000D03*
X107250000Y-88550000D03*
X107750000Y-88550000D03*
D12*
G36*
X91426074Y-88371035D02*
G01*
X91446944Y-88374131D01*
X91467411Y-88379258D01*
X91487277Y-88386366D01*
X91506350Y-88395387D01*
X91524448Y-88406234D01*
X91541395Y-88418803D01*
X91557028Y-88432972D01*
X91571197Y-88448605D01*
X91583766Y-88465552D01*
X91594613Y-88483650D01*
X91603634Y-88502723D01*
X91610742Y-88522589D01*
X91615869Y-88543056D01*
X91618965Y-88563926D01*
X91620000Y-88585000D01*
X91620000Y-90365000D01*
X91618965Y-90386074D01*
X91615869Y-90406944D01*
X91610742Y-90427411D01*
X91603634Y-90447277D01*
X91594613Y-90466350D01*
X91583766Y-90484448D01*
X91571197Y-90501395D01*
X91557028Y-90517028D01*
X91541395Y-90531197D01*
X91524448Y-90543766D01*
X91506350Y-90554613D01*
X91487277Y-90563634D01*
X91467411Y-90570742D01*
X91446944Y-90575869D01*
X91426074Y-90578965D01*
X91405000Y-90580000D01*
X90975000Y-90580000D01*
X90953926Y-90578965D01*
X90933056Y-90575869D01*
X90912589Y-90570742D01*
X90892723Y-90563634D01*
X90873650Y-90554613D01*
X90855552Y-90543766D01*
X90838605Y-90531197D01*
X90822972Y-90517028D01*
X90808803Y-90501395D01*
X90796234Y-90484448D01*
X90785387Y-90466350D01*
X90776366Y-90447277D01*
X90769258Y-90427411D01*
X90764131Y-90406944D01*
X90761035Y-90386074D01*
X90760000Y-90365000D01*
X90760000Y-88585000D01*
X90761035Y-88563926D01*
X90764131Y-88543056D01*
X90769258Y-88522589D01*
X90776366Y-88502723D01*
X90785387Y-88483650D01*
X90796234Y-88465552D01*
X90808803Y-88448605D01*
X90822972Y-88432972D01*
X90838605Y-88418803D01*
X90855552Y-88406234D01*
X90873650Y-88395387D01*
X90892723Y-88386366D01*
X90912589Y-88379258D01*
X90933056Y-88374131D01*
X90953926Y-88371035D01*
X90975000Y-88370000D01*
X91405000Y-88370000D01*
X91426074Y-88371035D01*
X91426074Y-88371035D01*
G37*
D23*
X91190000Y-89475000D03*
D12*
G36*
X92696074Y-88371035D02*
G01*
X92716944Y-88374131D01*
X92737411Y-88379258D01*
X92757277Y-88386366D01*
X92776350Y-88395387D01*
X92794448Y-88406234D01*
X92811395Y-88418803D01*
X92827028Y-88432972D01*
X92841197Y-88448605D01*
X92853766Y-88465552D01*
X92864613Y-88483650D01*
X92873634Y-88502723D01*
X92880742Y-88522589D01*
X92885869Y-88543056D01*
X92888965Y-88563926D01*
X92890000Y-88585000D01*
X92890000Y-90365000D01*
X92888965Y-90386074D01*
X92885869Y-90406944D01*
X92880742Y-90427411D01*
X92873634Y-90447277D01*
X92864613Y-90466350D01*
X92853766Y-90484448D01*
X92841197Y-90501395D01*
X92827028Y-90517028D01*
X92811395Y-90531197D01*
X92794448Y-90543766D01*
X92776350Y-90554613D01*
X92757277Y-90563634D01*
X92737411Y-90570742D01*
X92716944Y-90575869D01*
X92696074Y-90578965D01*
X92675000Y-90580000D01*
X92245000Y-90580000D01*
X92223926Y-90578965D01*
X92203056Y-90575869D01*
X92182589Y-90570742D01*
X92162723Y-90563634D01*
X92143650Y-90554613D01*
X92125552Y-90543766D01*
X92108605Y-90531197D01*
X92092972Y-90517028D01*
X92078803Y-90501395D01*
X92066234Y-90484448D01*
X92055387Y-90466350D01*
X92046366Y-90447277D01*
X92039258Y-90427411D01*
X92034131Y-90406944D01*
X92031035Y-90386074D01*
X92030000Y-90365000D01*
X92030000Y-88585000D01*
X92031035Y-88563926D01*
X92034131Y-88543056D01*
X92039258Y-88522589D01*
X92046366Y-88502723D01*
X92055387Y-88483650D01*
X92066234Y-88465552D01*
X92078803Y-88448605D01*
X92092972Y-88432972D01*
X92108605Y-88418803D01*
X92125552Y-88406234D01*
X92143650Y-88395387D01*
X92162723Y-88386366D01*
X92182589Y-88379258D01*
X92203056Y-88374131D01*
X92223926Y-88371035D01*
X92245000Y-88370000D01*
X92675000Y-88370000D01*
X92696074Y-88371035D01*
X92696074Y-88371035D01*
G37*
D23*
X92460000Y-89475000D03*
D12*
G36*
X93966074Y-88371035D02*
G01*
X93986944Y-88374131D01*
X94007411Y-88379258D01*
X94027277Y-88386366D01*
X94046350Y-88395387D01*
X94064448Y-88406234D01*
X94081395Y-88418803D01*
X94097028Y-88432972D01*
X94111197Y-88448605D01*
X94123766Y-88465552D01*
X94134613Y-88483650D01*
X94143634Y-88502723D01*
X94150742Y-88522589D01*
X94155869Y-88543056D01*
X94158965Y-88563926D01*
X94160000Y-88585000D01*
X94160000Y-90365000D01*
X94158965Y-90386074D01*
X94155869Y-90406944D01*
X94150742Y-90427411D01*
X94143634Y-90447277D01*
X94134613Y-90466350D01*
X94123766Y-90484448D01*
X94111197Y-90501395D01*
X94097028Y-90517028D01*
X94081395Y-90531197D01*
X94064448Y-90543766D01*
X94046350Y-90554613D01*
X94027277Y-90563634D01*
X94007411Y-90570742D01*
X93986944Y-90575869D01*
X93966074Y-90578965D01*
X93945000Y-90580000D01*
X93515000Y-90580000D01*
X93493926Y-90578965D01*
X93473056Y-90575869D01*
X93452589Y-90570742D01*
X93432723Y-90563634D01*
X93413650Y-90554613D01*
X93395552Y-90543766D01*
X93378605Y-90531197D01*
X93362972Y-90517028D01*
X93348803Y-90501395D01*
X93336234Y-90484448D01*
X93325387Y-90466350D01*
X93316366Y-90447277D01*
X93309258Y-90427411D01*
X93304131Y-90406944D01*
X93301035Y-90386074D01*
X93300000Y-90365000D01*
X93300000Y-88585000D01*
X93301035Y-88563926D01*
X93304131Y-88543056D01*
X93309258Y-88522589D01*
X93316366Y-88502723D01*
X93325387Y-88483650D01*
X93336234Y-88465552D01*
X93348803Y-88448605D01*
X93362972Y-88432972D01*
X93378605Y-88418803D01*
X93395552Y-88406234D01*
X93413650Y-88395387D01*
X93432723Y-88386366D01*
X93452589Y-88379258D01*
X93473056Y-88374131D01*
X93493926Y-88371035D01*
X93515000Y-88370000D01*
X93945000Y-88370000D01*
X93966074Y-88371035D01*
X93966074Y-88371035D01*
G37*
D23*
X93730000Y-89475000D03*
D12*
G36*
X95236074Y-88371035D02*
G01*
X95256944Y-88374131D01*
X95277411Y-88379258D01*
X95297277Y-88386366D01*
X95316350Y-88395387D01*
X95334448Y-88406234D01*
X95351395Y-88418803D01*
X95367028Y-88432972D01*
X95381197Y-88448605D01*
X95393766Y-88465552D01*
X95404613Y-88483650D01*
X95413634Y-88502723D01*
X95420742Y-88522589D01*
X95425869Y-88543056D01*
X95428965Y-88563926D01*
X95430000Y-88585000D01*
X95430000Y-90365000D01*
X95428965Y-90386074D01*
X95425869Y-90406944D01*
X95420742Y-90427411D01*
X95413634Y-90447277D01*
X95404613Y-90466350D01*
X95393766Y-90484448D01*
X95381197Y-90501395D01*
X95367028Y-90517028D01*
X95351395Y-90531197D01*
X95334448Y-90543766D01*
X95316350Y-90554613D01*
X95297277Y-90563634D01*
X95277411Y-90570742D01*
X95256944Y-90575869D01*
X95236074Y-90578965D01*
X95215000Y-90580000D01*
X94785000Y-90580000D01*
X94763926Y-90578965D01*
X94743056Y-90575869D01*
X94722589Y-90570742D01*
X94702723Y-90563634D01*
X94683650Y-90554613D01*
X94665552Y-90543766D01*
X94648605Y-90531197D01*
X94632972Y-90517028D01*
X94618803Y-90501395D01*
X94606234Y-90484448D01*
X94595387Y-90466350D01*
X94586366Y-90447277D01*
X94579258Y-90427411D01*
X94574131Y-90406944D01*
X94571035Y-90386074D01*
X94570000Y-90365000D01*
X94570000Y-88585000D01*
X94571035Y-88563926D01*
X94574131Y-88543056D01*
X94579258Y-88522589D01*
X94586366Y-88502723D01*
X94595387Y-88483650D01*
X94606234Y-88465552D01*
X94618803Y-88448605D01*
X94632972Y-88432972D01*
X94648605Y-88418803D01*
X94665552Y-88406234D01*
X94683650Y-88395387D01*
X94702723Y-88386366D01*
X94722589Y-88379258D01*
X94743056Y-88374131D01*
X94763926Y-88371035D01*
X94785000Y-88370000D01*
X95215000Y-88370000D01*
X95236074Y-88371035D01*
X95236074Y-88371035D01*
G37*
D23*
X95000000Y-89475000D03*
D12*
G36*
X96506074Y-88371035D02*
G01*
X96526944Y-88374131D01*
X96547411Y-88379258D01*
X96567277Y-88386366D01*
X96586350Y-88395387D01*
X96604448Y-88406234D01*
X96621395Y-88418803D01*
X96637028Y-88432972D01*
X96651197Y-88448605D01*
X96663766Y-88465552D01*
X96674613Y-88483650D01*
X96683634Y-88502723D01*
X96690742Y-88522589D01*
X96695869Y-88543056D01*
X96698965Y-88563926D01*
X96700000Y-88585000D01*
X96700000Y-90365000D01*
X96698965Y-90386074D01*
X96695869Y-90406944D01*
X96690742Y-90427411D01*
X96683634Y-90447277D01*
X96674613Y-90466350D01*
X96663766Y-90484448D01*
X96651197Y-90501395D01*
X96637028Y-90517028D01*
X96621395Y-90531197D01*
X96604448Y-90543766D01*
X96586350Y-90554613D01*
X96567277Y-90563634D01*
X96547411Y-90570742D01*
X96526944Y-90575869D01*
X96506074Y-90578965D01*
X96485000Y-90580000D01*
X96055000Y-90580000D01*
X96033926Y-90578965D01*
X96013056Y-90575869D01*
X95992589Y-90570742D01*
X95972723Y-90563634D01*
X95953650Y-90554613D01*
X95935552Y-90543766D01*
X95918605Y-90531197D01*
X95902972Y-90517028D01*
X95888803Y-90501395D01*
X95876234Y-90484448D01*
X95865387Y-90466350D01*
X95856366Y-90447277D01*
X95849258Y-90427411D01*
X95844131Y-90406944D01*
X95841035Y-90386074D01*
X95840000Y-90365000D01*
X95840000Y-88585000D01*
X95841035Y-88563926D01*
X95844131Y-88543056D01*
X95849258Y-88522589D01*
X95856366Y-88502723D01*
X95865387Y-88483650D01*
X95876234Y-88465552D01*
X95888803Y-88448605D01*
X95902972Y-88432972D01*
X95918605Y-88418803D01*
X95935552Y-88406234D01*
X95953650Y-88395387D01*
X95972723Y-88386366D01*
X95992589Y-88379258D01*
X96013056Y-88374131D01*
X96033926Y-88371035D01*
X96055000Y-88370000D01*
X96485000Y-88370000D01*
X96506074Y-88371035D01*
X96506074Y-88371035D01*
G37*
D23*
X96270000Y-89475000D03*
D12*
G36*
X97776074Y-88371035D02*
G01*
X97796944Y-88374131D01*
X97817411Y-88379258D01*
X97837277Y-88386366D01*
X97856350Y-88395387D01*
X97874448Y-88406234D01*
X97891395Y-88418803D01*
X97907028Y-88432972D01*
X97921197Y-88448605D01*
X97933766Y-88465552D01*
X97944613Y-88483650D01*
X97953634Y-88502723D01*
X97960742Y-88522589D01*
X97965869Y-88543056D01*
X97968965Y-88563926D01*
X97970000Y-88585000D01*
X97970000Y-90365000D01*
X97968965Y-90386074D01*
X97965869Y-90406944D01*
X97960742Y-90427411D01*
X97953634Y-90447277D01*
X97944613Y-90466350D01*
X97933766Y-90484448D01*
X97921197Y-90501395D01*
X97907028Y-90517028D01*
X97891395Y-90531197D01*
X97874448Y-90543766D01*
X97856350Y-90554613D01*
X97837277Y-90563634D01*
X97817411Y-90570742D01*
X97796944Y-90575869D01*
X97776074Y-90578965D01*
X97755000Y-90580000D01*
X97325000Y-90580000D01*
X97303926Y-90578965D01*
X97283056Y-90575869D01*
X97262589Y-90570742D01*
X97242723Y-90563634D01*
X97223650Y-90554613D01*
X97205552Y-90543766D01*
X97188605Y-90531197D01*
X97172972Y-90517028D01*
X97158803Y-90501395D01*
X97146234Y-90484448D01*
X97135387Y-90466350D01*
X97126366Y-90447277D01*
X97119258Y-90427411D01*
X97114131Y-90406944D01*
X97111035Y-90386074D01*
X97110000Y-90365000D01*
X97110000Y-88585000D01*
X97111035Y-88563926D01*
X97114131Y-88543056D01*
X97119258Y-88522589D01*
X97126366Y-88502723D01*
X97135387Y-88483650D01*
X97146234Y-88465552D01*
X97158803Y-88448605D01*
X97172972Y-88432972D01*
X97188605Y-88418803D01*
X97205552Y-88406234D01*
X97223650Y-88395387D01*
X97242723Y-88386366D01*
X97262589Y-88379258D01*
X97283056Y-88374131D01*
X97303926Y-88371035D01*
X97325000Y-88370000D01*
X97755000Y-88370000D01*
X97776074Y-88371035D01*
X97776074Y-88371035D01*
G37*
D23*
X97540000Y-89475000D03*
D12*
G36*
X99046074Y-88371035D02*
G01*
X99066944Y-88374131D01*
X99087411Y-88379258D01*
X99107277Y-88386366D01*
X99126350Y-88395387D01*
X99144448Y-88406234D01*
X99161395Y-88418803D01*
X99177028Y-88432972D01*
X99191197Y-88448605D01*
X99203766Y-88465552D01*
X99214613Y-88483650D01*
X99223634Y-88502723D01*
X99230742Y-88522589D01*
X99235869Y-88543056D01*
X99238965Y-88563926D01*
X99240000Y-88585000D01*
X99240000Y-90365000D01*
X99238965Y-90386074D01*
X99235869Y-90406944D01*
X99230742Y-90427411D01*
X99223634Y-90447277D01*
X99214613Y-90466350D01*
X99203766Y-90484448D01*
X99191197Y-90501395D01*
X99177028Y-90517028D01*
X99161395Y-90531197D01*
X99144448Y-90543766D01*
X99126350Y-90554613D01*
X99107277Y-90563634D01*
X99087411Y-90570742D01*
X99066944Y-90575869D01*
X99046074Y-90578965D01*
X99025000Y-90580000D01*
X98595000Y-90580000D01*
X98573926Y-90578965D01*
X98553056Y-90575869D01*
X98532589Y-90570742D01*
X98512723Y-90563634D01*
X98493650Y-90554613D01*
X98475552Y-90543766D01*
X98458605Y-90531197D01*
X98442972Y-90517028D01*
X98428803Y-90501395D01*
X98416234Y-90484448D01*
X98405387Y-90466350D01*
X98396366Y-90447277D01*
X98389258Y-90427411D01*
X98384131Y-90406944D01*
X98381035Y-90386074D01*
X98380000Y-90365000D01*
X98380000Y-88585000D01*
X98381035Y-88563926D01*
X98384131Y-88543056D01*
X98389258Y-88522589D01*
X98396366Y-88502723D01*
X98405387Y-88483650D01*
X98416234Y-88465552D01*
X98428803Y-88448605D01*
X98442972Y-88432972D01*
X98458605Y-88418803D01*
X98475552Y-88406234D01*
X98493650Y-88395387D01*
X98512723Y-88386366D01*
X98532589Y-88379258D01*
X98553056Y-88374131D01*
X98573926Y-88371035D01*
X98595000Y-88370000D01*
X99025000Y-88370000D01*
X99046074Y-88371035D01*
X99046074Y-88371035D01*
G37*
D23*
X98810000Y-89475000D03*
D12*
G36*
X99046074Y-83421035D02*
G01*
X99066944Y-83424131D01*
X99087411Y-83429258D01*
X99107277Y-83436366D01*
X99126350Y-83445387D01*
X99144448Y-83456234D01*
X99161395Y-83468803D01*
X99177028Y-83482972D01*
X99191197Y-83498605D01*
X99203766Y-83515552D01*
X99214613Y-83533650D01*
X99223634Y-83552723D01*
X99230742Y-83572589D01*
X99235869Y-83593056D01*
X99238965Y-83613926D01*
X99240000Y-83635000D01*
X99240000Y-85415000D01*
X99238965Y-85436074D01*
X99235869Y-85456944D01*
X99230742Y-85477411D01*
X99223634Y-85497277D01*
X99214613Y-85516350D01*
X99203766Y-85534448D01*
X99191197Y-85551395D01*
X99177028Y-85567028D01*
X99161395Y-85581197D01*
X99144448Y-85593766D01*
X99126350Y-85604613D01*
X99107277Y-85613634D01*
X99087411Y-85620742D01*
X99066944Y-85625869D01*
X99046074Y-85628965D01*
X99025000Y-85630000D01*
X98595000Y-85630000D01*
X98573926Y-85628965D01*
X98553056Y-85625869D01*
X98532589Y-85620742D01*
X98512723Y-85613634D01*
X98493650Y-85604613D01*
X98475552Y-85593766D01*
X98458605Y-85581197D01*
X98442972Y-85567028D01*
X98428803Y-85551395D01*
X98416234Y-85534448D01*
X98405387Y-85516350D01*
X98396366Y-85497277D01*
X98389258Y-85477411D01*
X98384131Y-85456944D01*
X98381035Y-85436074D01*
X98380000Y-85415000D01*
X98380000Y-83635000D01*
X98381035Y-83613926D01*
X98384131Y-83593056D01*
X98389258Y-83572589D01*
X98396366Y-83552723D01*
X98405387Y-83533650D01*
X98416234Y-83515552D01*
X98428803Y-83498605D01*
X98442972Y-83482972D01*
X98458605Y-83468803D01*
X98475552Y-83456234D01*
X98493650Y-83445387D01*
X98512723Y-83436366D01*
X98532589Y-83429258D01*
X98553056Y-83424131D01*
X98573926Y-83421035D01*
X98595000Y-83420000D01*
X99025000Y-83420000D01*
X99046074Y-83421035D01*
X99046074Y-83421035D01*
G37*
D23*
X98810000Y-84525000D03*
D12*
G36*
X97776074Y-83421035D02*
G01*
X97796944Y-83424131D01*
X97817411Y-83429258D01*
X97837277Y-83436366D01*
X97856350Y-83445387D01*
X97874448Y-83456234D01*
X97891395Y-83468803D01*
X97907028Y-83482972D01*
X97921197Y-83498605D01*
X97933766Y-83515552D01*
X97944613Y-83533650D01*
X97953634Y-83552723D01*
X97960742Y-83572589D01*
X97965869Y-83593056D01*
X97968965Y-83613926D01*
X97970000Y-83635000D01*
X97970000Y-85415000D01*
X97968965Y-85436074D01*
X97965869Y-85456944D01*
X97960742Y-85477411D01*
X97953634Y-85497277D01*
X97944613Y-85516350D01*
X97933766Y-85534448D01*
X97921197Y-85551395D01*
X97907028Y-85567028D01*
X97891395Y-85581197D01*
X97874448Y-85593766D01*
X97856350Y-85604613D01*
X97837277Y-85613634D01*
X97817411Y-85620742D01*
X97796944Y-85625869D01*
X97776074Y-85628965D01*
X97755000Y-85630000D01*
X97325000Y-85630000D01*
X97303926Y-85628965D01*
X97283056Y-85625869D01*
X97262589Y-85620742D01*
X97242723Y-85613634D01*
X97223650Y-85604613D01*
X97205552Y-85593766D01*
X97188605Y-85581197D01*
X97172972Y-85567028D01*
X97158803Y-85551395D01*
X97146234Y-85534448D01*
X97135387Y-85516350D01*
X97126366Y-85497277D01*
X97119258Y-85477411D01*
X97114131Y-85456944D01*
X97111035Y-85436074D01*
X97110000Y-85415000D01*
X97110000Y-83635000D01*
X97111035Y-83613926D01*
X97114131Y-83593056D01*
X97119258Y-83572589D01*
X97126366Y-83552723D01*
X97135387Y-83533650D01*
X97146234Y-83515552D01*
X97158803Y-83498605D01*
X97172972Y-83482972D01*
X97188605Y-83468803D01*
X97205552Y-83456234D01*
X97223650Y-83445387D01*
X97242723Y-83436366D01*
X97262589Y-83429258D01*
X97283056Y-83424131D01*
X97303926Y-83421035D01*
X97325000Y-83420000D01*
X97755000Y-83420000D01*
X97776074Y-83421035D01*
X97776074Y-83421035D01*
G37*
D23*
X97540000Y-84525000D03*
D12*
G36*
X96506074Y-83421035D02*
G01*
X96526944Y-83424131D01*
X96547411Y-83429258D01*
X96567277Y-83436366D01*
X96586350Y-83445387D01*
X96604448Y-83456234D01*
X96621395Y-83468803D01*
X96637028Y-83482972D01*
X96651197Y-83498605D01*
X96663766Y-83515552D01*
X96674613Y-83533650D01*
X96683634Y-83552723D01*
X96690742Y-83572589D01*
X96695869Y-83593056D01*
X96698965Y-83613926D01*
X96700000Y-83635000D01*
X96700000Y-85415000D01*
X96698965Y-85436074D01*
X96695869Y-85456944D01*
X96690742Y-85477411D01*
X96683634Y-85497277D01*
X96674613Y-85516350D01*
X96663766Y-85534448D01*
X96651197Y-85551395D01*
X96637028Y-85567028D01*
X96621395Y-85581197D01*
X96604448Y-85593766D01*
X96586350Y-85604613D01*
X96567277Y-85613634D01*
X96547411Y-85620742D01*
X96526944Y-85625869D01*
X96506074Y-85628965D01*
X96485000Y-85630000D01*
X96055000Y-85630000D01*
X96033926Y-85628965D01*
X96013056Y-85625869D01*
X95992589Y-85620742D01*
X95972723Y-85613634D01*
X95953650Y-85604613D01*
X95935552Y-85593766D01*
X95918605Y-85581197D01*
X95902972Y-85567028D01*
X95888803Y-85551395D01*
X95876234Y-85534448D01*
X95865387Y-85516350D01*
X95856366Y-85497277D01*
X95849258Y-85477411D01*
X95844131Y-85456944D01*
X95841035Y-85436074D01*
X95840000Y-85415000D01*
X95840000Y-83635000D01*
X95841035Y-83613926D01*
X95844131Y-83593056D01*
X95849258Y-83572589D01*
X95856366Y-83552723D01*
X95865387Y-83533650D01*
X95876234Y-83515552D01*
X95888803Y-83498605D01*
X95902972Y-83482972D01*
X95918605Y-83468803D01*
X95935552Y-83456234D01*
X95953650Y-83445387D01*
X95972723Y-83436366D01*
X95992589Y-83429258D01*
X96013056Y-83424131D01*
X96033926Y-83421035D01*
X96055000Y-83420000D01*
X96485000Y-83420000D01*
X96506074Y-83421035D01*
X96506074Y-83421035D01*
G37*
D23*
X96270000Y-84525000D03*
D12*
G36*
X95236074Y-83421035D02*
G01*
X95256944Y-83424131D01*
X95277411Y-83429258D01*
X95297277Y-83436366D01*
X95316350Y-83445387D01*
X95334448Y-83456234D01*
X95351395Y-83468803D01*
X95367028Y-83482972D01*
X95381197Y-83498605D01*
X95393766Y-83515552D01*
X95404613Y-83533650D01*
X95413634Y-83552723D01*
X95420742Y-83572589D01*
X95425869Y-83593056D01*
X95428965Y-83613926D01*
X95430000Y-83635000D01*
X95430000Y-85415000D01*
X95428965Y-85436074D01*
X95425869Y-85456944D01*
X95420742Y-85477411D01*
X95413634Y-85497277D01*
X95404613Y-85516350D01*
X95393766Y-85534448D01*
X95381197Y-85551395D01*
X95367028Y-85567028D01*
X95351395Y-85581197D01*
X95334448Y-85593766D01*
X95316350Y-85604613D01*
X95297277Y-85613634D01*
X95277411Y-85620742D01*
X95256944Y-85625869D01*
X95236074Y-85628965D01*
X95215000Y-85630000D01*
X94785000Y-85630000D01*
X94763926Y-85628965D01*
X94743056Y-85625869D01*
X94722589Y-85620742D01*
X94702723Y-85613634D01*
X94683650Y-85604613D01*
X94665552Y-85593766D01*
X94648605Y-85581197D01*
X94632972Y-85567028D01*
X94618803Y-85551395D01*
X94606234Y-85534448D01*
X94595387Y-85516350D01*
X94586366Y-85497277D01*
X94579258Y-85477411D01*
X94574131Y-85456944D01*
X94571035Y-85436074D01*
X94570000Y-85415000D01*
X94570000Y-83635000D01*
X94571035Y-83613926D01*
X94574131Y-83593056D01*
X94579258Y-83572589D01*
X94586366Y-83552723D01*
X94595387Y-83533650D01*
X94606234Y-83515552D01*
X94618803Y-83498605D01*
X94632972Y-83482972D01*
X94648605Y-83468803D01*
X94665552Y-83456234D01*
X94683650Y-83445387D01*
X94702723Y-83436366D01*
X94722589Y-83429258D01*
X94743056Y-83424131D01*
X94763926Y-83421035D01*
X94785000Y-83420000D01*
X95215000Y-83420000D01*
X95236074Y-83421035D01*
X95236074Y-83421035D01*
G37*
D23*
X95000000Y-84525000D03*
D12*
G36*
X93966074Y-83421035D02*
G01*
X93986944Y-83424131D01*
X94007411Y-83429258D01*
X94027277Y-83436366D01*
X94046350Y-83445387D01*
X94064448Y-83456234D01*
X94081395Y-83468803D01*
X94097028Y-83482972D01*
X94111197Y-83498605D01*
X94123766Y-83515552D01*
X94134613Y-83533650D01*
X94143634Y-83552723D01*
X94150742Y-83572589D01*
X94155869Y-83593056D01*
X94158965Y-83613926D01*
X94160000Y-83635000D01*
X94160000Y-85415000D01*
X94158965Y-85436074D01*
X94155869Y-85456944D01*
X94150742Y-85477411D01*
X94143634Y-85497277D01*
X94134613Y-85516350D01*
X94123766Y-85534448D01*
X94111197Y-85551395D01*
X94097028Y-85567028D01*
X94081395Y-85581197D01*
X94064448Y-85593766D01*
X94046350Y-85604613D01*
X94027277Y-85613634D01*
X94007411Y-85620742D01*
X93986944Y-85625869D01*
X93966074Y-85628965D01*
X93945000Y-85630000D01*
X93515000Y-85630000D01*
X93493926Y-85628965D01*
X93473056Y-85625869D01*
X93452589Y-85620742D01*
X93432723Y-85613634D01*
X93413650Y-85604613D01*
X93395552Y-85593766D01*
X93378605Y-85581197D01*
X93362972Y-85567028D01*
X93348803Y-85551395D01*
X93336234Y-85534448D01*
X93325387Y-85516350D01*
X93316366Y-85497277D01*
X93309258Y-85477411D01*
X93304131Y-85456944D01*
X93301035Y-85436074D01*
X93300000Y-85415000D01*
X93300000Y-83635000D01*
X93301035Y-83613926D01*
X93304131Y-83593056D01*
X93309258Y-83572589D01*
X93316366Y-83552723D01*
X93325387Y-83533650D01*
X93336234Y-83515552D01*
X93348803Y-83498605D01*
X93362972Y-83482972D01*
X93378605Y-83468803D01*
X93395552Y-83456234D01*
X93413650Y-83445387D01*
X93432723Y-83436366D01*
X93452589Y-83429258D01*
X93473056Y-83424131D01*
X93493926Y-83421035D01*
X93515000Y-83420000D01*
X93945000Y-83420000D01*
X93966074Y-83421035D01*
X93966074Y-83421035D01*
G37*
D23*
X93730000Y-84525000D03*
D12*
G36*
X92696074Y-83421035D02*
G01*
X92716944Y-83424131D01*
X92737411Y-83429258D01*
X92757277Y-83436366D01*
X92776350Y-83445387D01*
X92794448Y-83456234D01*
X92811395Y-83468803D01*
X92827028Y-83482972D01*
X92841197Y-83498605D01*
X92853766Y-83515552D01*
X92864613Y-83533650D01*
X92873634Y-83552723D01*
X92880742Y-83572589D01*
X92885869Y-83593056D01*
X92888965Y-83613926D01*
X92890000Y-83635000D01*
X92890000Y-85415000D01*
X92888965Y-85436074D01*
X92885869Y-85456944D01*
X92880742Y-85477411D01*
X92873634Y-85497277D01*
X92864613Y-85516350D01*
X92853766Y-85534448D01*
X92841197Y-85551395D01*
X92827028Y-85567028D01*
X92811395Y-85581197D01*
X92794448Y-85593766D01*
X92776350Y-85604613D01*
X92757277Y-85613634D01*
X92737411Y-85620742D01*
X92716944Y-85625869D01*
X92696074Y-85628965D01*
X92675000Y-85630000D01*
X92245000Y-85630000D01*
X92223926Y-85628965D01*
X92203056Y-85625869D01*
X92182589Y-85620742D01*
X92162723Y-85613634D01*
X92143650Y-85604613D01*
X92125552Y-85593766D01*
X92108605Y-85581197D01*
X92092972Y-85567028D01*
X92078803Y-85551395D01*
X92066234Y-85534448D01*
X92055387Y-85516350D01*
X92046366Y-85497277D01*
X92039258Y-85477411D01*
X92034131Y-85456944D01*
X92031035Y-85436074D01*
X92030000Y-85415000D01*
X92030000Y-83635000D01*
X92031035Y-83613926D01*
X92034131Y-83593056D01*
X92039258Y-83572589D01*
X92046366Y-83552723D01*
X92055387Y-83533650D01*
X92066234Y-83515552D01*
X92078803Y-83498605D01*
X92092972Y-83482972D01*
X92108605Y-83468803D01*
X92125552Y-83456234D01*
X92143650Y-83445387D01*
X92162723Y-83436366D01*
X92182589Y-83429258D01*
X92203056Y-83424131D01*
X92223926Y-83421035D01*
X92245000Y-83420000D01*
X92675000Y-83420000D01*
X92696074Y-83421035D01*
X92696074Y-83421035D01*
G37*
D23*
X92460000Y-84525000D03*
D12*
G36*
X91426074Y-83421035D02*
G01*
X91446944Y-83424131D01*
X91467411Y-83429258D01*
X91487277Y-83436366D01*
X91506350Y-83445387D01*
X91524448Y-83456234D01*
X91541395Y-83468803D01*
X91557028Y-83482972D01*
X91571197Y-83498605D01*
X91583766Y-83515552D01*
X91594613Y-83533650D01*
X91603634Y-83552723D01*
X91610742Y-83572589D01*
X91615869Y-83593056D01*
X91618965Y-83613926D01*
X91620000Y-83635000D01*
X91620000Y-85415000D01*
X91618965Y-85436074D01*
X91615869Y-85456944D01*
X91610742Y-85477411D01*
X91603634Y-85497277D01*
X91594613Y-85516350D01*
X91583766Y-85534448D01*
X91571197Y-85551395D01*
X91557028Y-85567028D01*
X91541395Y-85581197D01*
X91524448Y-85593766D01*
X91506350Y-85604613D01*
X91487277Y-85613634D01*
X91467411Y-85620742D01*
X91446944Y-85625869D01*
X91426074Y-85628965D01*
X91405000Y-85630000D01*
X90975000Y-85630000D01*
X90953926Y-85628965D01*
X90933056Y-85625869D01*
X90912589Y-85620742D01*
X90892723Y-85613634D01*
X90873650Y-85604613D01*
X90855552Y-85593766D01*
X90838605Y-85581197D01*
X90822972Y-85567028D01*
X90808803Y-85551395D01*
X90796234Y-85534448D01*
X90785387Y-85516350D01*
X90776366Y-85497277D01*
X90769258Y-85477411D01*
X90764131Y-85456944D01*
X90761035Y-85436074D01*
X90760000Y-85415000D01*
X90760000Y-83635000D01*
X90761035Y-83613926D01*
X90764131Y-83593056D01*
X90769258Y-83572589D01*
X90776366Y-83552723D01*
X90785387Y-83533650D01*
X90796234Y-83515552D01*
X90808803Y-83498605D01*
X90822972Y-83482972D01*
X90838605Y-83468803D01*
X90855552Y-83456234D01*
X90873650Y-83445387D01*
X90892723Y-83436366D01*
X90912589Y-83429258D01*
X90933056Y-83424131D01*
X90953926Y-83421035D01*
X90975000Y-83420000D01*
X91405000Y-83420000D01*
X91426074Y-83421035D01*
X91426074Y-83421035D01*
G37*
D23*
X91190000Y-84525000D03*
D12*
G36*
X90076513Y-92071487D02*
G01*
X90106484Y-92075933D01*
X90135875Y-92083295D01*
X90164404Y-92093502D01*
X90191794Y-92106457D01*
X90217782Y-92122034D01*
X90242119Y-92140083D01*
X90264569Y-92160431D01*
X90284917Y-92182881D01*
X90302966Y-92207218D01*
X90318543Y-92233206D01*
X90331498Y-92260596D01*
X90341705Y-92289125D01*
X90349067Y-92318516D01*
X90353513Y-92348487D01*
X90355000Y-92378750D01*
X90355000Y-93421250D01*
X90353513Y-93451513D01*
X90349067Y-93481484D01*
X90341705Y-93510875D01*
X90331498Y-93539404D01*
X90318543Y-93566794D01*
X90302966Y-93592782D01*
X90284917Y-93617119D01*
X90264569Y-93639569D01*
X90242119Y-93659917D01*
X90217782Y-93677966D01*
X90191794Y-93693543D01*
X90164404Y-93706498D01*
X90135875Y-93716705D01*
X90106484Y-93724067D01*
X90076513Y-93728513D01*
X90046250Y-93730000D01*
X89428750Y-93730000D01*
X89398487Y-93728513D01*
X89368516Y-93724067D01*
X89339125Y-93716705D01*
X89310596Y-93706498D01*
X89283206Y-93693543D01*
X89257218Y-93677966D01*
X89232881Y-93659917D01*
X89210431Y-93639569D01*
X89190083Y-93617119D01*
X89172034Y-93592782D01*
X89156457Y-93566794D01*
X89143502Y-93539404D01*
X89133295Y-93510875D01*
X89125933Y-93481484D01*
X89121487Y-93451513D01*
X89120000Y-93421250D01*
X89120000Y-92378750D01*
X89121487Y-92348487D01*
X89125933Y-92318516D01*
X89133295Y-92289125D01*
X89143502Y-92260596D01*
X89156457Y-92233206D01*
X89172034Y-92207218D01*
X89190083Y-92182881D01*
X89210431Y-92160431D01*
X89232881Y-92140083D01*
X89257218Y-92122034D01*
X89283206Y-92106457D01*
X89310596Y-92093502D01*
X89339125Y-92083295D01*
X89368516Y-92075933D01*
X89398487Y-92071487D01*
X89428750Y-92070000D01*
X90046250Y-92070000D01*
X90076513Y-92071487D01*
X90076513Y-92071487D01*
G37*
D20*
X89737500Y-92900000D03*
D12*
G36*
X88201513Y-92071487D02*
G01*
X88231484Y-92075933D01*
X88260875Y-92083295D01*
X88289404Y-92093502D01*
X88316794Y-92106457D01*
X88342782Y-92122034D01*
X88367119Y-92140083D01*
X88389569Y-92160431D01*
X88409917Y-92182881D01*
X88427966Y-92207218D01*
X88443543Y-92233206D01*
X88456498Y-92260596D01*
X88466705Y-92289125D01*
X88474067Y-92318516D01*
X88478513Y-92348487D01*
X88480000Y-92378750D01*
X88480000Y-93421250D01*
X88478513Y-93451513D01*
X88474067Y-93481484D01*
X88466705Y-93510875D01*
X88456498Y-93539404D01*
X88443543Y-93566794D01*
X88427966Y-93592782D01*
X88409917Y-93617119D01*
X88389569Y-93639569D01*
X88367119Y-93659917D01*
X88342782Y-93677966D01*
X88316794Y-93693543D01*
X88289404Y-93706498D01*
X88260875Y-93716705D01*
X88231484Y-93724067D01*
X88201513Y-93728513D01*
X88171250Y-93730000D01*
X87553750Y-93730000D01*
X87523487Y-93728513D01*
X87493516Y-93724067D01*
X87464125Y-93716705D01*
X87435596Y-93706498D01*
X87408206Y-93693543D01*
X87382218Y-93677966D01*
X87357881Y-93659917D01*
X87335431Y-93639569D01*
X87315083Y-93617119D01*
X87297034Y-93592782D01*
X87281457Y-93566794D01*
X87268502Y-93539404D01*
X87258295Y-93510875D01*
X87250933Y-93481484D01*
X87246487Y-93451513D01*
X87245000Y-93421250D01*
X87245000Y-92378750D01*
X87246487Y-92348487D01*
X87250933Y-92318516D01*
X87258295Y-92289125D01*
X87268502Y-92260596D01*
X87281457Y-92233206D01*
X87297034Y-92207218D01*
X87315083Y-92182881D01*
X87335431Y-92160431D01*
X87357881Y-92140083D01*
X87382218Y-92122034D01*
X87408206Y-92106457D01*
X87435596Y-92093502D01*
X87464125Y-92083295D01*
X87493516Y-92075933D01*
X87523487Y-92071487D01*
X87553750Y-92070000D01*
X88171250Y-92070000D01*
X88201513Y-92071487D01*
X88201513Y-92071487D01*
G37*
D20*
X87862500Y-92900000D03*
D12*
G36*
X88201513Y-94071487D02*
G01*
X88231484Y-94075933D01*
X88260875Y-94083295D01*
X88289404Y-94093502D01*
X88316794Y-94106457D01*
X88342782Y-94122034D01*
X88367119Y-94140083D01*
X88389569Y-94160431D01*
X88409917Y-94182881D01*
X88427966Y-94207218D01*
X88443543Y-94233206D01*
X88456498Y-94260596D01*
X88466705Y-94289125D01*
X88474067Y-94318516D01*
X88478513Y-94348487D01*
X88480000Y-94378750D01*
X88480000Y-95421250D01*
X88478513Y-95451513D01*
X88474067Y-95481484D01*
X88466705Y-95510875D01*
X88456498Y-95539404D01*
X88443543Y-95566794D01*
X88427966Y-95592782D01*
X88409917Y-95617119D01*
X88389569Y-95639569D01*
X88367119Y-95659917D01*
X88342782Y-95677966D01*
X88316794Y-95693543D01*
X88289404Y-95706498D01*
X88260875Y-95716705D01*
X88231484Y-95724067D01*
X88201513Y-95728513D01*
X88171250Y-95730000D01*
X87553750Y-95730000D01*
X87523487Y-95728513D01*
X87493516Y-95724067D01*
X87464125Y-95716705D01*
X87435596Y-95706498D01*
X87408206Y-95693543D01*
X87382218Y-95677966D01*
X87357881Y-95659917D01*
X87335431Y-95639569D01*
X87315083Y-95617119D01*
X87297034Y-95592782D01*
X87281457Y-95566794D01*
X87268502Y-95539404D01*
X87258295Y-95510875D01*
X87250933Y-95481484D01*
X87246487Y-95451513D01*
X87245000Y-95421250D01*
X87245000Y-94378750D01*
X87246487Y-94348487D01*
X87250933Y-94318516D01*
X87258295Y-94289125D01*
X87268502Y-94260596D01*
X87281457Y-94233206D01*
X87297034Y-94207218D01*
X87315083Y-94182881D01*
X87335431Y-94160431D01*
X87357881Y-94140083D01*
X87382218Y-94122034D01*
X87408206Y-94106457D01*
X87435596Y-94093502D01*
X87464125Y-94083295D01*
X87493516Y-94075933D01*
X87523487Y-94071487D01*
X87553750Y-94070000D01*
X88171250Y-94070000D01*
X88201513Y-94071487D01*
X88201513Y-94071487D01*
G37*
D20*
X87862500Y-94900000D03*
D12*
G36*
X90076513Y-94071487D02*
G01*
X90106484Y-94075933D01*
X90135875Y-94083295D01*
X90164404Y-94093502D01*
X90191794Y-94106457D01*
X90217782Y-94122034D01*
X90242119Y-94140083D01*
X90264569Y-94160431D01*
X90284917Y-94182881D01*
X90302966Y-94207218D01*
X90318543Y-94233206D01*
X90331498Y-94260596D01*
X90341705Y-94289125D01*
X90349067Y-94318516D01*
X90353513Y-94348487D01*
X90355000Y-94378750D01*
X90355000Y-95421250D01*
X90353513Y-95451513D01*
X90349067Y-95481484D01*
X90341705Y-95510875D01*
X90331498Y-95539404D01*
X90318543Y-95566794D01*
X90302966Y-95592782D01*
X90284917Y-95617119D01*
X90264569Y-95639569D01*
X90242119Y-95659917D01*
X90217782Y-95677966D01*
X90191794Y-95693543D01*
X90164404Y-95706498D01*
X90135875Y-95716705D01*
X90106484Y-95724067D01*
X90076513Y-95728513D01*
X90046250Y-95730000D01*
X89428750Y-95730000D01*
X89398487Y-95728513D01*
X89368516Y-95724067D01*
X89339125Y-95716705D01*
X89310596Y-95706498D01*
X89283206Y-95693543D01*
X89257218Y-95677966D01*
X89232881Y-95659917D01*
X89210431Y-95639569D01*
X89190083Y-95617119D01*
X89172034Y-95592782D01*
X89156457Y-95566794D01*
X89143502Y-95539404D01*
X89133295Y-95510875D01*
X89125933Y-95481484D01*
X89121487Y-95451513D01*
X89120000Y-95421250D01*
X89120000Y-94378750D01*
X89121487Y-94348487D01*
X89125933Y-94318516D01*
X89133295Y-94289125D01*
X89143502Y-94260596D01*
X89156457Y-94233206D01*
X89172034Y-94207218D01*
X89190083Y-94182881D01*
X89210431Y-94160431D01*
X89232881Y-94140083D01*
X89257218Y-94122034D01*
X89283206Y-94106457D01*
X89310596Y-94093502D01*
X89339125Y-94083295D01*
X89368516Y-94075933D01*
X89398487Y-94071487D01*
X89428750Y-94070000D01*
X90046250Y-94070000D01*
X90076513Y-94071487D01*
X90076513Y-94071487D01*
G37*
D20*
X89737500Y-94900000D03*
D17*
X151400000Y-88200000D03*
D16*
X151400000Y-85660000D03*
D17*
X83300000Y-98000000D03*
D16*
X83300000Y-95460000D03*
X83300000Y-92920000D03*
D12*
G36*
X85401513Y-80171487D02*
G01*
X85431484Y-80175933D01*
X85460875Y-80183295D01*
X85489404Y-80193502D01*
X85516794Y-80206457D01*
X85542782Y-80222034D01*
X85567119Y-80240083D01*
X85589569Y-80260431D01*
X85609917Y-80282881D01*
X85627966Y-80307218D01*
X85643543Y-80333206D01*
X85656498Y-80360596D01*
X85666705Y-80389125D01*
X85674067Y-80418516D01*
X85678513Y-80448487D01*
X85680000Y-80478750D01*
X85680000Y-81521250D01*
X85678513Y-81551513D01*
X85674067Y-81581484D01*
X85666705Y-81610875D01*
X85656498Y-81639404D01*
X85643543Y-81666794D01*
X85627966Y-81692782D01*
X85609917Y-81717119D01*
X85589569Y-81739569D01*
X85567119Y-81759917D01*
X85542782Y-81777966D01*
X85516794Y-81793543D01*
X85489404Y-81806498D01*
X85460875Y-81816705D01*
X85431484Y-81824067D01*
X85401513Y-81828513D01*
X85371250Y-81830000D01*
X84753750Y-81830000D01*
X84723487Y-81828513D01*
X84693516Y-81824067D01*
X84664125Y-81816705D01*
X84635596Y-81806498D01*
X84608206Y-81793543D01*
X84582218Y-81777966D01*
X84557881Y-81759917D01*
X84535431Y-81739569D01*
X84515083Y-81717119D01*
X84497034Y-81692782D01*
X84481457Y-81666794D01*
X84468502Y-81639404D01*
X84458295Y-81610875D01*
X84450933Y-81581484D01*
X84446487Y-81551513D01*
X84445000Y-81521250D01*
X84445000Y-80478750D01*
X84446487Y-80448487D01*
X84450933Y-80418516D01*
X84458295Y-80389125D01*
X84468502Y-80360596D01*
X84481457Y-80333206D01*
X84497034Y-80307218D01*
X84515083Y-80282881D01*
X84535431Y-80260431D01*
X84557881Y-80240083D01*
X84582218Y-80222034D01*
X84608206Y-80206457D01*
X84635596Y-80193502D01*
X84664125Y-80183295D01*
X84693516Y-80175933D01*
X84723487Y-80171487D01*
X84753750Y-80170000D01*
X85371250Y-80170000D01*
X85401513Y-80171487D01*
X85401513Y-80171487D01*
G37*
D20*
X85062500Y-81000000D03*
D12*
G36*
X87276513Y-80171487D02*
G01*
X87306484Y-80175933D01*
X87335875Y-80183295D01*
X87364404Y-80193502D01*
X87391794Y-80206457D01*
X87417782Y-80222034D01*
X87442119Y-80240083D01*
X87464569Y-80260431D01*
X87484917Y-80282881D01*
X87502966Y-80307218D01*
X87518543Y-80333206D01*
X87531498Y-80360596D01*
X87541705Y-80389125D01*
X87549067Y-80418516D01*
X87553513Y-80448487D01*
X87555000Y-80478750D01*
X87555000Y-81521250D01*
X87553513Y-81551513D01*
X87549067Y-81581484D01*
X87541705Y-81610875D01*
X87531498Y-81639404D01*
X87518543Y-81666794D01*
X87502966Y-81692782D01*
X87484917Y-81717119D01*
X87464569Y-81739569D01*
X87442119Y-81759917D01*
X87417782Y-81777966D01*
X87391794Y-81793543D01*
X87364404Y-81806498D01*
X87335875Y-81816705D01*
X87306484Y-81824067D01*
X87276513Y-81828513D01*
X87246250Y-81830000D01*
X86628750Y-81830000D01*
X86598487Y-81828513D01*
X86568516Y-81824067D01*
X86539125Y-81816705D01*
X86510596Y-81806498D01*
X86483206Y-81793543D01*
X86457218Y-81777966D01*
X86432881Y-81759917D01*
X86410431Y-81739569D01*
X86390083Y-81717119D01*
X86372034Y-81692782D01*
X86356457Y-81666794D01*
X86343502Y-81639404D01*
X86333295Y-81610875D01*
X86325933Y-81581484D01*
X86321487Y-81551513D01*
X86320000Y-81521250D01*
X86320000Y-80478750D01*
X86321487Y-80448487D01*
X86325933Y-80418516D01*
X86333295Y-80389125D01*
X86343502Y-80360596D01*
X86356457Y-80333206D01*
X86372034Y-80307218D01*
X86390083Y-80282881D01*
X86410431Y-80260431D01*
X86432881Y-80240083D01*
X86457218Y-80222034D01*
X86483206Y-80206457D01*
X86510596Y-80193502D01*
X86539125Y-80183295D01*
X86568516Y-80175933D01*
X86598487Y-80171487D01*
X86628750Y-80170000D01*
X87246250Y-80170000D01*
X87276513Y-80171487D01*
X87276513Y-80171487D01*
G37*
D20*
X86937500Y-81000000D03*
M02*
