G04 #@! TF.GenerationSoftware,KiCad,Pcbnew,(5.1.2)-2*
G04 #@! TF.CreationDate,2020-04-06T22:20:43-04:00*
G04 #@! TF.ProjectId,led_everled,6c65645f-6576-4657-926c-65642e6b6963,rev?*
G04 #@! TF.SameCoordinates,Original*
G04 #@! TF.FileFunction,Copper,L2,Bot*
G04 #@! TF.FilePolarity,Positive*
%FSLAX46Y46*%
G04 Gerber Fmt 4.6, Leading zero omitted, Abs format (unit mm)*
G04 Created by KiCad (PCBNEW (5.1.2)-2) date 2020-04-06 22:20:43*
%MOMM*%
%LPD*%
G04 APERTURE LIST*
%ADD10O,1.700000X1.700000*%
%ADD11R,1.700000X1.700000*%
%ADD12C,0.600000*%
%ADD13C,0.200000*%
%ADD14C,1.000000*%
%ADD15C,0.254000*%
G04 APERTURE END LIST*
D10*
X138700000Y-75960000D03*
D11*
X138700000Y-78500000D03*
D10*
X130000000Y-75960000D03*
D11*
X130000000Y-78500000D03*
X143100000Y-78500000D03*
D10*
X143100000Y-75960000D03*
D11*
X147500000Y-78400000D03*
D10*
X147500000Y-75860000D03*
D11*
X111100000Y-78500000D03*
D10*
X111100000Y-75960000D03*
X116300000Y-75960000D03*
D11*
X116300000Y-78500000D03*
X122900000Y-78500000D03*
D10*
X122900000Y-75960000D03*
X102240000Y-98000000D03*
X99700000Y-98000000D03*
X97160000Y-98000000D03*
X94620000Y-98000000D03*
X92080000Y-98000000D03*
X89540000Y-98000000D03*
D11*
X87000000Y-98000000D03*
X87000000Y-76000000D03*
D10*
X89540000Y-76000000D03*
X92080000Y-76000000D03*
X94620000Y-76000000D03*
X97160000Y-76000000D03*
X99700000Y-76000000D03*
X102240000Y-76000000D03*
D11*
X88500000Y-88200000D03*
D10*
X88500000Y-85660000D03*
D11*
X151400000Y-88200000D03*
D10*
X151400000Y-85660000D03*
D11*
X83300000Y-98000000D03*
D10*
X83300000Y-95460000D03*
X83300000Y-92920000D03*
D12*
X106300000Y-84200000D03*
X108000004Y-86600004D03*
X86000000Y-91900000D03*
X85800000Y-94900000D03*
X91300000Y-82400000D03*
X91300000Y-92200000D03*
X92600000Y-95700000D03*
X97300000Y-95800000D03*
X104900000Y-77800000D03*
X99600000Y-79800000D03*
X106400000Y-77100000D03*
X92500000Y-77700000D03*
X99800000Y-85400000D03*
X103800000Y-86000000D03*
X104700000Y-83800000D03*
X103200000Y-83800000D03*
X107600000Y-83700000D03*
X104100000Y-74700000D03*
X91600000Y-79300000D03*
X98000000Y-86500000D03*
X106900000Y-86800000D03*
D13*
X98000000Y-86500000D02*
X98300000Y-86800000D01*
X98300000Y-86800000D02*
X106900000Y-86800000D01*
D14*
X83400000Y-98000000D02*
X87000000Y-98000000D01*
D15*
G36*
X151323673Y-74365328D02*
G01*
X151635021Y-74459330D01*
X151922176Y-74612013D01*
X152174207Y-74817566D01*
X152381516Y-75068157D01*
X152536200Y-75354241D01*
X152632372Y-75664925D01*
X152668001Y-76003909D01*
X152668000Y-97983767D01*
X152634672Y-98323673D01*
X152540672Y-98635015D01*
X152387988Y-98922173D01*
X152182434Y-99174208D01*
X151931846Y-99381513D01*
X151645759Y-99536200D01*
X151335079Y-99632372D01*
X150996099Y-99668000D01*
X56016233Y-99668000D01*
X55676327Y-99634672D01*
X55364985Y-99540672D01*
X55077827Y-99387988D01*
X54825792Y-99182434D01*
X54618487Y-98931846D01*
X54463800Y-98645759D01*
X54367628Y-98335079D01*
X54332000Y-97996099D01*
X54332000Y-97150000D01*
X82121418Y-97150000D01*
X82121418Y-98850000D01*
X82127732Y-98914103D01*
X82146430Y-98975743D01*
X82176794Y-99032550D01*
X82217657Y-99082343D01*
X82267450Y-99123206D01*
X82324257Y-99153570D01*
X82385897Y-99172268D01*
X82450000Y-99178582D01*
X84150000Y-99178582D01*
X84214103Y-99172268D01*
X84275743Y-99153570D01*
X84332550Y-99123206D01*
X84382343Y-99082343D01*
X84423206Y-99032550D01*
X84453570Y-98975743D01*
X84472268Y-98914103D01*
X84478582Y-98850000D01*
X84478582Y-98827000D01*
X85821418Y-98827000D01*
X85821418Y-98850000D01*
X85827732Y-98914103D01*
X85846430Y-98975743D01*
X85876794Y-99032550D01*
X85917657Y-99082343D01*
X85967450Y-99123206D01*
X86024257Y-99153570D01*
X86085897Y-99172268D01*
X86150000Y-99178582D01*
X87850000Y-99178582D01*
X87914103Y-99172268D01*
X87975743Y-99153570D01*
X88032550Y-99123206D01*
X88082343Y-99082343D01*
X88123206Y-99032550D01*
X88153570Y-98975743D01*
X88172268Y-98914103D01*
X88178582Y-98850000D01*
X88178582Y-98000000D01*
X88357306Y-98000000D01*
X88380031Y-98230732D01*
X88447333Y-98452597D01*
X88556626Y-98657070D01*
X88703709Y-98836291D01*
X88882930Y-98983374D01*
X89087403Y-99092667D01*
X89309268Y-99159969D01*
X89482188Y-99177000D01*
X89597812Y-99177000D01*
X89770732Y-99159969D01*
X89992597Y-99092667D01*
X90197070Y-98983374D01*
X90376291Y-98836291D01*
X90523374Y-98657070D01*
X90632667Y-98452597D01*
X90699969Y-98230732D01*
X90722694Y-98000000D01*
X90897306Y-98000000D01*
X90920031Y-98230732D01*
X90987333Y-98452597D01*
X91096626Y-98657070D01*
X91243709Y-98836291D01*
X91422930Y-98983374D01*
X91627403Y-99092667D01*
X91849268Y-99159969D01*
X92022188Y-99177000D01*
X92137812Y-99177000D01*
X92310732Y-99159969D01*
X92532597Y-99092667D01*
X92737070Y-98983374D01*
X92916291Y-98836291D01*
X93063374Y-98657070D01*
X93172667Y-98452597D01*
X93239969Y-98230732D01*
X93262694Y-98000000D01*
X93437306Y-98000000D01*
X93460031Y-98230732D01*
X93527333Y-98452597D01*
X93636626Y-98657070D01*
X93783709Y-98836291D01*
X93962930Y-98983374D01*
X94167403Y-99092667D01*
X94389268Y-99159969D01*
X94562188Y-99177000D01*
X94677812Y-99177000D01*
X94850732Y-99159969D01*
X95072597Y-99092667D01*
X95277070Y-98983374D01*
X95456291Y-98836291D01*
X95603374Y-98657070D01*
X95712667Y-98452597D01*
X95779969Y-98230732D01*
X95802694Y-98000000D01*
X95977306Y-98000000D01*
X96000031Y-98230732D01*
X96067333Y-98452597D01*
X96176626Y-98657070D01*
X96323709Y-98836291D01*
X96502930Y-98983374D01*
X96707403Y-99092667D01*
X96929268Y-99159969D01*
X97102188Y-99177000D01*
X97217812Y-99177000D01*
X97390732Y-99159969D01*
X97612597Y-99092667D01*
X97817070Y-98983374D01*
X97996291Y-98836291D01*
X98143374Y-98657070D01*
X98252667Y-98452597D01*
X98319969Y-98230732D01*
X98342694Y-98000000D01*
X98517306Y-98000000D01*
X98540031Y-98230732D01*
X98607333Y-98452597D01*
X98716626Y-98657070D01*
X98863709Y-98836291D01*
X99042930Y-98983374D01*
X99247403Y-99092667D01*
X99469268Y-99159969D01*
X99642188Y-99177000D01*
X99757812Y-99177000D01*
X99930732Y-99159969D01*
X100152597Y-99092667D01*
X100357070Y-98983374D01*
X100536291Y-98836291D01*
X100683374Y-98657070D01*
X100792667Y-98452597D01*
X100859969Y-98230732D01*
X100882694Y-98000000D01*
X101057306Y-98000000D01*
X101080031Y-98230732D01*
X101147333Y-98452597D01*
X101256626Y-98657070D01*
X101403709Y-98836291D01*
X101582930Y-98983374D01*
X101787403Y-99092667D01*
X102009268Y-99159969D01*
X102182188Y-99177000D01*
X102297812Y-99177000D01*
X102470732Y-99159969D01*
X102692597Y-99092667D01*
X102897070Y-98983374D01*
X103076291Y-98836291D01*
X103223374Y-98657070D01*
X103332667Y-98452597D01*
X103399969Y-98230732D01*
X103422694Y-98000000D01*
X103399969Y-97769268D01*
X103332667Y-97547403D01*
X103223374Y-97342930D01*
X103076291Y-97163709D01*
X102897070Y-97016626D01*
X102692597Y-96907333D01*
X102470732Y-96840031D01*
X102297812Y-96823000D01*
X102182188Y-96823000D01*
X102009268Y-96840031D01*
X101787403Y-96907333D01*
X101582930Y-97016626D01*
X101403709Y-97163709D01*
X101256626Y-97342930D01*
X101147333Y-97547403D01*
X101080031Y-97769268D01*
X101057306Y-98000000D01*
X100882694Y-98000000D01*
X100859969Y-97769268D01*
X100792667Y-97547403D01*
X100683374Y-97342930D01*
X100536291Y-97163709D01*
X100357070Y-97016626D01*
X100152597Y-96907333D01*
X99930732Y-96840031D01*
X99757812Y-96823000D01*
X99642188Y-96823000D01*
X99469268Y-96840031D01*
X99247403Y-96907333D01*
X99042930Y-97016626D01*
X98863709Y-97163709D01*
X98716626Y-97342930D01*
X98607333Y-97547403D01*
X98540031Y-97769268D01*
X98517306Y-98000000D01*
X98342694Y-98000000D01*
X98319969Y-97769268D01*
X98252667Y-97547403D01*
X98143374Y-97342930D01*
X97996291Y-97163709D01*
X97817070Y-97016626D01*
X97612597Y-96907333D01*
X97390732Y-96840031D01*
X97217812Y-96823000D01*
X97102188Y-96823000D01*
X96929268Y-96840031D01*
X96707403Y-96907333D01*
X96502930Y-97016626D01*
X96323709Y-97163709D01*
X96176626Y-97342930D01*
X96067333Y-97547403D01*
X96000031Y-97769268D01*
X95977306Y-98000000D01*
X95802694Y-98000000D01*
X95779969Y-97769268D01*
X95712667Y-97547403D01*
X95603374Y-97342930D01*
X95456291Y-97163709D01*
X95277070Y-97016626D01*
X95072597Y-96907333D01*
X94850732Y-96840031D01*
X94677812Y-96823000D01*
X94562188Y-96823000D01*
X94389268Y-96840031D01*
X94167403Y-96907333D01*
X93962930Y-97016626D01*
X93783709Y-97163709D01*
X93636626Y-97342930D01*
X93527333Y-97547403D01*
X93460031Y-97769268D01*
X93437306Y-98000000D01*
X93262694Y-98000000D01*
X93239969Y-97769268D01*
X93172667Y-97547403D01*
X93063374Y-97342930D01*
X92916291Y-97163709D01*
X92737070Y-97016626D01*
X92532597Y-96907333D01*
X92310732Y-96840031D01*
X92137812Y-96823000D01*
X92022188Y-96823000D01*
X91849268Y-96840031D01*
X91627403Y-96907333D01*
X91422930Y-97016626D01*
X91243709Y-97163709D01*
X91096626Y-97342930D01*
X90987333Y-97547403D01*
X90920031Y-97769268D01*
X90897306Y-98000000D01*
X90722694Y-98000000D01*
X90699969Y-97769268D01*
X90632667Y-97547403D01*
X90523374Y-97342930D01*
X90376291Y-97163709D01*
X90197070Y-97016626D01*
X89992597Y-96907333D01*
X89770732Y-96840031D01*
X89597812Y-96823000D01*
X89482188Y-96823000D01*
X89309268Y-96840031D01*
X89087403Y-96907333D01*
X88882930Y-97016626D01*
X88703709Y-97163709D01*
X88556626Y-97342930D01*
X88447333Y-97547403D01*
X88380031Y-97769268D01*
X88357306Y-98000000D01*
X88178582Y-98000000D01*
X88178582Y-97150000D01*
X88172268Y-97085897D01*
X88153570Y-97024257D01*
X88123206Y-96967450D01*
X88082343Y-96917657D01*
X88032550Y-96876794D01*
X87975743Y-96846430D01*
X87914103Y-96827732D01*
X87850000Y-96821418D01*
X86150000Y-96821418D01*
X86085897Y-96827732D01*
X86024257Y-96846430D01*
X85967450Y-96876794D01*
X85917657Y-96917657D01*
X85876794Y-96967450D01*
X85846430Y-97024257D01*
X85827732Y-97085897D01*
X85821418Y-97150000D01*
X85821418Y-97173000D01*
X84478582Y-97173000D01*
X84478582Y-97150000D01*
X84472268Y-97085897D01*
X84453570Y-97024257D01*
X84423206Y-96967450D01*
X84382343Y-96917657D01*
X84332550Y-96876794D01*
X84275743Y-96846430D01*
X84214103Y-96827732D01*
X84150000Y-96821418D01*
X82450000Y-96821418D01*
X82385897Y-96827732D01*
X82324257Y-96846430D01*
X82267450Y-96876794D01*
X82217657Y-96917657D01*
X82176794Y-96967450D01*
X82146430Y-97024257D01*
X82127732Y-97085897D01*
X82121418Y-97150000D01*
X54332000Y-97150000D01*
X54332000Y-93276890D01*
X81858524Y-93276890D01*
X81903175Y-93424099D01*
X82028359Y-93686920D01*
X82202412Y-93920269D01*
X82418645Y-94115178D01*
X82668748Y-94264157D01*
X82907885Y-94348986D01*
X82847403Y-94367333D01*
X82642930Y-94476626D01*
X82463709Y-94623709D01*
X82316626Y-94802930D01*
X82207333Y-95007403D01*
X82140031Y-95229268D01*
X82117306Y-95460000D01*
X82140031Y-95690732D01*
X82207333Y-95912597D01*
X82316626Y-96117070D01*
X82463709Y-96296291D01*
X82642930Y-96443374D01*
X82847403Y-96552667D01*
X83069268Y-96619969D01*
X83242188Y-96637000D01*
X83357812Y-96637000D01*
X83530732Y-96619969D01*
X83752597Y-96552667D01*
X83957070Y-96443374D01*
X84136291Y-96296291D01*
X84283374Y-96117070D01*
X84392667Y-95912597D01*
X84459969Y-95690732D01*
X84482694Y-95460000D01*
X84459969Y-95229268D01*
X84392667Y-95007403D01*
X84283374Y-94802930D01*
X84136291Y-94623709D01*
X83957070Y-94476626D01*
X83752597Y-94367333D01*
X83692115Y-94348986D01*
X83931252Y-94264157D01*
X84181355Y-94115178D01*
X84397588Y-93920269D01*
X84571641Y-93686920D01*
X84696825Y-93424099D01*
X84741476Y-93276890D01*
X84620155Y-93047000D01*
X83427000Y-93047000D01*
X83427000Y-93067000D01*
X83173000Y-93067000D01*
X83173000Y-93047000D01*
X81979845Y-93047000D01*
X81858524Y-93276890D01*
X54332000Y-93276890D01*
X54332000Y-92563110D01*
X81858524Y-92563110D01*
X81979845Y-92793000D01*
X83173000Y-92793000D01*
X83173000Y-91599186D01*
X83427000Y-91599186D01*
X83427000Y-92793000D01*
X84620155Y-92793000D01*
X84741476Y-92563110D01*
X84696825Y-92415901D01*
X84571641Y-92153080D01*
X84397588Y-91919731D01*
X84181355Y-91724822D01*
X83931252Y-91575843D01*
X83656891Y-91478519D01*
X83427000Y-91599186D01*
X83173000Y-91599186D01*
X82943109Y-91478519D01*
X82668748Y-91575843D01*
X82418645Y-91724822D01*
X82202412Y-91919731D01*
X82028359Y-92153080D01*
X81903175Y-92415901D01*
X81858524Y-92563110D01*
X54332000Y-92563110D01*
X54332000Y-87350000D01*
X87321418Y-87350000D01*
X87321418Y-89050000D01*
X87327732Y-89114103D01*
X87346430Y-89175743D01*
X87376794Y-89232550D01*
X87417657Y-89282343D01*
X87467450Y-89323206D01*
X87524257Y-89353570D01*
X87585897Y-89372268D01*
X87650000Y-89378582D01*
X89350000Y-89378582D01*
X89414103Y-89372268D01*
X89475743Y-89353570D01*
X89532550Y-89323206D01*
X89582343Y-89282343D01*
X89623206Y-89232550D01*
X89653570Y-89175743D01*
X89672268Y-89114103D01*
X89678582Y-89050000D01*
X89678582Y-87350000D01*
X89672268Y-87285897D01*
X89653570Y-87224257D01*
X89623206Y-87167450D01*
X89582343Y-87117657D01*
X89532550Y-87076794D01*
X89475743Y-87046430D01*
X89414103Y-87027732D01*
X89350000Y-87021418D01*
X87650000Y-87021418D01*
X87585897Y-87027732D01*
X87524257Y-87046430D01*
X87467450Y-87076794D01*
X87417657Y-87117657D01*
X87376794Y-87167450D01*
X87346430Y-87224257D01*
X87327732Y-87285897D01*
X87321418Y-87350000D01*
X54332000Y-87350000D01*
X54332000Y-85660000D01*
X87317306Y-85660000D01*
X87340031Y-85890732D01*
X87407333Y-86112597D01*
X87516626Y-86317070D01*
X87663709Y-86496291D01*
X87842930Y-86643374D01*
X88047403Y-86752667D01*
X88269268Y-86819969D01*
X88442188Y-86837000D01*
X88557812Y-86837000D01*
X88730732Y-86819969D01*
X88952597Y-86752667D01*
X89157070Y-86643374D01*
X89336291Y-86496291D01*
X89383927Y-86438246D01*
X97373000Y-86438246D01*
X97373000Y-86561754D01*
X97397095Y-86682889D01*
X97444360Y-86796996D01*
X97512977Y-86899689D01*
X97600311Y-86987023D01*
X97703004Y-87055640D01*
X97817111Y-87102905D01*
X97938246Y-87127000D01*
X98025367Y-87127000D01*
X98061623Y-87156755D01*
X98101273Y-87177948D01*
X98135804Y-87196405D01*
X98216293Y-87220822D01*
X98279022Y-87227000D01*
X98279032Y-87227000D01*
X98299999Y-87229065D01*
X98320966Y-87227000D01*
X106440288Y-87227000D01*
X106500311Y-87287023D01*
X106603004Y-87355640D01*
X106717111Y-87402905D01*
X106838246Y-87427000D01*
X106961754Y-87427000D01*
X107082889Y-87402905D01*
X107196996Y-87355640D01*
X107205436Y-87350000D01*
X150221418Y-87350000D01*
X150221418Y-89050000D01*
X150227732Y-89114103D01*
X150246430Y-89175743D01*
X150276794Y-89232550D01*
X150317657Y-89282343D01*
X150367450Y-89323206D01*
X150424257Y-89353570D01*
X150485897Y-89372268D01*
X150550000Y-89378582D01*
X152250000Y-89378582D01*
X152314103Y-89372268D01*
X152375743Y-89353570D01*
X152432550Y-89323206D01*
X152482343Y-89282343D01*
X152523206Y-89232550D01*
X152553570Y-89175743D01*
X152572268Y-89114103D01*
X152578582Y-89050000D01*
X152578582Y-87350000D01*
X152572268Y-87285897D01*
X152553570Y-87224257D01*
X152523206Y-87167450D01*
X152482343Y-87117657D01*
X152432550Y-87076794D01*
X152375743Y-87046430D01*
X152314103Y-87027732D01*
X152250000Y-87021418D01*
X150550000Y-87021418D01*
X150485897Y-87027732D01*
X150424257Y-87046430D01*
X150367450Y-87076794D01*
X150317657Y-87117657D01*
X150276794Y-87167450D01*
X150246430Y-87224257D01*
X150227732Y-87285897D01*
X150221418Y-87350000D01*
X107205436Y-87350000D01*
X107299689Y-87287023D01*
X107387023Y-87199689D01*
X107455640Y-87096996D01*
X107502905Y-86982889D01*
X107527000Y-86861754D01*
X107527000Y-86738246D01*
X107502905Y-86617111D01*
X107455640Y-86503004D01*
X107387023Y-86400311D01*
X107299689Y-86312977D01*
X107196996Y-86244360D01*
X107082889Y-86197095D01*
X106961754Y-86173000D01*
X106838246Y-86173000D01*
X106717111Y-86197095D01*
X106603004Y-86244360D01*
X106500311Y-86312977D01*
X106440288Y-86373000D01*
X98614022Y-86373000D01*
X98602905Y-86317111D01*
X98555640Y-86203004D01*
X98487023Y-86100311D01*
X98399689Y-86012977D01*
X98296996Y-85944360D01*
X98182889Y-85897095D01*
X98061754Y-85873000D01*
X97938246Y-85873000D01*
X97817111Y-85897095D01*
X97703004Y-85944360D01*
X97600311Y-86012977D01*
X97512977Y-86100311D01*
X97444360Y-86203004D01*
X97397095Y-86317111D01*
X97373000Y-86438246D01*
X89383927Y-86438246D01*
X89483374Y-86317070D01*
X89592667Y-86112597D01*
X89659969Y-85890732D01*
X89682694Y-85660000D01*
X150217306Y-85660000D01*
X150240031Y-85890732D01*
X150307333Y-86112597D01*
X150416626Y-86317070D01*
X150563709Y-86496291D01*
X150742930Y-86643374D01*
X150947403Y-86752667D01*
X151169268Y-86819969D01*
X151342188Y-86837000D01*
X151457812Y-86837000D01*
X151630732Y-86819969D01*
X151852597Y-86752667D01*
X152057070Y-86643374D01*
X152236291Y-86496291D01*
X152383374Y-86317070D01*
X152492667Y-86112597D01*
X152559969Y-85890732D01*
X152582694Y-85660000D01*
X152559969Y-85429268D01*
X152492667Y-85207403D01*
X152383374Y-85002930D01*
X152236291Y-84823709D01*
X152057070Y-84676626D01*
X151852597Y-84567333D01*
X151630732Y-84500031D01*
X151457812Y-84483000D01*
X151342188Y-84483000D01*
X151169268Y-84500031D01*
X150947403Y-84567333D01*
X150742930Y-84676626D01*
X150563709Y-84823709D01*
X150416626Y-85002930D01*
X150307333Y-85207403D01*
X150240031Y-85429268D01*
X150217306Y-85660000D01*
X89682694Y-85660000D01*
X89659969Y-85429268D01*
X89592667Y-85207403D01*
X89483374Y-85002930D01*
X89336291Y-84823709D01*
X89157070Y-84676626D01*
X88952597Y-84567333D01*
X88730732Y-84500031D01*
X88557812Y-84483000D01*
X88442188Y-84483000D01*
X88269268Y-84500031D01*
X88047403Y-84567333D01*
X87842930Y-84676626D01*
X87663709Y-84823709D01*
X87516626Y-85002930D01*
X87407333Y-85207403D01*
X87340031Y-85429268D01*
X87317306Y-85660000D01*
X54332000Y-85660000D01*
X54332000Y-77650000D01*
X109921418Y-77650000D01*
X109921418Y-79350000D01*
X109927732Y-79414103D01*
X109946430Y-79475743D01*
X109976794Y-79532550D01*
X110017657Y-79582343D01*
X110067450Y-79623206D01*
X110124257Y-79653570D01*
X110185897Y-79672268D01*
X110250000Y-79678582D01*
X111950000Y-79678582D01*
X112014103Y-79672268D01*
X112075743Y-79653570D01*
X112132550Y-79623206D01*
X112182343Y-79582343D01*
X112223206Y-79532550D01*
X112253570Y-79475743D01*
X112272268Y-79414103D01*
X112278582Y-79350000D01*
X112278582Y-77650000D01*
X115121418Y-77650000D01*
X115121418Y-79350000D01*
X115127732Y-79414103D01*
X115146430Y-79475743D01*
X115176794Y-79532550D01*
X115217657Y-79582343D01*
X115267450Y-79623206D01*
X115324257Y-79653570D01*
X115385897Y-79672268D01*
X115450000Y-79678582D01*
X117150000Y-79678582D01*
X117214103Y-79672268D01*
X117275743Y-79653570D01*
X117332550Y-79623206D01*
X117382343Y-79582343D01*
X117423206Y-79532550D01*
X117453570Y-79475743D01*
X117472268Y-79414103D01*
X117478582Y-79350000D01*
X117478582Y-77650000D01*
X121721418Y-77650000D01*
X121721418Y-79350000D01*
X121727732Y-79414103D01*
X121746430Y-79475743D01*
X121776794Y-79532550D01*
X121817657Y-79582343D01*
X121867450Y-79623206D01*
X121924257Y-79653570D01*
X121985897Y-79672268D01*
X122050000Y-79678582D01*
X123750000Y-79678582D01*
X123814103Y-79672268D01*
X123875743Y-79653570D01*
X123932550Y-79623206D01*
X123982343Y-79582343D01*
X124023206Y-79532550D01*
X124053570Y-79475743D01*
X124072268Y-79414103D01*
X124078582Y-79350000D01*
X124078582Y-77650000D01*
X128821418Y-77650000D01*
X128821418Y-79350000D01*
X128827732Y-79414103D01*
X128846430Y-79475743D01*
X128876794Y-79532550D01*
X128917657Y-79582343D01*
X128967450Y-79623206D01*
X129024257Y-79653570D01*
X129085897Y-79672268D01*
X129150000Y-79678582D01*
X130850000Y-79678582D01*
X130914103Y-79672268D01*
X130975743Y-79653570D01*
X131032550Y-79623206D01*
X131082343Y-79582343D01*
X131123206Y-79532550D01*
X131153570Y-79475743D01*
X131172268Y-79414103D01*
X131178582Y-79350000D01*
X131178582Y-77650000D01*
X137521418Y-77650000D01*
X137521418Y-79350000D01*
X137527732Y-79414103D01*
X137546430Y-79475743D01*
X137576794Y-79532550D01*
X137617657Y-79582343D01*
X137667450Y-79623206D01*
X137724257Y-79653570D01*
X137785897Y-79672268D01*
X137850000Y-79678582D01*
X139550000Y-79678582D01*
X139614103Y-79672268D01*
X139675743Y-79653570D01*
X139732550Y-79623206D01*
X139782343Y-79582343D01*
X139823206Y-79532550D01*
X139853570Y-79475743D01*
X139872268Y-79414103D01*
X139878582Y-79350000D01*
X139878582Y-77650000D01*
X141921418Y-77650000D01*
X141921418Y-79350000D01*
X141927732Y-79414103D01*
X141946430Y-79475743D01*
X141976794Y-79532550D01*
X142017657Y-79582343D01*
X142067450Y-79623206D01*
X142124257Y-79653570D01*
X142185897Y-79672268D01*
X142250000Y-79678582D01*
X143950000Y-79678582D01*
X144014103Y-79672268D01*
X144075743Y-79653570D01*
X144132550Y-79623206D01*
X144182343Y-79582343D01*
X144223206Y-79532550D01*
X144253570Y-79475743D01*
X144272268Y-79414103D01*
X144278582Y-79350000D01*
X144278582Y-77650000D01*
X144272268Y-77585897D01*
X144261379Y-77550000D01*
X146321418Y-77550000D01*
X146321418Y-79250000D01*
X146327732Y-79314103D01*
X146346430Y-79375743D01*
X146376794Y-79432550D01*
X146417657Y-79482343D01*
X146467450Y-79523206D01*
X146524257Y-79553570D01*
X146585897Y-79572268D01*
X146650000Y-79578582D01*
X148350000Y-79578582D01*
X148414103Y-79572268D01*
X148475743Y-79553570D01*
X148532550Y-79523206D01*
X148582343Y-79482343D01*
X148623206Y-79432550D01*
X148653570Y-79375743D01*
X148672268Y-79314103D01*
X148678582Y-79250000D01*
X148678582Y-77550000D01*
X148672268Y-77485897D01*
X148653570Y-77424257D01*
X148623206Y-77367450D01*
X148582343Y-77317657D01*
X148532550Y-77276794D01*
X148475743Y-77246430D01*
X148414103Y-77227732D01*
X148350000Y-77221418D01*
X146650000Y-77221418D01*
X146585897Y-77227732D01*
X146524257Y-77246430D01*
X146467450Y-77276794D01*
X146417657Y-77317657D01*
X146376794Y-77367450D01*
X146346430Y-77424257D01*
X146327732Y-77485897D01*
X146321418Y-77550000D01*
X144261379Y-77550000D01*
X144253570Y-77524257D01*
X144223206Y-77467450D01*
X144182343Y-77417657D01*
X144132550Y-77376794D01*
X144075743Y-77346430D01*
X144014103Y-77327732D01*
X143950000Y-77321418D01*
X142250000Y-77321418D01*
X142185897Y-77327732D01*
X142124257Y-77346430D01*
X142067450Y-77376794D01*
X142017657Y-77417657D01*
X141976794Y-77467450D01*
X141946430Y-77524257D01*
X141927732Y-77585897D01*
X141921418Y-77650000D01*
X139878582Y-77650000D01*
X139872268Y-77585897D01*
X139853570Y-77524257D01*
X139823206Y-77467450D01*
X139782343Y-77417657D01*
X139732550Y-77376794D01*
X139675743Y-77346430D01*
X139614103Y-77327732D01*
X139550000Y-77321418D01*
X137850000Y-77321418D01*
X137785897Y-77327732D01*
X137724257Y-77346430D01*
X137667450Y-77376794D01*
X137617657Y-77417657D01*
X137576794Y-77467450D01*
X137546430Y-77524257D01*
X137527732Y-77585897D01*
X137521418Y-77650000D01*
X131178582Y-77650000D01*
X131172268Y-77585897D01*
X131153570Y-77524257D01*
X131123206Y-77467450D01*
X131082343Y-77417657D01*
X131032550Y-77376794D01*
X130975743Y-77346430D01*
X130914103Y-77327732D01*
X130850000Y-77321418D01*
X129150000Y-77321418D01*
X129085897Y-77327732D01*
X129024257Y-77346430D01*
X128967450Y-77376794D01*
X128917657Y-77417657D01*
X128876794Y-77467450D01*
X128846430Y-77524257D01*
X128827732Y-77585897D01*
X128821418Y-77650000D01*
X124078582Y-77650000D01*
X124072268Y-77585897D01*
X124053570Y-77524257D01*
X124023206Y-77467450D01*
X123982343Y-77417657D01*
X123932550Y-77376794D01*
X123875743Y-77346430D01*
X123814103Y-77327732D01*
X123750000Y-77321418D01*
X122050000Y-77321418D01*
X121985897Y-77327732D01*
X121924257Y-77346430D01*
X121867450Y-77376794D01*
X121817657Y-77417657D01*
X121776794Y-77467450D01*
X121746430Y-77524257D01*
X121727732Y-77585897D01*
X121721418Y-77650000D01*
X117478582Y-77650000D01*
X117472268Y-77585897D01*
X117453570Y-77524257D01*
X117423206Y-77467450D01*
X117382343Y-77417657D01*
X117332550Y-77376794D01*
X117275743Y-77346430D01*
X117214103Y-77327732D01*
X117150000Y-77321418D01*
X115450000Y-77321418D01*
X115385897Y-77327732D01*
X115324257Y-77346430D01*
X115267450Y-77376794D01*
X115217657Y-77417657D01*
X115176794Y-77467450D01*
X115146430Y-77524257D01*
X115127732Y-77585897D01*
X115121418Y-77650000D01*
X112278582Y-77650000D01*
X112272268Y-77585897D01*
X112253570Y-77524257D01*
X112223206Y-77467450D01*
X112182343Y-77417657D01*
X112132550Y-77376794D01*
X112075743Y-77346430D01*
X112014103Y-77327732D01*
X111950000Y-77321418D01*
X110250000Y-77321418D01*
X110185897Y-77327732D01*
X110124257Y-77346430D01*
X110067450Y-77376794D01*
X110017657Y-77417657D01*
X109976794Y-77467450D01*
X109946430Y-77524257D01*
X109927732Y-77585897D01*
X109921418Y-77650000D01*
X54332000Y-77650000D01*
X54332000Y-76850000D01*
X85511928Y-76850000D01*
X85524188Y-76974482D01*
X85560498Y-77094180D01*
X85619463Y-77204494D01*
X85698815Y-77301185D01*
X85795506Y-77380537D01*
X85905820Y-77439502D01*
X86025518Y-77475812D01*
X86150000Y-77488072D01*
X86714250Y-77485000D01*
X86873000Y-77326250D01*
X86873000Y-76127000D01*
X85673750Y-76127000D01*
X85515000Y-76285750D01*
X85511928Y-76850000D01*
X54332000Y-76850000D01*
X54332000Y-76016233D01*
X54365328Y-75676327D01*
X54459330Y-75364979D01*
X54573636Y-75150000D01*
X85511928Y-75150000D01*
X85515000Y-75714250D01*
X85673750Y-75873000D01*
X86873000Y-75873000D01*
X86873000Y-74673750D01*
X87127000Y-74673750D01*
X87127000Y-75873000D01*
X87147000Y-75873000D01*
X87147000Y-76127000D01*
X87127000Y-76127000D01*
X87127000Y-77326250D01*
X87285750Y-77485000D01*
X87850000Y-77488072D01*
X87974482Y-77475812D01*
X88094180Y-77439502D01*
X88204494Y-77380537D01*
X88301185Y-77301185D01*
X88380537Y-77204494D01*
X88439502Y-77094180D01*
X88475812Y-76974482D01*
X88488072Y-76850000D01*
X88486305Y-76525509D01*
X88556626Y-76657070D01*
X88703709Y-76836291D01*
X88882930Y-76983374D01*
X89087403Y-77092667D01*
X89309268Y-77159969D01*
X89482188Y-77177000D01*
X89597812Y-77177000D01*
X89770732Y-77159969D01*
X89992597Y-77092667D01*
X90197070Y-76983374D01*
X90376291Y-76836291D01*
X90523374Y-76657070D01*
X90632667Y-76452597D01*
X90699969Y-76230732D01*
X90722694Y-76000000D01*
X90897306Y-76000000D01*
X90920031Y-76230732D01*
X90987333Y-76452597D01*
X91096626Y-76657070D01*
X91243709Y-76836291D01*
X91422930Y-76983374D01*
X91627403Y-77092667D01*
X91849268Y-77159969D01*
X92022188Y-77177000D01*
X92137812Y-77177000D01*
X92310732Y-77159969D01*
X92532597Y-77092667D01*
X92737070Y-76983374D01*
X92916291Y-76836291D01*
X93063374Y-76657070D01*
X93172667Y-76452597D01*
X93239969Y-76230732D01*
X93262694Y-76000000D01*
X93437306Y-76000000D01*
X93460031Y-76230732D01*
X93527333Y-76452597D01*
X93636626Y-76657070D01*
X93783709Y-76836291D01*
X93962930Y-76983374D01*
X94167403Y-77092667D01*
X94389268Y-77159969D01*
X94562188Y-77177000D01*
X94677812Y-77177000D01*
X94850732Y-77159969D01*
X95072597Y-77092667D01*
X95277070Y-76983374D01*
X95456291Y-76836291D01*
X95603374Y-76657070D01*
X95712667Y-76452597D01*
X95779969Y-76230732D01*
X95802694Y-76000000D01*
X95977306Y-76000000D01*
X96000031Y-76230732D01*
X96067333Y-76452597D01*
X96176626Y-76657070D01*
X96323709Y-76836291D01*
X96502930Y-76983374D01*
X96707403Y-77092667D01*
X96929268Y-77159969D01*
X97102188Y-77177000D01*
X97217812Y-77177000D01*
X97390732Y-77159969D01*
X97612597Y-77092667D01*
X97817070Y-76983374D01*
X97996291Y-76836291D01*
X98143374Y-76657070D01*
X98252667Y-76452597D01*
X98319969Y-76230732D01*
X98342694Y-76000000D01*
X98517306Y-76000000D01*
X98540031Y-76230732D01*
X98607333Y-76452597D01*
X98716626Y-76657070D01*
X98863709Y-76836291D01*
X99042930Y-76983374D01*
X99247403Y-77092667D01*
X99469268Y-77159969D01*
X99642188Y-77177000D01*
X99757812Y-77177000D01*
X99930732Y-77159969D01*
X100152597Y-77092667D01*
X100357070Y-76983374D01*
X100536291Y-76836291D01*
X100683374Y-76657070D01*
X100792667Y-76452597D01*
X100859969Y-76230732D01*
X100882694Y-76000000D01*
X101057306Y-76000000D01*
X101080031Y-76230732D01*
X101147333Y-76452597D01*
X101256626Y-76657070D01*
X101403709Y-76836291D01*
X101582930Y-76983374D01*
X101787403Y-77092667D01*
X102009268Y-77159969D01*
X102182188Y-77177000D01*
X102297812Y-77177000D01*
X102470732Y-77159969D01*
X102692597Y-77092667D01*
X102897070Y-76983374D01*
X103076291Y-76836291D01*
X103223374Y-76657070D01*
X103332667Y-76452597D01*
X103399969Y-76230732D01*
X103422694Y-76000000D01*
X103418755Y-75960000D01*
X109917306Y-75960000D01*
X109940031Y-76190732D01*
X110007333Y-76412597D01*
X110116626Y-76617070D01*
X110263709Y-76796291D01*
X110442930Y-76943374D01*
X110647403Y-77052667D01*
X110869268Y-77119969D01*
X111042188Y-77137000D01*
X111157812Y-77137000D01*
X111330732Y-77119969D01*
X111552597Y-77052667D01*
X111757070Y-76943374D01*
X111936291Y-76796291D01*
X112083374Y-76617070D01*
X112192667Y-76412597D01*
X112259969Y-76190732D01*
X112282694Y-75960000D01*
X115117306Y-75960000D01*
X115140031Y-76190732D01*
X115207333Y-76412597D01*
X115316626Y-76617070D01*
X115463709Y-76796291D01*
X115642930Y-76943374D01*
X115847403Y-77052667D01*
X116069268Y-77119969D01*
X116242188Y-77137000D01*
X116357812Y-77137000D01*
X116530732Y-77119969D01*
X116752597Y-77052667D01*
X116957070Y-76943374D01*
X117136291Y-76796291D01*
X117283374Y-76617070D01*
X117392667Y-76412597D01*
X117459969Y-76190732D01*
X117482694Y-75960000D01*
X121717306Y-75960000D01*
X121740031Y-76190732D01*
X121807333Y-76412597D01*
X121916626Y-76617070D01*
X122063709Y-76796291D01*
X122242930Y-76943374D01*
X122447403Y-77052667D01*
X122669268Y-77119969D01*
X122842188Y-77137000D01*
X122957812Y-77137000D01*
X123130732Y-77119969D01*
X123352597Y-77052667D01*
X123557070Y-76943374D01*
X123736291Y-76796291D01*
X123883374Y-76617070D01*
X123992667Y-76412597D01*
X124059969Y-76190732D01*
X124082694Y-75960000D01*
X128817306Y-75960000D01*
X128840031Y-76190732D01*
X128907333Y-76412597D01*
X129016626Y-76617070D01*
X129163709Y-76796291D01*
X129342930Y-76943374D01*
X129547403Y-77052667D01*
X129769268Y-77119969D01*
X129942188Y-77137000D01*
X130057812Y-77137000D01*
X130230732Y-77119969D01*
X130452597Y-77052667D01*
X130657070Y-76943374D01*
X130836291Y-76796291D01*
X130983374Y-76617070D01*
X131092667Y-76412597D01*
X131159969Y-76190732D01*
X131182694Y-75960000D01*
X137517306Y-75960000D01*
X137540031Y-76190732D01*
X137607333Y-76412597D01*
X137716626Y-76617070D01*
X137863709Y-76796291D01*
X138042930Y-76943374D01*
X138247403Y-77052667D01*
X138469268Y-77119969D01*
X138642188Y-77137000D01*
X138757812Y-77137000D01*
X138930732Y-77119969D01*
X139152597Y-77052667D01*
X139357070Y-76943374D01*
X139536291Y-76796291D01*
X139683374Y-76617070D01*
X139792667Y-76412597D01*
X139859969Y-76190732D01*
X139882694Y-75960000D01*
X141917306Y-75960000D01*
X141940031Y-76190732D01*
X142007333Y-76412597D01*
X142116626Y-76617070D01*
X142263709Y-76796291D01*
X142442930Y-76943374D01*
X142647403Y-77052667D01*
X142869268Y-77119969D01*
X143042188Y-77137000D01*
X143157812Y-77137000D01*
X143330732Y-77119969D01*
X143552597Y-77052667D01*
X143757070Y-76943374D01*
X143936291Y-76796291D01*
X144083374Y-76617070D01*
X144192667Y-76412597D01*
X144259969Y-76190732D01*
X144282694Y-75960000D01*
X144272845Y-75860000D01*
X146317306Y-75860000D01*
X146340031Y-76090732D01*
X146407333Y-76312597D01*
X146516626Y-76517070D01*
X146663709Y-76696291D01*
X146842930Y-76843374D01*
X147047403Y-76952667D01*
X147269268Y-77019969D01*
X147442188Y-77037000D01*
X147557812Y-77037000D01*
X147730732Y-77019969D01*
X147952597Y-76952667D01*
X148157070Y-76843374D01*
X148336291Y-76696291D01*
X148483374Y-76517070D01*
X148592667Y-76312597D01*
X148659969Y-76090732D01*
X148682694Y-75860000D01*
X148659969Y-75629268D01*
X148592667Y-75407403D01*
X148483374Y-75202930D01*
X148336291Y-75023709D01*
X148157070Y-74876626D01*
X147952597Y-74767333D01*
X147730732Y-74700031D01*
X147557812Y-74683000D01*
X147442188Y-74683000D01*
X147269268Y-74700031D01*
X147047403Y-74767333D01*
X146842930Y-74876626D01*
X146663709Y-75023709D01*
X146516626Y-75202930D01*
X146407333Y-75407403D01*
X146340031Y-75629268D01*
X146317306Y-75860000D01*
X144272845Y-75860000D01*
X144259969Y-75729268D01*
X144192667Y-75507403D01*
X144083374Y-75302930D01*
X143936291Y-75123709D01*
X143757070Y-74976626D01*
X143552597Y-74867333D01*
X143330732Y-74800031D01*
X143157812Y-74783000D01*
X143042188Y-74783000D01*
X142869268Y-74800031D01*
X142647403Y-74867333D01*
X142442930Y-74976626D01*
X142263709Y-75123709D01*
X142116626Y-75302930D01*
X142007333Y-75507403D01*
X141940031Y-75729268D01*
X141917306Y-75960000D01*
X139882694Y-75960000D01*
X139859969Y-75729268D01*
X139792667Y-75507403D01*
X139683374Y-75302930D01*
X139536291Y-75123709D01*
X139357070Y-74976626D01*
X139152597Y-74867333D01*
X138930732Y-74800031D01*
X138757812Y-74783000D01*
X138642188Y-74783000D01*
X138469268Y-74800031D01*
X138247403Y-74867333D01*
X138042930Y-74976626D01*
X137863709Y-75123709D01*
X137716626Y-75302930D01*
X137607333Y-75507403D01*
X137540031Y-75729268D01*
X137517306Y-75960000D01*
X131182694Y-75960000D01*
X131159969Y-75729268D01*
X131092667Y-75507403D01*
X130983374Y-75302930D01*
X130836291Y-75123709D01*
X130657070Y-74976626D01*
X130452597Y-74867333D01*
X130230732Y-74800031D01*
X130057812Y-74783000D01*
X129942188Y-74783000D01*
X129769268Y-74800031D01*
X129547403Y-74867333D01*
X129342930Y-74976626D01*
X129163709Y-75123709D01*
X129016626Y-75302930D01*
X128907333Y-75507403D01*
X128840031Y-75729268D01*
X128817306Y-75960000D01*
X124082694Y-75960000D01*
X124059969Y-75729268D01*
X123992667Y-75507403D01*
X123883374Y-75302930D01*
X123736291Y-75123709D01*
X123557070Y-74976626D01*
X123352597Y-74867333D01*
X123130732Y-74800031D01*
X122957812Y-74783000D01*
X122842188Y-74783000D01*
X122669268Y-74800031D01*
X122447403Y-74867333D01*
X122242930Y-74976626D01*
X122063709Y-75123709D01*
X121916626Y-75302930D01*
X121807333Y-75507403D01*
X121740031Y-75729268D01*
X121717306Y-75960000D01*
X117482694Y-75960000D01*
X117459969Y-75729268D01*
X117392667Y-75507403D01*
X117283374Y-75302930D01*
X117136291Y-75123709D01*
X116957070Y-74976626D01*
X116752597Y-74867333D01*
X116530732Y-74800031D01*
X116357812Y-74783000D01*
X116242188Y-74783000D01*
X116069268Y-74800031D01*
X115847403Y-74867333D01*
X115642930Y-74976626D01*
X115463709Y-75123709D01*
X115316626Y-75302930D01*
X115207333Y-75507403D01*
X115140031Y-75729268D01*
X115117306Y-75960000D01*
X112282694Y-75960000D01*
X112259969Y-75729268D01*
X112192667Y-75507403D01*
X112083374Y-75302930D01*
X111936291Y-75123709D01*
X111757070Y-74976626D01*
X111552597Y-74867333D01*
X111330732Y-74800031D01*
X111157812Y-74783000D01*
X111042188Y-74783000D01*
X110869268Y-74800031D01*
X110647403Y-74867333D01*
X110442930Y-74976626D01*
X110263709Y-75123709D01*
X110116626Y-75302930D01*
X110007333Y-75507403D01*
X109940031Y-75729268D01*
X109917306Y-75960000D01*
X103418755Y-75960000D01*
X103399969Y-75769268D01*
X103332667Y-75547403D01*
X103223374Y-75342930D01*
X103076291Y-75163709D01*
X102897070Y-75016626D01*
X102692597Y-74907333D01*
X102470732Y-74840031D01*
X102297812Y-74823000D01*
X102182188Y-74823000D01*
X102009268Y-74840031D01*
X101787403Y-74907333D01*
X101582930Y-75016626D01*
X101403709Y-75163709D01*
X101256626Y-75342930D01*
X101147333Y-75547403D01*
X101080031Y-75769268D01*
X101057306Y-76000000D01*
X100882694Y-76000000D01*
X100859969Y-75769268D01*
X100792667Y-75547403D01*
X100683374Y-75342930D01*
X100536291Y-75163709D01*
X100357070Y-75016626D01*
X100152597Y-74907333D01*
X99930732Y-74840031D01*
X99757812Y-74823000D01*
X99642188Y-74823000D01*
X99469268Y-74840031D01*
X99247403Y-74907333D01*
X99042930Y-75016626D01*
X98863709Y-75163709D01*
X98716626Y-75342930D01*
X98607333Y-75547403D01*
X98540031Y-75769268D01*
X98517306Y-76000000D01*
X98342694Y-76000000D01*
X98319969Y-75769268D01*
X98252667Y-75547403D01*
X98143374Y-75342930D01*
X97996291Y-75163709D01*
X97817070Y-75016626D01*
X97612597Y-74907333D01*
X97390732Y-74840031D01*
X97217812Y-74823000D01*
X97102188Y-74823000D01*
X96929268Y-74840031D01*
X96707403Y-74907333D01*
X96502930Y-75016626D01*
X96323709Y-75163709D01*
X96176626Y-75342930D01*
X96067333Y-75547403D01*
X96000031Y-75769268D01*
X95977306Y-76000000D01*
X95802694Y-76000000D01*
X95779969Y-75769268D01*
X95712667Y-75547403D01*
X95603374Y-75342930D01*
X95456291Y-75163709D01*
X95277070Y-75016626D01*
X95072597Y-74907333D01*
X94850732Y-74840031D01*
X94677812Y-74823000D01*
X94562188Y-74823000D01*
X94389268Y-74840031D01*
X94167403Y-74907333D01*
X93962930Y-75016626D01*
X93783709Y-75163709D01*
X93636626Y-75342930D01*
X93527333Y-75547403D01*
X93460031Y-75769268D01*
X93437306Y-76000000D01*
X93262694Y-76000000D01*
X93239969Y-75769268D01*
X93172667Y-75547403D01*
X93063374Y-75342930D01*
X92916291Y-75163709D01*
X92737070Y-75016626D01*
X92532597Y-74907333D01*
X92310732Y-74840031D01*
X92137812Y-74823000D01*
X92022188Y-74823000D01*
X91849268Y-74840031D01*
X91627403Y-74907333D01*
X91422930Y-75016626D01*
X91243709Y-75163709D01*
X91096626Y-75342930D01*
X90987333Y-75547403D01*
X90920031Y-75769268D01*
X90897306Y-76000000D01*
X90722694Y-76000000D01*
X90699969Y-75769268D01*
X90632667Y-75547403D01*
X90523374Y-75342930D01*
X90376291Y-75163709D01*
X90197070Y-75016626D01*
X89992597Y-74907333D01*
X89770732Y-74840031D01*
X89597812Y-74823000D01*
X89482188Y-74823000D01*
X89309268Y-74840031D01*
X89087403Y-74907333D01*
X88882930Y-75016626D01*
X88703709Y-75163709D01*
X88556626Y-75342930D01*
X88486305Y-75474491D01*
X88488072Y-75150000D01*
X88475812Y-75025518D01*
X88439502Y-74905820D01*
X88380537Y-74795506D01*
X88301185Y-74698815D01*
X88204494Y-74619463D01*
X88094180Y-74560498D01*
X87974482Y-74524188D01*
X87850000Y-74511928D01*
X87285750Y-74515000D01*
X87127000Y-74673750D01*
X86873000Y-74673750D01*
X86714250Y-74515000D01*
X86150000Y-74511928D01*
X86025518Y-74524188D01*
X85905820Y-74560498D01*
X85795506Y-74619463D01*
X85698815Y-74698815D01*
X85619463Y-74795506D01*
X85560498Y-74905820D01*
X85524188Y-75025518D01*
X85511928Y-75150000D01*
X54573636Y-75150000D01*
X54612013Y-75077824D01*
X54817566Y-74825793D01*
X55068157Y-74618484D01*
X55354241Y-74463800D01*
X55664925Y-74367628D01*
X56003900Y-74332000D01*
X150983767Y-74332000D01*
X151323673Y-74365328D01*
X151323673Y-74365328D01*
G37*
X151323673Y-74365328D02*
X151635021Y-74459330D01*
X151922176Y-74612013D01*
X152174207Y-74817566D01*
X152381516Y-75068157D01*
X152536200Y-75354241D01*
X152632372Y-75664925D01*
X152668001Y-76003909D01*
X152668000Y-97983767D01*
X152634672Y-98323673D01*
X152540672Y-98635015D01*
X152387988Y-98922173D01*
X152182434Y-99174208D01*
X151931846Y-99381513D01*
X151645759Y-99536200D01*
X151335079Y-99632372D01*
X150996099Y-99668000D01*
X56016233Y-99668000D01*
X55676327Y-99634672D01*
X55364985Y-99540672D01*
X55077827Y-99387988D01*
X54825792Y-99182434D01*
X54618487Y-98931846D01*
X54463800Y-98645759D01*
X54367628Y-98335079D01*
X54332000Y-97996099D01*
X54332000Y-97150000D01*
X82121418Y-97150000D01*
X82121418Y-98850000D01*
X82127732Y-98914103D01*
X82146430Y-98975743D01*
X82176794Y-99032550D01*
X82217657Y-99082343D01*
X82267450Y-99123206D01*
X82324257Y-99153570D01*
X82385897Y-99172268D01*
X82450000Y-99178582D01*
X84150000Y-99178582D01*
X84214103Y-99172268D01*
X84275743Y-99153570D01*
X84332550Y-99123206D01*
X84382343Y-99082343D01*
X84423206Y-99032550D01*
X84453570Y-98975743D01*
X84472268Y-98914103D01*
X84478582Y-98850000D01*
X84478582Y-98827000D01*
X85821418Y-98827000D01*
X85821418Y-98850000D01*
X85827732Y-98914103D01*
X85846430Y-98975743D01*
X85876794Y-99032550D01*
X85917657Y-99082343D01*
X85967450Y-99123206D01*
X86024257Y-99153570D01*
X86085897Y-99172268D01*
X86150000Y-99178582D01*
X87850000Y-99178582D01*
X87914103Y-99172268D01*
X87975743Y-99153570D01*
X88032550Y-99123206D01*
X88082343Y-99082343D01*
X88123206Y-99032550D01*
X88153570Y-98975743D01*
X88172268Y-98914103D01*
X88178582Y-98850000D01*
X88178582Y-98000000D01*
X88357306Y-98000000D01*
X88380031Y-98230732D01*
X88447333Y-98452597D01*
X88556626Y-98657070D01*
X88703709Y-98836291D01*
X88882930Y-98983374D01*
X89087403Y-99092667D01*
X89309268Y-99159969D01*
X89482188Y-99177000D01*
X89597812Y-99177000D01*
X89770732Y-99159969D01*
X89992597Y-99092667D01*
X90197070Y-98983374D01*
X90376291Y-98836291D01*
X90523374Y-98657070D01*
X90632667Y-98452597D01*
X90699969Y-98230732D01*
X90722694Y-98000000D01*
X90897306Y-98000000D01*
X90920031Y-98230732D01*
X90987333Y-98452597D01*
X91096626Y-98657070D01*
X91243709Y-98836291D01*
X91422930Y-98983374D01*
X91627403Y-99092667D01*
X91849268Y-99159969D01*
X92022188Y-99177000D01*
X92137812Y-99177000D01*
X92310732Y-99159969D01*
X92532597Y-99092667D01*
X92737070Y-98983374D01*
X92916291Y-98836291D01*
X93063374Y-98657070D01*
X93172667Y-98452597D01*
X93239969Y-98230732D01*
X93262694Y-98000000D01*
X93437306Y-98000000D01*
X93460031Y-98230732D01*
X93527333Y-98452597D01*
X93636626Y-98657070D01*
X93783709Y-98836291D01*
X93962930Y-98983374D01*
X94167403Y-99092667D01*
X94389268Y-99159969D01*
X94562188Y-99177000D01*
X94677812Y-99177000D01*
X94850732Y-99159969D01*
X95072597Y-99092667D01*
X95277070Y-98983374D01*
X95456291Y-98836291D01*
X95603374Y-98657070D01*
X95712667Y-98452597D01*
X95779969Y-98230732D01*
X95802694Y-98000000D01*
X95977306Y-98000000D01*
X96000031Y-98230732D01*
X96067333Y-98452597D01*
X96176626Y-98657070D01*
X96323709Y-98836291D01*
X96502930Y-98983374D01*
X96707403Y-99092667D01*
X96929268Y-99159969D01*
X97102188Y-99177000D01*
X97217812Y-99177000D01*
X97390732Y-99159969D01*
X97612597Y-99092667D01*
X97817070Y-98983374D01*
X97996291Y-98836291D01*
X98143374Y-98657070D01*
X98252667Y-98452597D01*
X98319969Y-98230732D01*
X98342694Y-98000000D01*
X98517306Y-98000000D01*
X98540031Y-98230732D01*
X98607333Y-98452597D01*
X98716626Y-98657070D01*
X98863709Y-98836291D01*
X99042930Y-98983374D01*
X99247403Y-99092667D01*
X99469268Y-99159969D01*
X99642188Y-99177000D01*
X99757812Y-99177000D01*
X99930732Y-99159969D01*
X100152597Y-99092667D01*
X100357070Y-98983374D01*
X100536291Y-98836291D01*
X100683374Y-98657070D01*
X100792667Y-98452597D01*
X100859969Y-98230732D01*
X100882694Y-98000000D01*
X101057306Y-98000000D01*
X101080031Y-98230732D01*
X101147333Y-98452597D01*
X101256626Y-98657070D01*
X101403709Y-98836291D01*
X101582930Y-98983374D01*
X101787403Y-99092667D01*
X102009268Y-99159969D01*
X102182188Y-99177000D01*
X102297812Y-99177000D01*
X102470732Y-99159969D01*
X102692597Y-99092667D01*
X102897070Y-98983374D01*
X103076291Y-98836291D01*
X103223374Y-98657070D01*
X103332667Y-98452597D01*
X103399969Y-98230732D01*
X103422694Y-98000000D01*
X103399969Y-97769268D01*
X103332667Y-97547403D01*
X103223374Y-97342930D01*
X103076291Y-97163709D01*
X102897070Y-97016626D01*
X102692597Y-96907333D01*
X102470732Y-96840031D01*
X102297812Y-96823000D01*
X102182188Y-96823000D01*
X102009268Y-96840031D01*
X101787403Y-96907333D01*
X101582930Y-97016626D01*
X101403709Y-97163709D01*
X101256626Y-97342930D01*
X101147333Y-97547403D01*
X101080031Y-97769268D01*
X101057306Y-98000000D01*
X100882694Y-98000000D01*
X100859969Y-97769268D01*
X100792667Y-97547403D01*
X100683374Y-97342930D01*
X100536291Y-97163709D01*
X100357070Y-97016626D01*
X100152597Y-96907333D01*
X99930732Y-96840031D01*
X99757812Y-96823000D01*
X99642188Y-96823000D01*
X99469268Y-96840031D01*
X99247403Y-96907333D01*
X99042930Y-97016626D01*
X98863709Y-97163709D01*
X98716626Y-97342930D01*
X98607333Y-97547403D01*
X98540031Y-97769268D01*
X98517306Y-98000000D01*
X98342694Y-98000000D01*
X98319969Y-97769268D01*
X98252667Y-97547403D01*
X98143374Y-97342930D01*
X97996291Y-97163709D01*
X97817070Y-97016626D01*
X97612597Y-96907333D01*
X97390732Y-96840031D01*
X97217812Y-96823000D01*
X97102188Y-96823000D01*
X96929268Y-96840031D01*
X96707403Y-96907333D01*
X96502930Y-97016626D01*
X96323709Y-97163709D01*
X96176626Y-97342930D01*
X96067333Y-97547403D01*
X96000031Y-97769268D01*
X95977306Y-98000000D01*
X95802694Y-98000000D01*
X95779969Y-97769268D01*
X95712667Y-97547403D01*
X95603374Y-97342930D01*
X95456291Y-97163709D01*
X95277070Y-97016626D01*
X95072597Y-96907333D01*
X94850732Y-96840031D01*
X94677812Y-96823000D01*
X94562188Y-96823000D01*
X94389268Y-96840031D01*
X94167403Y-96907333D01*
X93962930Y-97016626D01*
X93783709Y-97163709D01*
X93636626Y-97342930D01*
X93527333Y-97547403D01*
X93460031Y-97769268D01*
X93437306Y-98000000D01*
X93262694Y-98000000D01*
X93239969Y-97769268D01*
X93172667Y-97547403D01*
X93063374Y-97342930D01*
X92916291Y-97163709D01*
X92737070Y-97016626D01*
X92532597Y-96907333D01*
X92310732Y-96840031D01*
X92137812Y-96823000D01*
X92022188Y-96823000D01*
X91849268Y-96840031D01*
X91627403Y-96907333D01*
X91422930Y-97016626D01*
X91243709Y-97163709D01*
X91096626Y-97342930D01*
X90987333Y-97547403D01*
X90920031Y-97769268D01*
X90897306Y-98000000D01*
X90722694Y-98000000D01*
X90699969Y-97769268D01*
X90632667Y-97547403D01*
X90523374Y-97342930D01*
X90376291Y-97163709D01*
X90197070Y-97016626D01*
X89992597Y-96907333D01*
X89770732Y-96840031D01*
X89597812Y-96823000D01*
X89482188Y-96823000D01*
X89309268Y-96840031D01*
X89087403Y-96907333D01*
X88882930Y-97016626D01*
X88703709Y-97163709D01*
X88556626Y-97342930D01*
X88447333Y-97547403D01*
X88380031Y-97769268D01*
X88357306Y-98000000D01*
X88178582Y-98000000D01*
X88178582Y-97150000D01*
X88172268Y-97085897D01*
X88153570Y-97024257D01*
X88123206Y-96967450D01*
X88082343Y-96917657D01*
X88032550Y-96876794D01*
X87975743Y-96846430D01*
X87914103Y-96827732D01*
X87850000Y-96821418D01*
X86150000Y-96821418D01*
X86085897Y-96827732D01*
X86024257Y-96846430D01*
X85967450Y-96876794D01*
X85917657Y-96917657D01*
X85876794Y-96967450D01*
X85846430Y-97024257D01*
X85827732Y-97085897D01*
X85821418Y-97150000D01*
X85821418Y-97173000D01*
X84478582Y-97173000D01*
X84478582Y-97150000D01*
X84472268Y-97085897D01*
X84453570Y-97024257D01*
X84423206Y-96967450D01*
X84382343Y-96917657D01*
X84332550Y-96876794D01*
X84275743Y-96846430D01*
X84214103Y-96827732D01*
X84150000Y-96821418D01*
X82450000Y-96821418D01*
X82385897Y-96827732D01*
X82324257Y-96846430D01*
X82267450Y-96876794D01*
X82217657Y-96917657D01*
X82176794Y-96967450D01*
X82146430Y-97024257D01*
X82127732Y-97085897D01*
X82121418Y-97150000D01*
X54332000Y-97150000D01*
X54332000Y-93276890D01*
X81858524Y-93276890D01*
X81903175Y-93424099D01*
X82028359Y-93686920D01*
X82202412Y-93920269D01*
X82418645Y-94115178D01*
X82668748Y-94264157D01*
X82907885Y-94348986D01*
X82847403Y-94367333D01*
X82642930Y-94476626D01*
X82463709Y-94623709D01*
X82316626Y-94802930D01*
X82207333Y-95007403D01*
X82140031Y-95229268D01*
X82117306Y-95460000D01*
X82140031Y-95690732D01*
X82207333Y-95912597D01*
X82316626Y-96117070D01*
X82463709Y-96296291D01*
X82642930Y-96443374D01*
X82847403Y-96552667D01*
X83069268Y-96619969D01*
X83242188Y-96637000D01*
X83357812Y-96637000D01*
X83530732Y-96619969D01*
X83752597Y-96552667D01*
X83957070Y-96443374D01*
X84136291Y-96296291D01*
X84283374Y-96117070D01*
X84392667Y-95912597D01*
X84459969Y-95690732D01*
X84482694Y-95460000D01*
X84459969Y-95229268D01*
X84392667Y-95007403D01*
X84283374Y-94802930D01*
X84136291Y-94623709D01*
X83957070Y-94476626D01*
X83752597Y-94367333D01*
X83692115Y-94348986D01*
X83931252Y-94264157D01*
X84181355Y-94115178D01*
X84397588Y-93920269D01*
X84571641Y-93686920D01*
X84696825Y-93424099D01*
X84741476Y-93276890D01*
X84620155Y-93047000D01*
X83427000Y-93047000D01*
X83427000Y-93067000D01*
X83173000Y-93067000D01*
X83173000Y-93047000D01*
X81979845Y-93047000D01*
X81858524Y-93276890D01*
X54332000Y-93276890D01*
X54332000Y-92563110D01*
X81858524Y-92563110D01*
X81979845Y-92793000D01*
X83173000Y-92793000D01*
X83173000Y-91599186D01*
X83427000Y-91599186D01*
X83427000Y-92793000D01*
X84620155Y-92793000D01*
X84741476Y-92563110D01*
X84696825Y-92415901D01*
X84571641Y-92153080D01*
X84397588Y-91919731D01*
X84181355Y-91724822D01*
X83931252Y-91575843D01*
X83656891Y-91478519D01*
X83427000Y-91599186D01*
X83173000Y-91599186D01*
X82943109Y-91478519D01*
X82668748Y-91575843D01*
X82418645Y-91724822D01*
X82202412Y-91919731D01*
X82028359Y-92153080D01*
X81903175Y-92415901D01*
X81858524Y-92563110D01*
X54332000Y-92563110D01*
X54332000Y-87350000D01*
X87321418Y-87350000D01*
X87321418Y-89050000D01*
X87327732Y-89114103D01*
X87346430Y-89175743D01*
X87376794Y-89232550D01*
X87417657Y-89282343D01*
X87467450Y-89323206D01*
X87524257Y-89353570D01*
X87585897Y-89372268D01*
X87650000Y-89378582D01*
X89350000Y-89378582D01*
X89414103Y-89372268D01*
X89475743Y-89353570D01*
X89532550Y-89323206D01*
X89582343Y-89282343D01*
X89623206Y-89232550D01*
X89653570Y-89175743D01*
X89672268Y-89114103D01*
X89678582Y-89050000D01*
X89678582Y-87350000D01*
X89672268Y-87285897D01*
X89653570Y-87224257D01*
X89623206Y-87167450D01*
X89582343Y-87117657D01*
X89532550Y-87076794D01*
X89475743Y-87046430D01*
X89414103Y-87027732D01*
X89350000Y-87021418D01*
X87650000Y-87021418D01*
X87585897Y-87027732D01*
X87524257Y-87046430D01*
X87467450Y-87076794D01*
X87417657Y-87117657D01*
X87376794Y-87167450D01*
X87346430Y-87224257D01*
X87327732Y-87285897D01*
X87321418Y-87350000D01*
X54332000Y-87350000D01*
X54332000Y-85660000D01*
X87317306Y-85660000D01*
X87340031Y-85890732D01*
X87407333Y-86112597D01*
X87516626Y-86317070D01*
X87663709Y-86496291D01*
X87842930Y-86643374D01*
X88047403Y-86752667D01*
X88269268Y-86819969D01*
X88442188Y-86837000D01*
X88557812Y-86837000D01*
X88730732Y-86819969D01*
X88952597Y-86752667D01*
X89157070Y-86643374D01*
X89336291Y-86496291D01*
X89383927Y-86438246D01*
X97373000Y-86438246D01*
X97373000Y-86561754D01*
X97397095Y-86682889D01*
X97444360Y-86796996D01*
X97512977Y-86899689D01*
X97600311Y-86987023D01*
X97703004Y-87055640D01*
X97817111Y-87102905D01*
X97938246Y-87127000D01*
X98025367Y-87127000D01*
X98061623Y-87156755D01*
X98101273Y-87177948D01*
X98135804Y-87196405D01*
X98216293Y-87220822D01*
X98279022Y-87227000D01*
X98279032Y-87227000D01*
X98299999Y-87229065D01*
X98320966Y-87227000D01*
X106440288Y-87227000D01*
X106500311Y-87287023D01*
X106603004Y-87355640D01*
X106717111Y-87402905D01*
X106838246Y-87427000D01*
X106961754Y-87427000D01*
X107082889Y-87402905D01*
X107196996Y-87355640D01*
X107205436Y-87350000D01*
X150221418Y-87350000D01*
X150221418Y-89050000D01*
X150227732Y-89114103D01*
X150246430Y-89175743D01*
X150276794Y-89232550D01*
X150317657Y-89282343D01*
X150367450Y-89323206D01*
X150424257Y-89353570D01*
X150485897Y-89372268D01*
X150550000Y-89378582D01*
X152250000Y-89378582D01*
X152314103Y-89372268D01*
X152375743Y-89353570D01*
X152432550Y-89323206D01*
X152482343Y-89282343D01*
X152523206Y-89232550D01*
X152553570Y-89175743D01*
X152572268Y-89114103D01*
X152578582Y-89050000D01*
X152578582Y-87350000D01*
X152572268Y-87285897D01*
X152553570Y-87224257D01*
X152523206Y-87167450D01*
X152482343Y-87117657D01*
X152432550Y-87076794D01*
X152375743Y-87046430D01*
X152314103Y-87027732D01*
X152250000Y-87021418D01*
X150550000Y-87021418D01*
X150485897Y-87027732D01*
X150424257Y-87046430D01*
X150367450Y-87076794D01*
X150317657Y-87117657D01*
X150276794Y-87167450D01*
X150246430Y-87224257D01*
X150227732Y-87285897D01*
X150221418Y-87350000D01*
X107205436Y-87350000D01*
X107299689Y-87287023D01*
X107387023Y-87199689D01*
X107455640Y-87096996D01*
X107502905Y-86982889D01*
X107527000Y-86861754D01*
X107527000Y-86738246D01*
X107502905Y-86617111D01*
X107455640Y-86503004D01*
X107387023Y-86400311D01*
X107299689Y-86312977D01*
X107196996Y-86244360D01*
X107082889Y-86197095D01*
X106961754Y-86173000D01*
X106838246Y-86173000D01*
X106717111Y-86197095D01*
X106603004Y-86244360D01*
X106500311Y-86312977D01*
X106440288Y-86373000D01*
X98614022Y-86373000D01*
X98602905Y-86317111D01*
X98555640Y-86203004D01*
X98487023Y-86100311D01*
X98399689Y-86012977D01*
X98296996Y-85944360D01*
X98182889Y-85897095D01*
X98061754Y-85873000D01*
X97938246Y-85873000D01*
X97817111Y-85897095D01*
X97703004Y-85944360D01*
X97600311Y-86012977D01*
X97512977Y-86100311D01*
X97444360Y-86203004D01*
X97397095Y-86317111D01*
X97373000Y-86438246D01*
X89383927Y-86438246D01*
X89483374Y-86317070D01*
X89592667Y-86112597D01*
X89659969Y-85890732D01*
X89682694Y-85660000D01*
X150217306Y-85660000D01*
X150240031Y-85890732D01*
X150307333Y-86112597D01*
X150416626Y-86317070D01*
X150563709Y-86496291D01*
X150742930Y-86643374D01*
X150947403Y-86752667D01*
X151169268Y-86819969D01*
X151342188Y-86837000D01*
X151457812Y-86837000D01*
X151630732Y-86819969D01*
X151852597Y-86752667D01*
X152057070Y-86643374D01*
X152236291Y-86496291D01*
X152383374Y-86317070D01*
X152492667Y-86112597D01*
X152559969Y-85890732D01*
X152582694Y-85660000D01*
X152559969Y-85429268D01*
X152492667Y-85207403D01*
X152383374Y-85002930D01*
X152236291Y-84823709D01*
X152057070Y-84676626D01*
X151852597Y-84567333D01*
X151630732Y-84500031D01*
X151457812Y-84483000D01*
X151342188Y-84483000D01*
X151169268Y-84500031D01*
X150947403Y-84567333D01*
X150742930Y-84676626D01*
X150563709Y-84823709D01*
X150416626Y-85002930D01*
X150307333Y-85207403D01*
X150240031Y-85429268D01*
X150217306Y-85660000D01*
X89682694Y-85660000D01*
X89659969Y-85429268D01*
X89592667Y-85207403D01*
X89483374Y-85002930D01*
X89336291Y-84823709D01*
X89157070Y-84676626D01*
X88952597Y-84567333D01*
X88730732Y-84500031D01*
X88557812Y-84483000D01*
X88442188Y-84483000D01*
X88269268Y-84500031D01*
X88047403Y-84567333D01*
X87842930Y-84676626D01*
X87663709Y-84823709D01*
X87516626Y-85002930D01*
X87407333Y-85207403D01*
X87340031Y-85429268D01*
X87317306Y-85660000D01*
X54332000Y-85660000D01*
X54332000Y-77650000D01*
X109921418Y-77650000D01*
X109921418Y-79350000D01*
X109927732Y-79414103D01*
X109946430Y-79475743D01*
X109976794Y-79532550D01*
X110017657Y-79582343D01*
X110067450Y-79623206D01*
X110124257Y-79653570D01*
X110185897Y-79672268D01*
X110250000Y-79678582D01*
X111950000Y-79678582D01*
X112014103Y-79672268D01*
X112075743Y-79653570D01*
X112132550Y-79623206D01*
X112182343Y-79582343D01*
X112223206Y-79532550D01*
X112253570Y-79475743D01*
X112272268Y-79414103D01*
X112278582Y-79350000D01*
X112278582Y-77650000D01*
X115121418Y-77650000D01*
X115121418Y-79350000D01*
X115127732Y-79414103D01*
X115146430Y-79475743D01*
X115176794Y-79532550D01*
X115217657Y-79582343D01*
X115267450Y-79623206D01*
X115324257Y-79653570D01*
X115385897Y-79672268D01*
X115450000Y-79678582D01*
X117150000Y-79678582D01*
X117214103Y-79672268D01*
X117275743Y-79653570D01*
X117332550Y-79623206D01*
X117382343Y-79582343D01*
X117423206Y-79532550D01*
X117453570Y-79475743D01*
X117472268Y-79414103D01*
X117478582Y-79350000D01*
X117478582Y-77650000D01*
X121721418Y-77650000D01*
X121721418Y-79350000D01*
X121727732Y-79414103D01*
X121746430Y-79475743D01*
X121776794Y-79532550D01*
X121817657Y-79582343D01*
X121867450Y-79623206D01*
X121924257Y-79653570D01*
X121985897Y-79672268D01*
X122050000Y-79678582D01*
X123750000Y-79678582D01*
X123814103Y-79672268D01*
X123875743Y-79653570D01*
X123932550Y-79623206D01*
X123982343Y-79582343D01*
X124023206Y-79532550D01*
X124053570Y-79475743D01*
X124072268Y-79414103D01*
X124078582Y-79350000D01*
X124078582Y-77650000D01*
X128821418Y-77650000D01*
X128821418Y-79350000D01*
X128827732Y-79414103D01*
X128846430Y-79475743D01*
X128876794Y-79532550D01*
X128917657Y-79582343D01*
X128967450Y-79623206D01*
X129024257Y-79653570D01*
X129085897Y-79672268D01*
X129150000Y-79678582D01*
X130850000Y-79678582D01*
X130914103Y-79672268D01*
X130975743Y-79653570D01*
X131032550Y-79623206D01*
X131082343Y-79582343D01*
X131123206Y-79532550D01*
X131153570Y-79475743D01*
X131172268Y-79414103D01*
X131178582Y-79350000D01*
X131178582Y-77650000D01*
X137521418Y-77650000D01*
X137521418Y-79350000D01*
X137527732Y-79414103D01*
X137546430Y-79475743D01*
X137576794Y-79532550D01*
X137617657Y-79582343D01*
X137667450Y-79623206D01*
X137724257Y-79653570D01*
X137785897Y-79672268D01*
X137850000Y-79678582D01*
X139550000Y-79678582D01*
X139614103Y-79672268D01*
X139675743Y-79653570D01*
X139732550Y-79623206D01*
X139782343Y-79582343D01*
X139823206Y-79532550D01*
X139853570Y-79475743D01*
X139872268Y-79414103D01*
X139878582Y-79350000D01*
X139878582Y-77650000D01*
X141921418Y-77650000D01*
X141921418Y-79350000D01*
X141927732Y-79414103D01*
X141946430Y-79475743D01*
X141976794Y-79532550D01*
X142017657Y-79582343D01*
X142067450Y-79623206D01*
X142124257Y-79653570D01*
X142185897Y-79672268D01*
X142250000Y-79678582D01*
X143950000Y-79678582D01*
X144014103Y-79672268D01*
X144075743Y-79653570D01*
X144132550Y-79623206D01*
X144182343Y-79582343D01*
X144223206Y-79532550D01*
X144253570Y-79475743D01*
X144272268Y-79414103D01*
X144278582Y-79350000D01*
X144278582Y-77650000D01*
X144272268Y-77585897D01*
X144261379Y-77550000D01*
X146321418Y-77550000D01*
X146321418Y-79250000D01*
X146327732Y-79314103D01*
X146346430Y-79375743D01*
X146376794Y-79432550D01*
X146417657Y-79482343D01*
X146467450Y-79523206D01*
X146524257Y-79553570D01*
X146585897Y-79572268D01*
X146650000Y-79578582D01*
X148350000Y-79578582D01*
X148414103Y-79572268D01*
X148475743Y-79553570D01*
X148532550Y-79523206D01*
X148582343Y-79482343D01*
X148623206Y-79432550D01*
X148653570Y-79375743D01*
X148672268Y-79314103D01*
X148678582Y-79250000D01*
X148678582Y-77550000D01*
X148672268Y-77485897D01*
X148653570Y-77424257D01*
X148623206Y-77367450D01*
X148582343Y-77317657D01*
X148532550Y-77276794D01*
X148475743Y-77246430D01*
X148414103Y-77227732D01*
X148350000Y-77221418D01*
X146650000Y-77221418D01*
X146585897Y-77227732D01*
X146524257Y-77246430D01*
X146467450Y-77276794D01*
X146417657Y-77317657D01*
X146376794Y-77367450D01*
X146346430Y-77424257D01*
X146327732Y-77485897D01*
X146321418Y-77550000D01*
X144261379Y-77550000D01*
X144253570Y-77524257D01*
X144223206Y-77467450D01*
X144182343Y-77417657D01*
X144132550Y-77376794D01*
X144075743Y-77346430D01*
X144014103Y-77327732D01*
X143950000Y-77321418D01*
X142250000Y-77321418D01*
X142185897Y-77327732D01*
X142124257Y-77346430D01*
X142067450Y-77376794D01*
X142017657Y-77417657D01*
X141976794Y-77467450D01*
X141946430Y-77524257D01*
X141927732Y-77585897D01*
X141921418Y-77650000D01*
X139878582Y-77650000D01*
X139872268Y-77585897D01*
X139853570Y-77524257D01*
X139823206Y-77467450D01*
X139782343Y-77417657D01*
X139732550Y-77376794D01*
X139675743Y-77346430D01*
X139614103Y-77327732D01*
X139550000Y-77321418D01*
X137850000Y-77321418D01*
X137785897Y-77327732D01*
X137724257Y-77346430D01*
X137667450Y-77376794D01*
X137617657Y-77417657D01*
X137576794Y-77467450D01*
X137546430Y-77524257D01*
X137527732Y-77585897D01*
X137521418Y-77650000D01*
X131178582Y-77650000D01*
X131172268Y-77585897D01*
X131153570Y-77524257D01*
X131123206Y-77467450D01*
X131082343Y-77417657D01*
X131032550Y-77376794D01*
X130975743Y-77346430D01*
X130914103Y-77327732D01*
X130850000Y-77321418D01*
X129150000Y-77321418D01*
X129085897Y-77327732D01*
X129024257Y-77346430D01*
X128967450Y-77376794D01*
X128917657Y-77417657D01*
X128876794Y-77467450D01*
X128846430Y-77524257D01*
X128827732Y-77585897D01*
X128821418Y-77650000D01*
X124078582Y-77650000D01*
X124072268Y-77585897D01*
X124053570Y-77524257D01*
X124023206Y-77467450D01*
X123982343Y-77417657D01*
X123932550Y-77376794D01*
X123875743Y-77346430D01*
X123814103Y-77327732D01*
X123750000Y-77321418D01*
X122050000Y-77321418D01*
X121985897Y-77327732D01*
X121924257Y-77346430D01*
X121867450Y-77376794D01*
X121817657Y-77417657D01*
X121776794Y-77467450D01*
X121746430Y-77524257D01*
X121727732Y-77585897D01*
X121721418Y-77650000D01*
X117478582Y-77650000D01*
X117472268Y-77585897D01*
X117453570Y-77524257D01*
X117423206Y-77467450D01*
X117382343Y-77417657D01*
X117332550Y-77376794D01*
X117275743Y-77346430D01*
X117214103Y-77327732D01*
X117150000Y-77321418D01*
X115450000Y-77321418D01*
X115385897Y-77327732D01*
X115324257Y-77346430D01*
X115267450Y-77376794D01*
X115217657Y-77417657D01*
X115176794Y-77467450D01*
X115146430Y-77524257D01*
X115127732Y-77585897D01*
X115121418Y-77650000D01*
X112278582Y-77650000D01*
X112272268Y-77585897D01*
X112253570Y-77524257D01*
X112223206Y-77467450D01*
X112182343Y-77417657D01*
X112132550Y-77376794D01*
X112075743Y-77346430D01*
X112014103Y-77327732D01*
X111950000Y-77321418D01*
X110250000Y-77321418D01*
X110185897Y-77327732D01*
X110124257Y-77346430D01*
X110067450Y-77376794D01*
X110017657Y-77417657D01*
X109976794Y-77467450D01*
X109946430Y-77524257D01*
X109927732Y-77585897D01*
X109921418Y-77650000D01*
X54332000Y-77650000D01*
X54332000Y-76850000D01*
X85511928Y-76850000D01*
X85524188Y-76974482D01*
X85560498Y-77094180D01*
X85619463Y-77204494D01*
X85698815Y-77301185D01*
X85795506Y-77380537D01*
X85905820Y-77439502D01*
X86025518Y-77475812D01*
X86150000Y-77488072D01*
X86714250Y-77485000D01*
X86873000Y-77326250D01*
X86873000Y-76127000D01*
X85673750Y-76127000D01*
X85515000Y-76285750D01*
X85511928Y-76850000D01*
X54332000Y-76850000D01*
X54332000Y-76016233D01*
X54365328Y-75676327D01*
X54459330Y-75364979D01*
X54573636Y-75150000D01*
X85511928Y-75150000D01*
X85515000Y-75714250D01*
X85673750Y-75873000D01*
X86873000Y-75873000D01*
X86873000Y-74673750D01*
X87127000Y-74673750D01*
X87127000Y-75873000D01*
X87147000Y-75873000D01*
X87147000Y-76127000D01*
X87127000Y-76127000D01*
X87127000Y-77326250D01*
X87285750Y-77485000D01*
X87850000Y-77488072D01*
X87974482Y-77475812D01*
X88094180Y-77439502D01*
X88204494Y-77380537D01*
X88301185Y-77301185D01*
X88380537Y-77204494D01*
X88439502Y-77094180D01*
X88475812Y-76974482D01*
X88488072Y-76850000D01*
X88486305Y-76525509D01*
X88556626Y-76657070D01*
X88703709Y-76836291D01*
X88882930Y-76983374D01*
X89087403Y-77092667D01*
X89309268Y-77159969D01*
X89482188Y-77177000D01*
X89597812Y-77177000D01*
X89770732Y-77159969D01*
X89992597Y-77092667D01*
X90197070Y-76983374D01*
X90376291Y-76836291D01*
X90523374Y-76657070D01*
X90632667Y-76452597D01*
X90699969Y-76230732D01*
X90722694Y-76000000D01*
X90897306Y-76000000D01*
X90920031Y-76230732D01*
X90987333Y-76452597D01*
X91096626Y-76657070D01*
X91243709Y-76836291D01*
X91422930Y-76983374D01*
X91627403Y-77092667D01*
X91849268Y-77159969D01*
X92022188Y-77177000D01*
X92137812Y-77177000D01*
X92310732Y-77159969D01*
X92532597Y-77092667D01*
X92737070Y-76983374D01*
X92916291Y-76836291D01*
X93063374Y-76657070D01*
X93172667Y-76452597D01*
X93239969Y-76230732D01*
X93262694Y-76000000D01*
X93437306Y-76000000D01*
X93460031Y-76230732D01*
X93527333Y-76452597D01*
X93636626Y-76657070D01*
X93783709Y-76836291D01*
X93962930Y-76983374D01*
X94167403Y-77092667D01*
X94389268Y-77159969D01*
X94562188Y-77177000D01*
X94677812Y-77177000D01*
X94850732Y-77159969D01*
X95072597Y-77092667D01*
X95277070Y-76983374D01*
X95456291Y-76836291D01*
X95603374Y-76657070D01*
X95712667Y-76452597D01*
X95779969Y-76230732D01*
X95802694Y-76000000D01*
X95977306Y-76000000D01*
X96000031Y-76230732D01*
X96067333Y-76452597D01*
X96176626Y-76657070D01*
X96323709Y-76836291D01*
X96502930Y-76983374D01*
X96707403Y-77092667D01*
X96929268Y-77159969D01*
X97102188Y-77177000D01*
X97217812Y-77177000D01*
X97390732Y-77159969D01*
X97612597Y-77092667D01*
X97817070Y-76983374D01*
X97996291Y-76836291D01*
X98143374Y-76657070D01*
X98252667Y-76452597D01*
X98319969Y-76230732D01*
X98342694Y-76000000D01*
X98517306Y-76000000D01*
X98540031Y-76230732D01*
X98607333Y-76452597D01*
X98716626Y-76657070D01*
X98863709Y-76836291D01*
X99042930Y-76983374D01*
X99247403Y-77092667D01*
X99469268Y-77159969D01*
X99642188Y-77177000D01*
X99757812Y-77177000D01*
X99930732Y-77159969D01*
X100152597Y-77092667D01*
X100357070Y-76983374D01*
X100536291Y-76836291D01*
X100683374Y-76657070D01*
X100792667Y-76452597D01*
X100859969Y-76230732D01*
X100882694Y-76000000D01*
X101057306Y-76000000D01*
X101080031Y-76230732D01*
X101147333Y-76452597D01*
X101256626Y-76657070D01*
X101403709Y-76836291D01*
X101582930Y-76983374D01*
X101787403Y-77092667D01*
X102009268Y-77159969D01*
X102182188Y-77177000D01*
X102297812Y-77177000D01*
X102470732Y-77159969D01*
X102692597Y-77092667D01*
X102897070Y-76983374D01*
X103076291Y-76836291D01*
X103223374Y-76657070D01*
X103332667Y-76452597D01*
X103399969Y-76230732D01*
X103422694Y-76000000D01*
X103418755Y-75960000D01*
X109917306Y-75960000D01*
X109940031Y-76190732D01*
X110007333Y-76412597D01*
X110116626Y-76617070D01*
X110263709Y-76796291D01*
X110442930Y-76943374D01*
X110647403Y-77052667D01*
X110869268Y-77119969D01*
X111042188Y-77137000D01*
X111157812Y-77137000D01*
X111330732Y-77119969D01*
X111552597Y-77052667D01*
X111757070Y-76943374D01*
X111936291Y-76796291D01*
X112083374Y-76617070D01*
X112192667Y-76412597D01*
X112259969Y-76190732D01*
X112282694Y-75960000D01*
X115117306Y-75960000D01*
X115140031Y-76190732D01*
X115207333Y-76412597D01*
X115316626Y-76617070D01*
X115463709Y-76796291D01*
X115642930Y-76943374D01*
X115847403Y-77052667D01*
X116069268Y-77119969D01*
X116242188Y-77137000D01*
X116357812Y-77137000D01*
X116530732Y-77119969D01*
X116752597Y-77052667D01*
X116957070Y-76943374D01*
X117136291Y-76796291D01*
X117283374Y-76617070D01*
X117392667Y-76412597D01*
X117459969Y-76190732D01*
X117482694Y-75960000D01*
X121717306Y-75960000D01*
X121740031Y-76190732D01*
X121807333Y-76412597D01*
X121916626Y-76617070D01*
X122063709Y-76796291D01*
X122242930Y-76943374D01*
X122447403Y-77052667D01*
X122669268Y-77119969D01*
X122842188Y-77137000D01*
X122957812Y-77137000D01*
X123130732Y-77119969D01*
X123352597Y-77052667D01*
X123557070Y-76943374D01*
X123736291Y-76796291D01*
X123883374Y-76617070D01*
X123992667Y-76412597D01*
X124059969Y-76190732D01*
X124082694Y-75960000D01*
X128817306Y-75960000D01*
X128840031Y-76190732D01*
X128907333Y-76412597D01*
X129016626Y-76617070D01*
X129163709Y-76796291D01*
X129342930Y-76943374D01*
X129547403Y-77052667D01*
X129769268Y-77119969D01*
X129942188Y-77137000D01*
X130057812Y-77137000D01*
X130230732Y-77119969D01*
X130452597Y-77052667D01*
X130657070Y-76943374D01*
X130836291Y-76796291D01*
X130983374Y-76617070D01*
X131092667Y-76412597D01*
X131159969Y-76190732D01*
X131182694Y-75960000D01*
X137517306Y-75960000D01*
X137540031Y-76190732D01*
X137607333Y-76412597D01*
X137716626Y-76617070D01*
X137863709Y-76796291D01*
X138042930Y-76943374D01*
X138247403Y-77052667D01*
X138469268Y-77119969D01*
X138642188Y-77137000D01*
X138757812Y-77137000D01*
X138930732Y-77119969D01*
X139152597Y-77052667D01*
X139357070Y-76943374D01*
X139536291Y-76796291D01*
X139683374Y-76617070D01*
X139792667Y-76412597D01*
X139859969Y-76190732D01*
X139882694Y-75960000D01*
X141917306Y-75960000D01*
X141940031Y-76190732D01*
X142007333Y-76412597D01*
X142116626Y-76617070D01*
X142263709Y-76796291D01*
X142442930Y-76943374D01*
X142647403Y-77052667D01*
X142869268Y-77119969D01*
X143042188Y-77137000D01*
X143157812Y-77137000D01*
X143330732Y-77119969D01*
X143552597Y-77052667D01*
X143757070Y-76943374D01*
X143936291Y-76796291D01*
X144083374Y-76617070D01*
X144192667Y-76412597D01*
X144259969Y-76190732D01*
X144282694Y-75960000D01*
X144272845Y-75860000D01*
X146317306Y-75860000D01*
X146340031Y-76090732D01*
X146407333Y-76312597D01*
X146516626Y-76517070D01*
X146663709Y-76696291D01*
X146842930Y-76843374D01*
X147047403Y-76952667D01*
X147269268Y-77019969D01*
X147442188Y-77037000D01*
X147557812Y-77037000D01*
X147730732Y-77019969D01*
X147952597Y-76952667D01*
X148157070Y-76843374D01*
X148336291Y-76696291D01*
X148483374Y-76517070D01*
X148592667Y-76312597D01*
X148659969Y-76090732D01*
X148682694Y-75860000D01*
X148659969Y-75629268D01*
X148592667Y-75407403D01*
X148483374Y-75202930D01*
X148336291Y-75023709D01*
X148157070Y-74876626D01*
X147952597Y-74767333D01*
X147730732Y-74700031D01*
X147557812Y-74683000D01*
X147442188Y-74683000D01*
X147269268Y-74700031D01*
X147047403Y-74767333D01*
X146842930Y-74876626D01*
X146663709Y-75023709D01*
X146516626Y-75202930D01*
X146407333Y-75407403D01*
X146340031Y-75629268D01*
X146317306Y-75860000D01*
X144272845Y-75860000D01*
X144259969Y-75729268D01*
X144192667Y-75507403D01*
X144083374Y-75302930D01*
X143936291Y-75123709D01*
X143757070Y-74976626D01*
X143552597Y-74867333D01*
X143330732Y-74800031D01*
X143157812Y-74783000D01*
X143042188Y-74783000D01*
X142869268Y-74800031D01*
X142647403Y-74867333D01*
X142442930Y-74976626D01*
X142263709Y-75123709D01*
X142116626Y-75302930D01*
X142007333Y-75507403D01*
X141940031Y-75729268D01*
X141917306Y-75960000D01*
X139882694Y-75960000D01*
X139859969Y-75729268D01*
X139792667Y-75507403D01*
X139683374Y-75302930D01*
X139536291Y-75123709D01*
X139357070Y-74976626D01*
X139152597Y-74867333D01*
X138930732Y-74800031D01*
X138757812Y-74783000D01*
X138642188Y-74783000D01*
X138469268Y-74800031D01*
X138247403Y-74867333D01*
X138042930Y-74976626D01*
X137863709Y-75123709D01*
X137716626Y-75302930D01*
X137607333Y-75507403D01*
X137540031Y-75729268D01*
X137517306Y-75960000D01*
X131182694Y-75960000D01*
X131159969Y-75729268D01*
X131092667Y-75507403D01*
X130983374Y-75302930D01*
X130836291Y-75123709D01*
X130657070Y-74976626D01*
X130452597Y-74867333D01*
X130230732Y-74800031D01*
X130057812Y-74783000D01*
X129942188Y-74783000D01*
X129769268Y-74800031D01*
X129547403Y-74867333D01*
X129342930Y-74976626D01*
X129163709Y-75123709D01*
X129016626Y-75302930D01*
X128907333Y-75507403D01*
X128840031Y-75729268D01*
X128817306Y-75960000D01*
X124082694Y-75960000D01*
X124059969Y-75729268D01*
X123992667Y-75507403D01*
X123883374Y-75302930D01*
X123736291Y-75123709D01*
X123557070Y-74976626D01*
X123352597Y-74867333D01*
X123130732Y-74800031D01*
X122957812Y-74783000D01*
X122842188Y-74783000D01*
X122669268Y-74800031D01*
X122447403Y-74867333D01*
X122242930Y-74976626D01*
X122063709Y-75123709D01*
X121916626Y-75302930D01*
X121807333Y-75507403D01*
X121740031Y-75729268D01*
X121717306Y-75960000D01*
X117482694Y-75960000D01*
X117459969Y-75729268D01*
X117392667Y-75507403D01*
X117283374Y-75302930D01*
X117136291Y-75123709D01*
X116957070Y-74976626D01*
X116752597Y-74867333D01*
X116530732Y-74800031D01*
X116357812Y-74783000D01*
X116242188Y-74783000D01*
X116069268Y-74800031D01*
X115847403Y-74867333D01*
X115642930Y-74976626D01*
X115463709Y-75123709D01*
X115316626Y-75302930D01*
X115207333Y-75507403D01*
X115140031Y-75729268D01*
X115117306Y-75960000D01*
X112282694Y-75960000D01*
X112259969Y-75729268D01*
X112192667Y-75507403D01*
X112083374Y-75302930D01*
X111936291Y-75123709D01*
X111757070Y-74976626D01*
X111552597Y-74867333D01*
X111330732Y-74800031D01*
X111157812Y-74783000D01*
X111042188Y-74783000D01*
X110869268Y-74800031D01*
X110647403Y-74867333D01*
X110442930Y-74976626D01*
X110263709Y-75123709D01*
X110116626Y-75302930D01*
X110007333Y-75507403D01*
X109940031Y-75729268D01*
X109917306Y-75960000D01*
X103418755Y-75960000D01*
X103399969Y-75769268D01*
X103332667Y-75547403D01*
X103223374Y-75342930D01*
X103076291Y-75163709D01*
X102897070Y-75016626D01*
X102692597Y-74907333D01*
X102470732Y-74840031D01*
X102297812Y-74823000D01*
X102182188Y-74823000D01*
X102009268Y-74840031D01*
X101787403Y-74907333D01*
X101582930Y-75016626D01*
X101403709Y-75163709D01*
X101256626Y-75342930D01*
X101147333Y-75547403D01*
X101080031Y-75769268D01*
X101057306Y-76000000D01*
X100882694Y-76000000D01*
X100859969Y-75769268D01*
X100792667Y-75547403D01*
X100683374Y-75342930D01*
X100536291Y-75163709D01*
X100357070Y-75016626D01*
X100152597Y-74907333D01*
X99930732Y-74840031D01*
X99757812Y-74823000D01*
X99642188Y-74823000D01*
X99469268Y-74840031D01*
X99247403Y-74907333D01*
X99042930Y-75016626D01*
X98863709Y-75163709D01*
X98716626Y-75342930D01*
X98607333Y-75547403D01*
X98540031Y-75769268D01*
X98517306Y-76000000D01*
X98342694Y-76000000D01*
X98319969Y-75769268D01*
X98252667Y-75547403D01*
X98143374Y-75342930D01*
X97996291Y-75163709D01*
X97817070Y-75016626D01*
X97612597Y-74907333D01*
X97390732Y-74840031D01*
X97217812Y-74823000D01*
X97102188Y-74823000D01*
X96929268Y-74840031D01*
X96707403Y-74907333D01*
X96502930Y-75016626D01*
X96323709Y-75163709D01*
X96176626Y-75342930D01*
X96067333Y-75547403D01*
X96000031Y-75769268D01*
X95977306Y-76000000D01*
X95802694Y-76000000D01*
X95779969Y-75769268D01*
X95712667Y-75547403D01*
X95603374Y-75342930D01*
X95456291Y-75163709D01*
X95277070Y-75016626D01*
X95072597Y-74907333D01*
X94850732Y-74840031D01*
X94677812Y-74823000D01*
X94562188Y-74823000D01*
X94389268Y-74840031D01*
X94167403Y-74907333D01*
X93962930Y-75016626D01*
X93783709Y-75163709D01*
X93636626Y-75342930D01*
X93527333Y-75547403D01*
X93460031Y-75769268D01*
X93437306Y-76000000D01*
X93262694Y-76000000D01*
X93239969Y-75769268D01*
X93172667Y-75547403D01*
X93063374Y-75342930D01*
X92916291Y-75163709D01*
X92737070Y-75016626D01*
X92532597Y-74907333D01*
X92310732Y-74840031D01*
X92137812Y-74823000D01*
X92022188Y-74823000D01*
X91849268Y-74840031D01*
X91627403Y-74907333D01*
X91422930Y-75016626D01*
X91243709Y-75163709D01*
X91096626Y-75342930D01*
X90987333Y-75547403D01*
X90920031Y-75769268D01*
X90897306Y-76000000D01*
X90722694Y-76000000D01*
X90699969Y-75769268D01*
X90632667Y-75547403D01*
X90523374Y-75342930D01*
X90376291Y-75163709D01*
X90197070Y-75016626D01*
X89992597Y-74907333D01*
X89770732Y-74840031D01*
X89597812Y-74823000D01*
X89482188Y-74823000D01*
X89309268Y-74840031D01*
X89087403Y-74907333D01*
X88882930Y-75016626D01*
X88703709Y-75163709D01*
X88556626Y-75342930D01*
X88486305Y-75474491D01*
X88488072Y-75150000D01*
X88475812Y-75025518D01*
X88439502Y-74905820D01*
X88380537Y-74795506D01*
X88301185Y-74698815D01*
X88204494Y-74619463D01*
X88094180Y-74560498D01*
X87974482Y-74524188D01*
X87850000Y-74511928D01*
X87285750Y-74515000D01*
X87127000Y-74673750D01*
X86873000Y-74673750D01*
X86714250Y-74515000D01*
X86150000Y-74511928D01*
X86025518Y-74524188D01*
X85905820Y-74560498D01*
X85795506Y-74619463D01*
X85698815Y-74698815D01*
X85619463Y-74795506D01*
X85560498Y-74905820D01*
X85524188Y-75025518D01*
X85511928Y-75150000D01*
X54573636Y-75150000D01*
X54612013Y-75077824D01*
X54817566Y-74825793D01*
X55068157Y-74618484D01*
X55354241Y-74463800D01*
X55664925Y-74367628D01*
X56003900Y-74332000D01*
X150983767Y-74332000D01*
X151323673Y-74365328D01*
M02*
