G04 #@! TF.GenerationSoftware,KiCad,Pcbnew,(5.1.2)-2*
G04 #@! TF.CreationDate,2020-04-06T22:20:43-04:00*
G04 #@! TF.ProjectId,led_everled,6c65645f-6576-4657-926c-65642e6b6963,rev?*
G04 #@! TF.SameCoordinates,Original*
G04 #@! TF.FileFunction,Legend,Top*
G04 #@! TF.FilePolarity,Positive*
%FSLAX46Y46*%
G04 Gerber Fmt 4.6, Leading zero omitted, Abs format (unit mm)*
G04 Created by KiCad (PCBNEW (5.1.2)-2) date 2020-04-06 22:20:43*
%MOMM*%
%LPD*%
G04 APERTURE LIST*
%ADD10C,0.150000*%
%ADD11C,0.120000*%
G04 APERTURE END LIST*
D10*
X106811785Y-96627380D02*
X106335595Y-96627380D01*
X106335595Y-95627380D01*
X107287976Y-96627380D02*
X107192738Y-96579761D01*
X107145119Y-96532142D01*
X107097500Y-96436904D01*
X107097500Y-96151190D01*
X107145119Y-96055952D01*
X107192738Y-96008333D01*
X107287976Y-95960714D01*
X107430833Y-95960714D01*
X107526071Y-96008333D01*
X107573690Y-96055952D01*
X107621309Y-96151190D01*
X107621309Y-96436904D01*
X107573690Y-96532142D01*
X107526071Y-96579761D01*
X107430833Y-96627380D01*
X107287976Y-96627380D01*
X107954642Y-95960714D02*
X108145119Y-96627380D01*
X108335595Y-96151190D01*
X108526071Y-96627380D01*
X108716547Y-95960714D01*
X109573690Y-96627380D02*
X109097500Y-96627380D01*
X109097500Y-95627380D01*
X109907023Y-96103571D02*
X110240357Y-96103571D01*
X110383214Y-96627380D02*
X109907023Y-96627380D01*
X109907023Y-95627380D01*
X110383214Y-95627380D01*
X110811785Y-96627380D02*
X110811785Y-95627380D01*
X111049880Y-95627380D01*
X111192738Y-95675000D01*
X111287976Y-95770238D01*
X111335595Y-95865476D01*
X111383214Y-96055952D01*
X111383214Y-96198809D01*
X111335595Y-96389285D01*
X111287976Y-96484523D01*
X111192738Y-96579761D01*
X111049880Y-96627380D01*
X110811785Y-96627380D01*
X112430833Y-95627380D02*
X113002261Y-95627380D01*
X112716547Y-96627380D02*
X112716547Y-95627380D01*
X113716547Y-96579761D02*
X113621309Y-96627380D01*
X113430833Y-96627380D01*
X113335595Y-96579761D01*
X113287976Y-96484523D01*
X113287976Y-96103571D01*
X113335595Y-96008333D01*
X113430833Y-95960714D01*
X113621309Y-95960714D01*
X113716547Y-96008333D01*
X113764166Y-96103571D01*
X113764166Y-96198809D01*
X113287976Y-96294047D01*
X114145119Y-96579761D02*
X114240357Y-96627380D01*
X114430833Y-96627380D01*
X114526071Y-96579761D01*
X114573690Y-96484523D01*
X114573690Y-96436904D01*
X114526071Y-96341666D01*
X114430833Y-96294047D01*
X114287976Y-96294047D01*
X114192738Y-96246428D01*
X114145119Y-96151190D01*
X114145119Y-96103571D01*
X114192738Y-96008333D01*
X114287976Y-95960714D01*
X114430833Y-95960714D01*
X114526071Y-96008333D01*
X114859404Y-95960714D02*
X115240357Y-95960714D01*
X115002261Y-95627380D02*
X115002261Y-96484523D01*
X115049880Y-96579761D01*
X115145119Y-96627380D01*
X115240357Y-96627380D01*
X116668928Y-96103571D02*
X116811785Y-96151190D01*
X116859404Y-96198809D01*
X116907023Y-96294047D01*
X116907023Y-96436904D01*
X116859404Y-96532142D01*
X116811785Y-96579761D01*
X116716547Y-96627380D01*
X116335595Y-96627380D01*
X116335595Y-95627380D01*
X116668928Y-95627380D01*
X116764166Y-95675000D01*
X116811785Y-95722619D01*
X116859404Y-95817857D01*
X116859404Y-95913095D01*
X116811785Y-96008333D01*
X116764166Y-96055952D01*
X116668928Y-96103571D01*
X116335595Y-96103571D01*
X117478452Y-96627380D02*
X117383214Y-96579761D01*
X117335595Y-96532142D01*
X117287976Y-96436904D01*
X117287976Y-96151190D01*
X117335595Y-96055952D01*
X117383214Y-96008333D01*
X117478452Y-95960714D01*
X117621309Y-95960714D01*
X117716547Y-96008333D01*
X117764166Y-96055952D01*
X117811785Y-96151190D01*
X117811785Y-96436904D01*
X117764166Y-96532142D01*
X117716547Y-96579761D01*
X117621309Y-96627380D01*
X117478452Y-96627380D01*
X118668928Y-96627380D02*
X118668928Y-96103571D01*
X118621309Y-96008333D01*
X118526071Y-95960714D01*
X118335595Y-95960714D01*
X118240357Y-96008333D01*
X118668928Y-96579761D02*
X118573690Y-96627380D01*
X118335595Y-96627380D01*
X118240357Y-96579761D01*
X118192738Y-96484523D01*
X118192738Y-96389285D01*
X118240357Y-96294047D01*
X118335595Y-96246428D01*
X118573690Y-96246428D01*
X118668928Y-96198809D01*
X119145119Y-96627380D02*
X119145119Y-95960714D01*
X119145119Y-96151190D02*
X119192738Y-96055952D01*
X119240357Y-96008333D01*
X119335595Y-95960714D01*
X119430833Y-95960714D01*
X120192738Y-96627380D02*
X120192738Y-95627380D01*
X120192738Y-96579761D02*
X120097500Y-96627380D01*
X119907023Y-96627380D01*
X119811785Y-96579761D01*
X119764166Y-96532142D01*
X119716547Y-96436904D01*
X119716547Y-96151190D01*
X119764166Y-96055952D01*
X119811785Y-96008333D01*
X119907023Y-95960714D01*
X120097500Y-95960714D01*
X120192738Y-96008333D01*
X121287976Y-95627380D02*
X121621309Y-96627380D01*
X121954642Y-95627380D01*
X122811785Y-96627380D02*
X122240357Y-96627380D01*
X122526071Y-96627380D02*
X122526071Y-95627380D01*
X122430833Y-95770238D01*
X122335595Y-95865476D01*
X122240357Y-95913095D01*
X106526071Y-97277380D02*
X106621309Y-97277380D01*
X106716547Y-97325000D01*
X106764166Y-97372619D01*
X106811785Y-97467857D01*
X106859404Y-97658333D01*
X106859404Y-97896428D01*
X106811785Y-98086904D01*
X106764166Y-98182142D01*
X106716547Y-98229761D01*
X106621309Y-98277380D01*
X106526071Y-98277380D01*
X106430833Y-98229761D01*
X106383214Y-98182142D01*
X106335595Y-98086904D01*
X106287976Y-97896428D01*
X106287976Y-97658333D01*
X106335595Y-97467857D01*
X106383214Y-97372619D01*
X106430833Y-97325000D01*
X106526071Y-97277380D01*
X107716547Y-97610714D02*
X107716547Y-98277380D01*
X107478452Y-97229761D02*
X107240357Y-97944047D01*
X107859404Y-97944047D01*
X108430833Y-97277380D02*
X108526071Y-97277380D01*
X108621309Y-97325000D01*
X108668928Y-97372619D01*
X108716547Y-97467857D01*
X108764166Y-97658333D01*
X108764166Y-97896428D01*
X108716547Y-98086904D01*
X108668928Y-98182142D01*
X108621309Y-98229761D01*
X108526071Y-98277380D01*
X108430833Y-98277380D01*
X108335595Y-98229761D01*
X108287976Y-98182142D01*
X108240357Y-98086904D01*
X108192738Y-97896428D01*
X108192738Y-97658333D01*
X108240357Y-97467857D01*
X108287976Y-97372619D01*
X108335595Y-97325000D01*
X108430833Y-97277380D01*
X109668928Y-97277380D02*
X109192738Y-97277380D01*
X109145119Y-97753571D01*
X109192738Y-97705952D01*
X109287976Y-97658333D01*
X109526071Y-97658333D01*
X109621309Y-97705952D01*
X109668928Y-97753571D01*
X109716547Y-97848809D01*
X109716547Y-98086904D01*
X109668928Y-98182142D01*
X109621309Y-98229761D01*
X109526071Y-98277380D01*
X109287976Y-98277380D01*
X109192738Y-98229761D01*
X109145119Y-98182142D01*
X110097500Y-97372619D02*
X110145119Y-97325000D01*
X110240357Y-97277380D01*
X110478452Y-97277380D01*
X110573690Y-97325000D01*
X110621309Y-97372619D01*
X110668928Y-97467857D01*
X110668928Y-97563095D01*
X110621309Y-97705952D01*
X110049880Y-98277380D01*
X110668928Y-98277380D01*
X111287976Y-97277380D02*
X111383214Y-97277380D01*
X111478452Y-97325000D01*
X111526071Y-97372619D01*
X111573690Y-97467857D01*
X111621309Y-97658333D01*
X111621309Y-97896428D01*
X111573690Y-98086904D01*
X111526071Y-98182142D01*
X111478452Y-98229761D01*
X111383214Y-98277380D01*
X111287976Y-98277380D01*
X111192738Y-98229761D01*
X111145119Y-98182142D01*
X111097500Y-98086904D01*
X111049880Y-97896428D01*
X111049880Y-97658333D01*
X111097500Y-97467857D01*
X111145119Y-97372619D01*
X111192738Y-97325000D01*
X111287976Y-97277380D01*
X112002261Y-97372619D02*
X112049880Y-97325000D01*
X112145119Y-97277380D01*
X112383214Y-97277380D01*
X112478452Y-97325000D01*
X112526071Y-97372619D01*
X112573690Y-97467857D01*
X112573690Y-97563095D01*
X112526071Y-97705952D01*
X111954642Y-98277380D01*
X112573690Y-98277380D01*
X113192738Y-97277380D02*
X113287976Y-97277380D01*
X113383214Y-97325000D01*
X113430833Y-97372619D01*
X113478452Y-97467857D01*
X113526071Y-97658333D01*
X113526071Y-97896428D01*
X113478452Y-98086904D01*
X113430833Y-98182142D01*
X113383214Y-98229761D01*
X113287976Y-98277380D01*
X113192738Y-98277380D01*
X113097500Y-98229761D01*
X113049880Y-98182142D01*
X113002261Y-98086904D01*
X112954642Y-97896428D01*
X112954642Y-97658333D01*
X113002261Y-97467857D01*
X113049880Y-97372619D01*
X113097500Y-97325000D01*
X113192738Y-97277380D01*
D11*
X139094000Y-95255000D02*
X139094000Y-90429000D01*
X136173000Y-95255000D02*
X139094000Y-95255000D01*
X136173000Y-91445000D02*
X136173000Y-95255000D01*
X140600000Y-87000000D02*
G75*
G03X140600000Y-87000000I-4300000J0D01*
G01*
X128415000Y-85400000D02*
X128415000Y-89285000D01*
X128415000Y-89285000D02*
X131585000Y-89285000D01*
X131585000Y-89285000D02*
X131585000Y-85400000D01*
X141300000Y-88800000D02*
X141300000Y-85200000D01*
X144900000Y-85200000D02*
X144900000Y-88800000D01*
X144900000Y-88800000D02*
X141300000Y-88800000D01*
X149300000Y-88800000D02*
X145700000Y-88800000D01*
X149300000Y-85200000D02*
X149300000Y-88800000D01*
X145700000Y-88800000D02*
X145700000Y-85200000D01*
X140030000Y-79830000D02*
X138700000Y-79830000D01*
X140030000Y-78500000D02*
X140030000Y-79830000D01*
X140030000Y-77230000D02*
X137370000Y-77230000D01*
X137370000Y-77230000D02*
X137370000Y-74630000D01*
X140030000Y-77230000D02*
X140030000Y-74630000D01*
X140030000Y-74630000D02*
X137370000Y-74630000D01*
X131330000Y-79830000D02*
X130000000Y-79830000D01*
X131330000Y-78500000D02*
X131330000Y-79830000D01*
X131330000Y-77230000D02*
X128670000Y-77230000D01*
X128670000Y-77230000D02*
X128670000Y-74630000D01*
X131330000Y-77230000D02*
X131330000Y-74630000D01*
X131330000Y-74630000D02*
X128670000Y-74630000D01*
X144430000Y-74630000D02*
X141770000Y-74630000D01*
X144430000Y-77230000D02*
X144430000Y-74630000D01*
X141770000Y-77230000D02*
X141770000Y-74630000D01*
X144430000Y-77230000D02*
X141770000Y-77230000D01*
X144430000Y-78500000D02*
X144430000Y-79830000D01*
X144430000Y-79830000D02*
X143100000Y-79830000D01*
X148830000Y-74530000D02*
X146170000Y-74530000D01*
X148830000Y-77130000D02*
X148830000Y-74530000D01*
X146170000Y-77130000D02*
X146170000Y-74530000D01*
X148830000Y-77130000D02*
X146170000Y-77130000D01*
X148830000Y-78400000D02*
X148830000Y-79730000D01*
X148830000Y-79730000D02*
X147500000Y-79730000D01*
X112430000Y-74630000D02*
X109770000Y-74630000D01*
X112430000Y-77230000D02*
X112430000Y-74630000D01*
X109770000Y-77230000D02*
X109770000Y-74630000D01*
X112430000Y-77230000D02*
X109770000Y-77230000D01*
X112430000Y-78500000D02*
X112430000Y-79830000D01*
X112430000Y-79830000D02*
X111100000Y-79830000D01*
X117630000Y-79830000D02*
X116300000Y-79830000D01*
X117630000Y-78500000D02*
X117630000Y-79830000D01*
X117630000Y-77230000D02*
X114970000Y-77230000D01*
X114970000Y-77230000D02*
X114970000Y-74630000D01*
X117630000Y-77230000D02*
X117630000Y-74630000D01*
X117630000Y-74630000D02*
X114970000Y-74630000D01*
X124230000Y-74630000D02*
X121570000Y-74630000D01*
X124230000Y-77230000D02*
X124230000Y-74630000D01*
X121570000Y-77230000D02*
X121570000Y-74630000D01*
X124230000Y-77230000D02*
X121570000Y-77230000D01*
X124230000Y-78500000D02*
X124230000Y-79830000D01*
X124230000Y-79830000D02*
X122900000Y-79830000D01*
X119700000Y-90400000D02*
X120900000Y-90400000D01*
X119700000Y-90400000D02*
X119700000Y-89000000D01*
X119700000Y-83600000D02*
X119700000Y-85000000D01*
X119700000Y-83600000D02*
X120900000Y-83600000D01*
X126100000Y-83600000D02*
X124900000Y-83600000D01*
X126100000Y-90400000D02*
X124900000Y-90400000D01*
X126100000Y-83600000D02*
X126100000Y-85000000D01*
X126100000Y-90400000D02*
X126100000Y-89000000D01*
X109740000Y-87602064D02*
X109740000Y-86397936D01*
X112460000Y-87602064D02*
X112460000Y-86397936D01*
X119500000Y-90400000D02*
X119500000Y-89000000D01*
X119500000Y-83600000D02*
X119500000Y-85000000D01*
X119500000Y-90400000D02*
X118300000Y-90400000D01*
X119500000Y-83600000D02*
X118300000Y-83600000D01*
X113100000Y-83600000D02*
X114300000Y-83600000D01*
X113100000Y-83600000D02*
X113100000Y-85000000D01*
X113100000Y-90400000D02*
X113100000Y-89000000D01*
X113100000Y-90400000D02*
X114300000Y-90400000D01*
X109360000Y-83080000D02*
X109360000Y-82150000D01*
X109360000Y-79920000D02*
X109360000Y-80850000D01*
X109360000Y-79920000D02*
X107200000Y-79920000D01*
X109360000Y-83080000D02*
X107900000Y-83080000D01*
X106310000Y-81241422D02*
X106310000Y-81758578D01*
X104890000Y-81241422D02*
X104890000Y-81758578D01*
X78145370Y-78888211D02*
G75*
G02X80992000Y-83390000I-7845370J-8111789D01*
G01*
X62454630Y-95111789D02*
G75*
G02X59608000Y-90610000I7845370J8111789D01*
G01*
X62454630Y-78888211D02*
G75*
G03X59608000Y-83390000I7845370J-8111789D01*
G01*
X78145370Y-95111789D02*
G75*
G03X80992000Y-90610000I-7845370J8111789D01*
G01*
X84610000Y-85100000D02*
X84610000Y-83390000D01*
X80992000Y-83390000D02*
X84610000Y-83390000D01*
X74160000Y-78890000D02*
X78147300Y-78890000D01*
X71960000Y-81090000D02*
X74160000Y-78890000D01*
X68640000Y-81090000D02*
X71960000Y-81090000D01*
X68640000Y-81090000D02*
X66440000Y-78890000D01*
X62452700Y-78890000D02*
X66440000Y-78890000D01*
X55990000Y-85100000D02*
X55990000Y-83390000D01*
X55990000Y-83390000D02*
X59608000Y-83390000D01*
X59608000Y-90610000D02*
X55990000Y-90610000D01*
X55990000Y-88900000D02*
X55990000Y-90610000D01*
X78147300Y-95110000D02*
X62452700Y-95110000D01*
X84610000Y-88900000D02*
X84610000Y-90610000D01*
X84610000Y-90610000D02*
X80992000Y-90610000D01*
X105258578Y-92710000D02*
X104741422Y-92710000D01*
X105258578Y-91290000D02*
X104741422Y-91290000D01*
X85670000Y-99330000D02*
X85670000Y-98000000D01*
X87000000Y-99330000D02*
X85670000Y-99330000D01*
X88270000Y-99330000D02*
X88270000Y-96670000D01*
X88270000Y-96670000D02*
X103570000Y-96670000D01*
X88270000Y-99330000D02*
X103570000Y-99330000D01*
X103570000Y-99330000D02*
X103570000Y-96670000D01*
X103570000Y-77330000D02*
X103570000Y-74670000D01*
X88270000Y-77330000D02*
X103570000Y-77330000D01*
X88270000Y-74670000D02*
X103570000Y-74670000D01*
X88270000Y-77330000D02*
X88270000Y-74670000D01*
X87000000Y-77330000D02*
X85670000Y-77330000D01*
X85670000Y-77330000D02*
X85670000Y-76000000D01*
X89830000Y-84330000D02*
X87170000Y-84330000D01*
X89830000Y-86930000D02*
X89830000Y-84330000D01*
X87170000Y-86930000D02*
X87170000Y-84330000D01*
X89830000Y-86930000D02*
X87170000Y-86930000D01*
X89830000Y-88200000D02*
X89830000Y-89530000D01*
X89830000Y-89530000D02*
X88500000Y-89530000D01*
X104760000Y-89580000D02*
X104760000Y-88650000D01*
X104760000Y-86420000D02*
X104760000Y-87350000D01*
X104760000Y-86420000D02*
X102600000Y-86420000D01*
X104760000Y-89580000D02*
X103300000Y-89580000D01*
X109321078Y-91290000D02*
X108803922Y-91290000D01*
X109321078Y-92710000D02*
X108803922Y-92710000D01*
X89058578Y-91610000D02*
X88541422Y-91610000D01*
X89058578Y-90190000D02*
X88541422Y-90190000D01*
X105800000Y-85700000D02*
X106000000Y-85700000D01*
X108100000Y-85700000D02*
X108100000Y-85300000D01*
X108200000Y-85700000D02*
X108100000Y-85700000D01*
X108200000Y-88300000D02*
X108200000Y-85700000D01*
X108000000Y-88300000D02*
X108200000Y-88300000D01*
X105800000Y-88300000D02*
X106000000Y-88300000D01*
X105800000Y-85700000D02*
X105800000Y-88300000D01*
X99435000Y-87000000D02*
X99435000Y-85050000D01*
X99435000Y-87000000D02*
X99435000Y-88950000D01*
X90565000Y-87000000D02*
X90565000Y-85050000D01*
X90565000Y-87000000D02*
X90565000Y-90450000D01*
X89058578Y-93610000D02*
X88541422Y-93610000D01*
X89058578Y-92190000D02*
X88541422Y-92190000D01*
X89058578Y-94190000D02*
X88541422Y-94190000D01*
X89058578Y-95610000D02*
X88541422Y-95610000D01*
X152730000Y-84330000D02*
X150070000Y-84330000D01*
X152730000Y-86930000D02*
X152730000Y-84330000D01*
X150070000Y-86930000D02*
X150070000Y-84330000D01*
X152730000Y-86930000D02*
X150070000Y-86930000D01*
X152730000Y-88200000D02*
X152730000Y-89530000D01*
X152730000Y-89530000D02*
X151400000Y-89530000D01*
X84630000Y-91590000D02*
X81970000Y-91590000D01*
X84630000Y-96730000D02*
X84630000Y-91590000D01*
X81970000Y-96730000D02*
X81970000Y-91590000D01*
X84630000Y-96730000D02*
X81970000Y-96730000D01*
X84630000Y-98000000D02*
X84630000Y-99330000D01*
X84630000Y-99330000D02*
X83300000Y-99330000D01*
X85741422Y-80290000D02*
X86258578Y-80290000D01*
X85741422Y-81710000D02*
X86258578Y-81710000D01*
D10*
X139261904Y-83552380D02*
X139261904Y-82552380D01*
X139500000Y-82552380D01*
X139642857Y-82600000D01*
X139738095Y-82695238D01*
X139785714Y-82790476D01*
X139833333Y-82980952D01*
X139833333Y-83123809D01*
X139785714Y-83314285D01*
X139738095Y-83409523D01*
X139642857Y-83504761D01*
X139500000Y-83552380D01*
X139261904Y-83552380D01*
X140785714Y-83552380D02*
X140214285Y-83552380D01*
X140500000Y-83552380D02*
X140500000Y-82552380D01*
X140404761Y-82695238D01*
X140309523Y-82790476D01*
X140214285Y-82838095D01*
X130061904Y-84352380D02*
X130061904Y-83352380D01*
X130300000Y-83352380D01*
X130442857Y-83400000D01*
X130538095Y-83495238D01*
X130585714Y-83590476D01*
X130633333Y-83780952D01*
X130633333Y-83923809D01*
X130585714Y-84114285D01*
X130538095Y-84209523D01*
X130442857Y-84304761D01*
X130300000Y-84352380D01*
X130061904Y-84352380D01*
X131014285Y-83447619D02*
X131061904Y-83400000D01*
X131157142Y-83352380D01*
X131395238Y-83352380D01*
X131490476Y-83400000D01*
X131538095Y-83447619D01*
X131585714Y-83542857D01*
X131585714Y-83638095D01*
X131538095Y-83780952D01*
X130966666Y-84352380D01*
X131585714Y-84352380D01*
X143361904Y-84452380D02*
X143361904Y-83452380D01*
X143600000Y-83452380D01*
X143742857Y-83500000D01*
X143838095Y-83595238D01*
X143885714Y-83690476D01*
X143933333Y-83880952D01*
X143933333Y-84023809D01*
X143885714Y-84214285D01*
X143838095Y-84309523D01*
X143742857Y-84404761D01*
X143600000Y-84452380D01*
X143361904Y-84452380D01*
X144266666Y-83452380D02*
X144885714Y-83452380D01*
X144552380Y-83833333D01*
X144695238Y-83833333D01*
X144790476Y-83880952D01*
X144838095Y-83928571D01*
X144885714Y-84023809D01*
X144885714Y-84261904D01*
X144838095Y-84357142D01*
X144790476Y-84404761D01*
X144695238Y-84452380D01*
X144409523Y-84452380D01*
X144314285Y-84404761D01*
X144266666Y-84357142D01*
X147761904Y-84452380D02*
X147761904Y-83452380D01*
X148000000Y-83452380D01*
X148142857Y-83500000D01*
X148238095Y-83595238D01*
X148285714Y-83690476D01*
X148333333Y-83880952D01*
X148333333Y-84023809D01*
X148285714Y-84214285D01*
X148238095Y-84309523D01*
X148142857Y-84404761D01*
X148000000Y-84452380D01*
X147761904Y-84452380D01*
X149190476Y-83785714D02*
X149190476Y-84452380D01*
X148952380Y-83404761D02*
X148714285Y-84119047D01*
X149333333Y-84119047D01*
X125033333Y-83252380D02*
X124557142Y-83252380D01*
X124557142Y-82252380D01*
X125890476Y-83252380D02*
X125319047Y-83252380D01*
X125604761Y-83252380D02*
X125604761Y-82252380D01*
X125509523Y-82395238D01*
X125414285Y-82490476D01*
X125319047Y-82538095D01*
X118433333Y-83252380D02*
X117957142Y-83252380D01*
X117957142Y-82252380D01*
X119242857Y-82252380D02*
X118766666Y-82252380D01*
X118719047Y-82728571D01*
X118766666Y-82680952D01*
X118861904Y-82633333D01*
X119100000Y-82633333D01*
X119195238Y-82680952D01*
X119242857Y-82728571D01*
X119290476Y-82823809D01*
X119290476Y-83061904D01*
X119242857Y-83157142D01*
X119195238Y-83204761D01*
X119100000Y-83252380D01*
X118861904Y-83252380D01*
X118766666Y-83204761D01*
X118719047Y-83157142D01*
X109447619Y-78795238D02*
X109400000Y-78890476D01*
X109304761Y-78985714D01*
X109161904Y-79128571D01*
X109114285Y-79223809D01*
X109114285Y-79319047D01*
X109352380Y-79271428D02*
X109304761Y-79366666D01*
X109209523Y-79461904D01*
X109019047Y-79509523D01*
X108685714Y-79509523D01*
X108495238Y-79461904D01*
X108400000Y-79366666D01*
X108352380Y-79271428D01*
X108352380Y-79080952D01*
X108400000Y-78985714D01*
X108495238Y-78890476D01*
X108685714Y-78842857D01*
X109019047Y-78842857D01*
X109209523Y-78890476D01*
X109304761Y-78985714D01*
X109352380Y-79080952D01*
X109352380Y-79271428D01*
X109352380Y-77890476D02*
X109352380Y-78461904D01*
X109352380Y-78176190D02*
X108352380Y-78176190D01*
X108495238Y-78271428D01*
X108590476Y-78366666D01*
X108638095Y-78461904D01*
X104352380Y-82566666D02*
X103876190Y-82900000D01*
X104352380Y-83138095D02*
X103352380Y-83138095D01*
X103352380Y-82757142D01*
X103400000Y-82661904D01*
X103447619Y-82614285D01*
X103542857Y-82566666D01*
X103685714Y-82566666D01*
X103780952Y-82614285D01*
X103828571Y-82661904D01*
X103876190Y-82757142D01*
X103876190Y-83138095D01*
X104352380Y-81614285D02*
X104352380Y-82185714D01*
X104352380Y-81900000D02*
X103352380Y-81900000D01*
X103495238Y-81995238D01*
X103590476Y-82090476D01*
X103638095Y-82185714D01*
X69514285Y-79308571D02*
X69657142Y-79356190D01*
X69704761Y-79403809D01*
X69752380Y-79499047D01*
X69752380Y-79641904D01*
X69704761Y-79737142D01*
X69657142Y-79784761D01*
X69561904Y-79832380D01*
X69180952Y-79832380D01*
X69180952Y-78832380D01*
X69514285Y-78832380D01*
X69609523Y-78880000D01*
X69657142Y-78927619D01*
X69704761Y-79022857D01*
X69704761Y-79118095D01*
X69657142Y-79213333D01*
X69609523Y-79260952D01*
X69514285Y-79308571D01*
X69180952Y-79308571D01*
X70038095Y-78832380D02*
X70609523Y-78832380D01*
X70323809Y-79832380D02*
X70323809Y-78832380D01*
X71466666Y-79832380D02*
X70895238Y-79832380D01*
X71180952Y-79832380D02*
X71180952Y-78832380D01*
X71085714Y-78975238D01*
X70990476Y-79070476D01*
X70895238Y-79118095D01*
X104833333Y-94007142D02*
X104785714Y-94054761D01*
X104642857Y-94102380D01*
X104547619Y-94102380D01*
X104404761Y-94054761D01*
X104309523Y-93959523D01*
X104261904Y-93864285D01*
X104214285Y-93673809D01*
X104214285Y-93530952D01*
X104261904Y-93340476D01*
X104309523Y-93245238D01*
X104404761Y-93150000D01*
X104547619Y-93102380D01*
X104642857Y-93102380D01*
X104785714Y-93150000D01*
X104833333Y-93197619D01*
X105785714Y-94102380D02*
X105214285Y-94102380D01*
X105500000Y-94102380D02*
X105500000Y-93102380D01*
X105404761Y-93245238D01*
X105309523Y-93340476D01*
X105214285Y-93388095D01*
X103904761Y-86047619D02*
X103809523Y-86000000D01*
X103714285Y-85904761D01*
X103571428Y-85761904D01*
X103476190Y-85714285D01*
X103380952Y-85714285D01*
X103428571Y-85952380D02*
X103333333Y-85904761D01*
X103238095Y-85809523D01*
X103190476Y-85619047D01*
X103190476Y-85285714D01*
X103238095Y-85095238D01*
X103333333Y-85000000D01*
X103428571Y-84952380D01*
X103619047Y-84952380D01*
X103714285Y-85000000D01*
X103809523Y-85095238D01*
X103857142Y-85285714D01*
X103857142Y-85619047D01*
X103809523Y-85809523D01*
X103714285Y-85904761D01*
X103619047Y-85952380D01*
X103428571Y-85952380D01*
X104238095Y-85047619D02*
X104285714Y-85000000D01*
X104380952Y-84952380D01*
X104619047Y-84952380D01*
X104714285Y-85000000D01*
X104761904Y-85047619D01*
X104809523Y-85142857D01*
X104809523Y-85238095D01*
X104761904Y-85380952D01*
X104190476Y-85952380D01*
X104809523Y-85952380D01*
X108895833Y-94102380D02*
X108562500Y-93626190D01*
X108324404Y-94102380D02*
X108324404Y-93102380D01*
X108705357Y-93102380D01*
X108800595Y-93150000D01*
X108848214Y-93197619D01*
X108895833Y-93292857D01*
X108895833Y-93435714D01*
X108848214Y-93530952D01*
X108800595Y-93578571D01*
X108705357Y-93626190D01*
X108324404Y-93626190D01*
X109276785Y-93197619D02*
X109324404Y-93150000D01*
X109419642Y-93102380D01*
X109657738Y-93102380D01*
X109752976Y-93150000D01*
X109800595Y-93197619D01*
X109848214Y-93292857D01*
X109848214Y-93388095D01*
X109800595Y-93530952D01*
X109229166Y-94102380D01*
X109848214Y-94102380D01*
X88633333Y-89352380D02*
X88300000Y-88876190D01*
X88061904Y-89352380D02*
X88061904Y-88352380D01*
X88442857Y-88352380D01*
X88538095Y-88400000D01*
X88585714Y-88447619D01*
X88633333Y-88542857D01*
X88633333Y-88685714D01*
X88585714Y-88780952D01*
X88538095Y-88828571D01*
X88442857Y-88876190D01*
X88061904Y-88876190D01*
X88966666Y-88352380D02*
X89585714Y-88352380D01*
X89252380Y-88733333D01*
X89395238Y-88733333D01*
X89490476Y-88780952D01*
X89538095Y-88828571D01*
X89585714Y-88923809D01*
X89585714Y-89161904D01*
X89538095Y-89257142D01*
X89490476Y-89304761D01*
X89395238Y-89352380D01*
X89109523Y-89352380D01*
X89014285Y-89304761D01*
X88966666Y-89257142D01*
X107038095Y-89452380D02*
X107038095Y-90261904D01*
X107085714Y-90357142D01*
X107133333Y-90404761D01*
X107228571Y-90452380D01*
X107419047Y-90452380D01*
X107514285Y-90404761D01*
X107561904Y-90357142D01*
X107609523Y-90261904D01*
X107609523Y-89452380D01*
X108609523Y-90452380D02*
X108038095Y-90452380D01*
X108323809Y-90452380D02*
X108323809Y-89452380D01*
X108228571Y-89595238D01*
X108133333Y-89690476D01*
X108038095Y-89738095D01*
X85833333Y-93257142D02*
X85785714Y-93304761D01*
X85642857Y-93352380D01*
X85547619Y-93352380D01*
X85404761Y-93304761D01*
X85309523Y-93209523D01*
X85261904Y-93114285D01*
X85214285Y-92923809D01*
X85214285Y-92780952D01*
X85261904Y-92590476D01*
X85309523Y-92495238D01*
X85404761Y-92400000D01*
X85547619Y-92352380D01*
X85642857Y-92352380D01*
X85785714Y-92400000D01*
X85833333Y-92447619D01*
X86214285Y-92447619D02*
X86261904Y-92400000D01*
X86357142Y-92352380D01*
X86595238Y-92352380D01*
X86690476Y-92400000D01*
X86738095Y-92447619D01*
X86785714Y-92542857D01*
X86785714Y-92638095D01*
X86738095Y-92780952D01*
X86166666Y-93352380D01*
X86785714Y-93352380D01*
X85833333Y-95257142D02*
X85785714Y-95304761D01*
X85642857Y-95352380D01*
X85547619Y-95352380D01*
X85404761Y-95304761D01*
X85309523Y-95209523D01*
X85261904Y-95114285D01*
X85214285Y-94923809D01*
X85214285Y-94780952D01*
X85261904Y-94590476D01*
X85309523Y-94495238D01*
X85404761Y-94400000D01*
X85547619Y-94352380D01*
X85642857Y-94352380D01*
X85785714Y-94400000D01*
X85833333Y-94447619D01*
X86166666Y-94352380D02*
X86785714Y-94352380D01*
X86452380Y-94733333D01*
X86595238Y-94733333D01*
X86690476Y-94780952D01*
X86738095Y-94828571D01*
X86785714Y-94923809D01*
X86785714Y-95161904D01*
X86738095Y-95257142D01*
X86690476Y-95304761D01*
X86595238Y-95352380D01*
X86309523Y-95352380D01*
X86214285Y-95304761D01*
X86166666Y-95257142D01*
X75214285Y-99452380D02*
X75214285Y-98452380D01*
X75595238Y-98452380D01*
X75690476Y-98500000D01*
X75738095Y-98547619D01*
X75785714Y-98642857D01*
X75785714Y-98785714D01*
X75738095Y-98880952D01*
X75690476Y-98928571D01*
X75595238Y-98976190D01*
X75214285Y-98976190D01*
X76785714Y-99452380D02*
X76452380Y-98976190D01*
X76214285Y-99452380D02*
X76214285Y-98452380D01*
X76595238Y-98452380D01*
X76690476Y-98500000D01*
X76738095Y-98547619D01*
X76785714Y-98642857D01*
X76785714Y-98785714D01*
X76738095Y-98880952D01*
X76690476Y-98928571D01*
X76595238Y-98976190D01*
X76214285Y-98976190D01*
X77404761Y-98452380D02*
X77595238Y-98452380D01*
X77690476Y-98500000D01*
X77785714Y-98595238D01*
X77833333Y-98785714D01*
X77833333Y-99119047D01*
X77785714Y-99309523D01*
X77690476Y-99404761D01*
X77595238Y-99452380D01*
X77404761Y-99452380D01*
X77309523Y-99404761D01*
X77214285Y-99309523D01*
X77166666Y-99119047D01*
X77166666Y-98785714D01*
X77214285Y-98595238D01*
X77309523Y-98500000D01*
X77404761Y-98452380D01*
X78785714Y-98500000D02*
X78690476Y-98452380D01*
X78547619Y-98452380D01*
X78404761Y-98500000D01*
X78309523Y-98595238D01*
X78261904Y-98690476D01*
X78214285Y-98880952D01*
X78214285Y-99023809D01*
X78261904Y-99214285D01*
X78309523Y-99309523D01*
X78404761Y-99404761D01*
X78547619Y-99452380D01*
X78642857Y-99452380D01*
X78785714Y-99404761D01*
X78833333Y-99357142D01*
X78833333Y-99023809D01*
X78642857Y-99023809D01*
X85833333Y-79802380D02*
X85500000Y-79326190D01*
X85261904Y-79802380D02*
X85261904Y-78802380D01*
X85642857Y-78802380D01*
X85738095Y-78850000D01*
X85785714Y-78897619D01*
X85833333Y-78992857D01*
X85833333Y-79135714D01*
X85785714Y-79230952D01*
X85738095Y-79278571D01*
X85642857Y-79326190D01*
X85261904Y-79326190D01*
X86690476Y-79135714D02*
X86690476Y-79802380D01*
X86452380Y-78754761D02*
X86214285Y-79469047D01*
X86833333Y-79469047D01*
M02*
