M48
; DRILL file {KiCad (5.1.2)-2} date 4/6/2020 10:20:45 PM
; FORMAT={-:-/ absolute / inch / decimal}
; #@! TF.CreationDate,2020-04-06T22:20:45-04:00
; #@! TF.GenerationSoftware,Kicad,Pcbnew,(5.1.2)-2
FMAT,2
INCH
T1C0.0157
T2C0.0394
%
G90
G05
T1
X3.378Y-3.7362
X3.3858Y-3.6181
X3.5945Y-3.2441
X3.5945Y-3.6299
X3.6063Y-3.122
X3.6417Y-3.0591
X3.6457Y-3.7677
X3.8307Y-3.7717
X3.8583Y-3.4055
X3.9213Y-3.1417
X3.9291Y-3.3622
X4.063Y-3.2992
X4.0866Y-3.3858
X4.0984Y-2.9409
X4.122Y-3.2992
X4.1299Y-3.063
X4.185Y-3.315
X4.189Y-3.0354
X4.2087Y-3.4173
X4.2362Y-3.2953
X4.252Y-3.4094
T2
X3.4252Y-3.8583
X3.5252Y-3.8583
X3.6252Y-3.8583
X3.7252Y-3.8583
X3.8252Y-3.8583
X3.9252Y-3.8583
X4.0252Y-3.8583
X3.4843Y-3.3724
X3.4843Y-3.4724
X5.9606Y-3.3724
X5.9606Y-3.4724
X4.374Y-2.9906
X4.374Y-3.0906
X5.4606Y-2.9906
X5.4606Y-3.0906
X3.4252Y-2.9921
X3.5252Y-2.9921
X3.6252Y-2.9921
X3.7252Y-2.9921
X3.8252Y-2.9921
X3.9252Y-2.9921
X4.0252Y-2.9921
X4.5787Y-2.9906
X4.5787Y-3.0906
X5.1181Y-2.9906
X5.1181Y-3.0906
X4.8386Y-2.9906
X4.8386Y-3.0906
X3.2795Y-3.6583
X3.2795Y-3.7583
X3.2795Y-3.8583
X5.6339Y-2.9906
X5.6339Y-3.0906
X5.8071Y-2.9866
X5.8071Y-3.0866
T0
M30
